M48
; DRILL file {KiCad (5.99.0-10540-g55c1d814f9)} date Fri May 28 08:01:28 2021
; FORMAT={-:-/ absolute / metric / decimal}
; #@! TF.CreationDate,2021-05-28T08:01:28+02:00
; #@! TF.GenerationSoftware,Kicad,Pcbnew,(5.99.0-10540-g55c1d814f9)
; #@! TF.FileFunction,Plated,1,2,PTH
FMAT,2
METRIC
; #@! TA.AperFunction,Plated,PTH,ViaDrill
T1C0.400
; #@! TA.AperFunction,Plated,PTH,ComponentDrill
T2C0.400
; #@! TA.AperFunction,Plated,PTH,ComponentDrill
T3C0.600
; #@! TA.AperFunction,Plated,PTH,ComponentDrill
T4C0.700
; #@! TA.AperFunction,Plated,PTH,ComponentDrill
T5C0.800
; #@! TA.AperFunction,Plated,PTH,ComponentDrill
T6C0.850
; #@! TA.AperFunction,Plated,PTH,ComponentDrill
T7C1.000
; #@! TA.AperFunction,Plated,PTH,ComponentDrill
T8C1.100
; #@! TA.AperFunction,Plated,PTH,ComponentDrill
T9C1.470
; #@! TA.AperFunction,Plated,PTH,ComponentDrill
T10C1.500
%
G90
G05
T1
X55.88Y-125.476
X57.909Y-69.402
X61.214Y-67.31
X76.89Y-67.21
X79.502Y-83.82
X80.51Y-66.35
X82.07Y-64.97
X82.867Y-44.45
X83.883Y-44.45
X84.899Y-44.45
X85.07Y-66.31
X85.899Y-44.45
X87.57Y-55.95
X106.83Y-84.89
X110.08Y-70.86
X111.64Y-66.46
X132.334Y-136.906
X134.46Y-83.35
X134.58Y-53.65
X142.2Y-66.6
X144.447Y-71.877
X144.82Y-54.83
X147.066Y-72.136
X148.082Y-55.88
X149.61Y-70.33
X153.37Y-66.51
X171.44Y-66.49
X185.166Y-111.76
X195.047Y-103.605
X195.311Y-70.681
X209.717Y-82.968
X223.8Y-61.34
X233.934Y-55.88
X245.872Y-140.716
T2
X71.257Y-44.839
X71.257Y-46.189
X72.106Y-44.839
X72.106Y-46.189
X72.956Y-44.839
X72.956Y-46.189
X73.806Y-44.839
X73.806Y-46.189
X74.656Y-44.839
X74.656Y-46.189
X75.507Y-44.839
X75.507Y-46.189
X76.356Y-44.839
X76.356Y-46.189
X77.206Y-44.839
X77.206Y-46.189
T4
X65.93Y-55.59
X67.882Y-43.18
X67.882Y-48.26
X71.01Y-55.59
X73.152Y-48.26
X73.152Y-53.34
X75.438Y-48.26
X75.438Y-53.34
X78.041Y-58.42
X80.581Y-43.18
X80.581Y-48.26
X83.121Y-58.42
T5
X41.759Y-68.834
X42.227Y-58.42
X42.227Y-66.04
X44.767Y-58.42
X44.767Y-66.04
X46.759Y-68.834
X47.307Y-58.42
X47.307Y-66.04
X48.851Y-50.292
X48.871Y-68.834
X49.847Y-58.42
X49.847Y-66.04
X51.207Y-54.346
X51.351Y-50.292
X52.387Y-58.42
X52.387Y-66.04
X53.871Y-68.834
X54.927Y-58.42
X54.927Y-66.04
X55.963Y-50.292
X56.087Y-54.346
X57.467Y-58.42
X57.467Y-66.04
X58.463Y-50.292
X60.008Y-58.42
X60.008Y-66.04
X62.547Y-58.42
X62.547Y-66.04
X65.087Y-58.42
X65.087Y-66.04
X67.627Y-58.42
X67.627Y-66.04
X70.167Y-58.42
X70.167Y-66.04
X72.707Y-58.42
X72.707Y-66.04
X75.248Y-58.42
X75.248Y-66.04
X88.709Y-45.212
X88.709Y-57.912
X91.249Y-47.752
X91.249Y-60.452
X93.789Y-50.292
X93.789Y-62.992
X96.329Y-52.832
X96.329Y-65.532
X98.87Y-46.482
X98.87Y-59.182
X101.409Y-49.022
X101.409Y-61.722
X103.94Y-51.67
X103.94Y-64.37
X106.489Y-54.102
X106.489Y-66.802
X109.029Y-45.212
X109.029Y-57.912
X111.569Y-47.752
X111.569Y-60.452
X114.109Y-50.292
X114.109Y-62.992
X116.649Y-52.832
X116.649Y-65.532
X119.189Y-46.482
X119.189Y-59.182
X121.73Y-49.022
X121.73Y-61.722
X124.269Y-51.816
X124.269Y-64.516
X126.809Y-54.102
X126.809Y-66.802
X129.35Y-45.212
X129.35Y-57.912
X131.889Y-47.752
X131.889Y-60.452
X134.429Y-50.292
X134.429Y-62.992
X136.98Y-52.84
X136.98Y-65.54
X139.51Y-46.482
X139.51Y-59.182
X142.049Y-49.022
X142.049Y-61.722
X144.589Y-51.562
X144.589Y-64.262
X147.13Y-54.102
X147.13Y-66.802
X149.669Y-45.212
X149.669Y-57.912
X152.209Y-47.752
X152.209Y-60.452
X154.749Y-50.292
X154.749Y-62.992
X157.29Y-52.82
X157.29Y-65.52
X159.829Y-46.482
X159.829Y-59.182
X162.369Y-49.022
X162.369Y-61.722
X164.909Y-51.562
X164.909Y-64.262
X167.46Y-54.16
X167.46Y-66.86
X169.989Y-45.212
X169.989Y-57.912
X172.529Y-47.752
X172.529Y-60.452
X175.07Y-50.292
X175.07Y-62.992
X177.609Y-52.832
X177.609Y-65.532
X180.149Y-46.482
X180.149Y-59.182
X182.689Y-49.022
X182.689Y-61.722
X185.23Y-51.562
X185.23Y-64.262
X187.769Y-54.102
X187.769Y-66.802
X190.309Y-45.212
X190.309Y-57.912
X192.849Y-47.752
X192.849Y-60.452
X195.389Y-50.292
X195.389Y-62.992
X197.929Y-52.832
X197.929Y-65.532
X200.469Y-46.482
X200.469Y-59.182
X203.01Y-49.022
X203.01Y-61.722
X205.549Y-51.562
X205.549Y-64.262
X208.089Y-54.102
X208.089Y-66.802
T6
X79.047Y-53.964
X84.147Y-55.764
T7
X42.921Y-47.513
X42.921Y-50.053
X42.921Y-52.593
X45.461Y-47.513
X45.461Y-50.053
X45.461Y-52.593
X213.11Y-48.98
X213.11Y-51.52
X213.11Y-54.06
X213.11Y-56.6
X254.357Y-45.582
X254.357Y-60.082
X256.858Y-45.582
X259.358Y-45.582
X259.358Y-60.082
T8
X48.883Y-42.962
X48.883Y-47.462
X55.383Y-42.962
X55.383Y-47.462
X58.535Y-42.962
X58.535Y-47.462
X63.02Y-50.93
X65.035Y-42.962
X65.035Y-47.462
X70.64Y-50.93
X77.94Y-50.89
X85.56Y-50.89
T9
X43.497Y-77.47
X43.497Y-134.62
X45.879Y-96.52
X45.879Y-134.62
X49.847Y-74.93
X49.847Y-132.08
X50.641Y-115.57
X52.229Y-93.98
X52.229Y-132.08
X56.991Y-113.03
X62.547Y-77.47
X62.547Y-134.62
X64.929Y-134.62
X67.31Y-96.52
X67.31Y-134.62
X68.897Y-74.93
X68.897Y-132.08
X71.279Y-132.08
X73.66Y-93.98
X73.66Y-132.08
X76.835Y-115.57
X81.597Y-77.47
X81.597Y-134.62
X83.185Y-113.03
X83.979Y-134.62
X86.36Y-96.52
X86.36Y-134.62
X87.947Y-74.93
X87.947Y-132.08
X90.329Y-132.08
X92.71Y-93.98
X92.71Y-132.08
X95.885Y-115.57
X100.647Y-77.47
X102.235Y-113.03
X105.41Y-96.52
X106.997Y-74.93
X111.76Y-93.98
X112.554Y-134.62
X114.935Y-115.57
X117.316Y-134.62
X118.904Y-132.08
X119.697Y-77.47
X121.285Y-113.03
X123.666Y-132.08
X124.46Y-96.52
X126.047Y-74.93
X130.81Y-93.98
X133.985Y-115.57
X138.748Y-77.47
X140.335Y-113.03
X143.51Y-96.52
X143.51Y-134.62
X145.097Y-74.93
X149.86Y-93.98
X149.86Y-132.08
X153.035Y-115.57
X153.05Y-134.61
X155.416Y-134.62
X157.797Y-77.47
X159.385Y-113.03
X159.4Y-132.07
X161.766Y-132.08
X162.56Y-96.52
X164.147Y-74.93
X168.91Y-93.98
X172.085Y-115.57
X176.847Y-77.47
X178.435Y-113.03
X179.23Y-134.62
X181.61Y-96.52
X183.197Y-74.93
X184.01Y-134.62
X185.58Y-132.08
X187.96Y-93.98
X190.36Y-132.08
X191.135Y-115.57
X195.897Y-77.47
X197.485Y-113.03
X200.66Y-96.52
X202.248Y-74.93
X207.01Y-93.98
X210.185Y-115.57
X214.947Y-77.47
X214.947Y-134.62
X216.535Y-113.03
X219.71Y-96.52
X221.297Y-74.93
X221.297Y-132.08
X226.06Y-93.98
X226.854Y-134.62
X229.235Y-115.57
X233.204Y-132.08
X233.998Y-77.47
X233.998Y-134.62
X235.585Y-113.03
X240.347Y-74.93
X240.347Y-132.08
X245.904Y-96.52
X250.666Y-115.57
X250.666Y-134.62
X252.254Y-93.98
X253.047Y-77.47
X253.047Y-134.62
X257.016Y-113.03
X257.016Y-132.08
X259.397Y-74.93
X259.397Y-132.08
T3
G00X69.906Y-42.229
M15
G01X69.906Y-41.429
M16
G05
G00X69.906Y-45.959
M15
G01X69.906Y-44.459
M16
G05
G00X78.556Y-42.229
M15
G01X78.556Y-41.429
M16
G05
G00X78.556Y-45.959
M15
G01X78.556Y-44.459
M16
G05
T10
G00X251.257Y-52.432
M15
G01X251.257Y-53.732
M16
G05
G00X262.457Y-52.432
M15
G01X262.457Y-53.732
M16
G05
T0
M30
