M48
; DRILL file {KiCad (5.99.0-10540-g55c1d814f9)} date Fri May 28 08:01:28 2021
; FORMAT={-:-/ absolute / metric / decimal}
; #@! TF.CreationDate,2021-05-28T08:01:28+02:00
; #@! TF.GenerationSoftware,Kicad,Pcbnew,(5.99.0-10540-g55c1d814f9)
; #@! TF.FileFunction,NonPlated,1,2,NPTH
FMAT,2
METRIC
; #@! TA.AperFunction,NonPlated,NPTH,ComponentDrill
T1C1.750
; #@! TA.AperFunction,NonPlated,NPTH,ComponentDrill
T2C3.048
; #@! TA.AperFunction,NonPlated,NPTH,ComponentDrill
T3C3.988
%
G90
G05
T1
X42.227Y-80.01
X42.227Y-137.16
X44.609Y-99.06
X44.609Y-137.16
X49.371Y-118.11
X52.387Y-80.01
X52.387Y-137.16
X54.769Y-99.06
X54.769Y-137.16
X59.531Y-118.11
X61.277Y-80.01
X61.277Y-137.16
X63.659Y-137.16
X66.04Y-99.06
X66.04Y-137.16
X71.438Y-80.01
X71.438Y-137.16
X73.819Y-137.16
X75.565Y-118.11
X76.2Y-99.06
X76.2Y-137.16
X80.328Y-80.01
X80.328Y-137.16
X82.709Y-137.16
X85.09Y-99.06
X85.09Y-137.16
X85.725Y-118.11
X90.487Y-80.01
X90.487Y-137.16
X92.869Y-137.16
X94.615Y-118.11
X95.25Y-99.06
X95.25Y-137.16
X99.377Y-80.01
X104.14Y-99.06
X104.775Y-118.11
X109.537Y-80.01
X111.284Y-137.16
X113.665Y-118.11
X114.3Y-99.06
X116.046Y-137.16
X118.427Y-80.01
X121.444Y-137.16
X123.19Y-99.06
X123.825Y-118.11
X126.206Y-137.16
X128.588Y-80.01
X132.715Y-118.11
X133.35Y-99.06
X137.477Y-80.01
X142.24Y-99.06
X142.24Y-137.16
X142.875Y-118.11
X147.637Y-80.01
X151.765Y-118.11
X151.78Y-137.15
X152.4Y-99.06
X152.4Y-137.16
X154.146Y-137.16
X156.528Y-80.01
X161.29Y-99.06
X161.925Y-118.11
X161.94Y-137.15
X164.306Y-137.16
X166.688Y-80.01
X170.815Y-118.11
X171.45Y-99.06
X175.577Y-80.01
X177.96Y-137.16
X180.34Y-99.06
X180.975Y-118.11
X182.74Y-137.16
X185.737Y-80.01
X188.12Y-137.16
X189.865Y-118.11
X190.5Y-99.06
X192.9Y-137.16
X194.627Y-80.01
X199.39Y-99.06
X200.025Y-118.11
X204.787Y-80.01
X208.915Y-118.11
X209.55Y-99.06
X213.677Y-80.01
X213.677Y-137.16
X218.44Y-99.06
X219.075Y-118.11
X223.837Y-80.01
X223.837Y-137.16
X225.584Y-137.16
X227.965Y-118.11
X228.6Y-99.06
X232.727Y-80.01
X232.727Y-137.16
X235.744Y-137.16
X238.125Y-118.11
X242.887Y-80.01
X242.887Y-137.16
X244.634Y-99.06
X249.396Y-118.11
X249.396Y-137.16
X251.777Y-80.01
X251.777Y-137.16
X254.794Y-99.06
X259.556Y-118.11
X259.556Y-137.16
X261.938Y-80.01
X261.938Y-137.16
T2
X104.458Y-130.175
X109.22Y-130.175
X109.226Y-130.175
X128.27Y-130.175
X133.033Y-130.175
X171.134Y-130.175
X175.914Y-130.175
X194.946Y-130.175
X199.726Y-130.175
X209.226Y-130.175
T3
X47.307Y-80.01
X47.307Y-137.16
X49.689Y-99.06
X49.689Y-137.16
X54.451Y-118.11
X66.358Y-80.01
X66.358Y-137.16
X68.739Y-137.16
X71.12Y-99.06
X71.12Y-137.16
X80.645Y-118.11
X85.407Y-80.01
X85.407Y-137.16
X87.789Y-137.16
X90.17Y-99.06
X90.17Y-137.16
X99.695Y-118.11
X104.457Y-80.01
X104.458Y-145.415
X109.22Y-99.06
X109.22Y-145.415
X109.226Y-145.415
X116.364Y-137.16
X118.745Y-118.11
X121.126Y-137.16
X123.507Y-80.01
X128.27Y-99.06
X128.27Y-145.415
X133.033Y-145.415
X137.795Y-118.11
X142.558Y-80.01
X147.32Y-99.06
X147.32Y-137.16
X156.845Y-118.11
X156.86Y-137.15
X159.226Y-137.16
X161.607Y-80.01
X166.37Y-99.06
X171.134Y-145.415
X175.895Y-118.11
X175.914Y-145.415
X180.657Y-80.01
X183.04Y-137.16
X185.42Y-99.06
X187.82Y-137.16
X194.945Y-118.11
X194.946Y-145.415
X199.707Y-80.01
X199.726Y-145.415
X204.47Y-99.06
X209.226Y-145.415
X213.995Y-118.11
X218.757Y-80.01
X218.757Y-137.16
X223.52Y-99.06
X230.664Y-137.16
X233.045Y-118.11
X237.807Y-80.01
X237.807Y-137.16
X249.714Y-99.06
X254.476Y-118.11
X254.476Y-137.16
X256.858Y-80.01
X256.858Y-137.16
T0
M30
