M48
; DRILL file {KiCad (5.99.0-11145-g173c9a974c)} date Sat Jun 26 13:39:51 2021
; FORMAT={-:-/ absolute / metric / decimal}
; #@! TF.CreationDate,2021-06-26T13:39:51+02:00
; #@! TF.GenerationSoftware,Kicad,Pcbnew,(5.99.0-11145-g173c9a974c)
; #@! TF.FileFunction,MixedPlating,1,2
FMAT,2
METRIC
; #@! TA.AperFunction,Plated,PTH,ViaDrill
T1C0.400
; #@! TA.AperFunction,Plated,PTH,ComponentDrill
T2C0.400
; #@! TA.AperFunction,Plated,PTH,ComponentDrill
T3C0.600
; #@! TA.AperFunction,Plated,PTH,ComponentDrill
T4C0.700
; #@! TA.AperFunction,Plated,PTH,ComponentDrill
T5C0.800
; #@! TA.AperFunction,Plated,PTH,ComponentDrill
T6C0.850
; #@! TA.AperFunction,Plated,PTH,ComponentDrill
T7C1.000
; #@! TA.AperFunction,Plated,PTH,ComponentDrill
T8C1.100
; #@! TA.AperFunction,Plated,PTH,ComponentDrill
T9C1.470
; #@! TA.AperFunction,Plated,PTH,ComponentDrill
T10C1.500
; #@! TA.AperFunction,NonPlated,NPTH,ComponentDrill
T11C1.750
; #@! TA.AperFunction,NonPlated,NPTH,ComponentDrill
T12C3.048
; #@! TA.AperFunction,NonPlated,NPTH,ComponentDrill
T13C3.988
%
G90
G05
T1
X42.05Y-54.93
X48.56Y-66.92
X55.88Y-125.476
X57.909Y-69.402
X61.214Y-67.31
X76.89Y-67.21
X79.502Y-83.82
X80.51Y-66.35
X81.177Y-58.224
X82.07Y-64.97
X82.867Y-44.45
X83.883Y-44.45
X84.899Y-44.45
X85.899Y-44.45
X106.83Y-84.89
X111.66Y-64.966
X118.95Y-66.38
X132.334Y-136.906
X134.58Y-53.65
X142.49Y-66.39
X144.82Y-54.83
X148.082Y-55.88
X149.61Y-70.33
X153.37Y-66.51
X168.54Y-56.02
X171.44Y-66.49
X185.166Y-111.76
X195.047Y-103.605
X195.311Y-70.681
X213.189Y-78.646
X215.081Y-54.366
X232.71Y-64.51
X233.934Y-55.88
X245.872Y-140.716
T2
X71.257Y-44.839
X71.257Y-46.189
X72.106Y-44.839
X72.106Y-46.189
X72.956Y-44.839
X72.956Y-46.189
X73.806Y-44.839
X73.806Y-46.189
X74.656Y-44.839
X74.656Y-46.189
X75.507Y-44.839
X75.507Y-46.189
X76.356Y-44.839
X76.356Y-46.189
X77.206Y-44.839
X77.206Y-46.189
T4
X65.93Y-55.59
X67.882Y-43.18
X67.882Y-48.26
X71.01Y-55.59
X73.152Y-48.26
X73.152Y-53.34
X75.438Y-48.26
X75.438Y-53.34
X78.041Y-58.42
X80.581Y-43.18
X80.581Y-48.26
X83.121Y-58.42
T5
X41.759Y-68.834
X42.227Y-58.42
X42.227Y-66.04
X44.767Y-58.42
X44.767Y-66.04
X46.759Y-68.834
X47.307Y-58.42
X47.307Y-66.04
X48.851Y-50.292
X48.871Y-68.834
X49.847Y-58.42
X49.847Y-66.04
X51.207Y-54.346
X51.351Y-50.292
X52.387Y-58.42
X52.387Y-66.04
X53.871Y-68.834
X54.927Y-58.42
X54.927Y-66.04
X55.963Y-50.292
X56.087Y-54.346
X57.467Y-58.42
X57.467Y-66.04
X58.463Y-50.292
X60.008Y-58.42
X60.008Y-66.04
X62.547Y-58.42
X62.547Y-66.04
X65.087Y-58.42
X65.087Y-66.04
X67.627Y-58.42
X67.627Y-66.04
X70.167Y-58.42
X70.167Y-66.04
X72.707Y-58.42
X72.707Y-66.04
X75.248Y-58.42
X75.248Y-66.04
X88.709Y-45.212
X88.709Y-57.912
X91.249Y-47.752
X91.249Y-60.452
X93.789Y-50.292
X93.789Y-62.992
X96.329Y-52.832
X96.329Y-65.532
X98.87Y-46.482
X98.87Y-59.182
X101.409Y-49.022
X101.409Y-61.722
X103.94Y-51.67
X103.94Y-64.37
X106.489Y-54.102
X106.489Y-66.802
X109.029Y-45.212
X109.029Y-57.912
X111.569Y-47.752
X111.569Y-60.452
X114.109Y-50.292
X114.109Y-62.992
X116.649Y-52.832
X116.649Y-65.532
X119.189Y-46.482
X119.189Y-59.182
X121.73Y-49.022
X121.73Y-61.722
X124.269Y-51.816
X124.269Y-64.516
X126.809Y-54.102
X126.809Y-66.802
X129.35Y-45.212
X129.35Y-57.912
X131.889Y-47.752
X131.889Y-60.452
X134.429Y-50.292
X134.429Y-62.992
X136.98Y-52.84
X136.98Y-65.54
X139.51Y-46.482
X139.51Y-59.182
X142.049Y-49.022
X142.049Y-61.722
X144.589Y-51.562
X144.589Y-64.262
X147.13Y-54.102
X147.13Y-66.802
X149.669Y-45.212
X149.669Y-57.912
X152.209Y-47.752
X152.209Y-60.452
X154.749Y-50.292
X154.749Y-62.992
X157.29Y-52.82
X157.29Y-65.52
X159.829Y-46.482
X159.829Y-59.182
X162.369Y-49.022
X162.369Y-61.722
X164.909Y-51.562
X164.909Y-64.262
X167.46Y-54.16
X167.46Y-66.86
X169.989Y-45.212
X169.989Y-57.912
X172.529Y-47.752
X172.529Y-60.452
X175.07Y-50.292
X175.07Y-62.992
X177.609Y-52.832
X177.609Y-65.532
X180.149Y-46.482
X180.149Y-59.182
X182.689Y-49.022
X182.689Y-61.722
X185.23Y-51.562
X185.23Y-64.262
X187.769Y-54.102
X187.769Y-66.802
X190.309Y-45.212
X190.309Y-57.912
X192.849Y-47.752
X192.849Y-60.452
X195.389Y-50.292
X195.389Y-62.992
X197.929Y-52.832
X197.929Y-65.532
X200.469Y-46.482
X200.469Y-59.182
X203.01Y-49.022
X203.01Y-61.722
X205.549Y-51.562
X205.549Y-64.262
X208.089Y-54.102
X208.089Y-66.802
T6
X79.047Y-53.964
X84.147Y-55.764
T7
X42.921Y-47.513
X42.921Y-50.053
X42.921Y-52.593
X45.461Y-47.513
X45.461Y-50.053
X45.461Y-52.593
X213.11Y-48.98
X213.11Y-51.52
X213.11Y-54.06
X213.11Y-56.6
X254.357Y-45.582
X254.357Y-60.082
X256.858Y-45.582
X259.358Y-45.582
X259.358Y-60.082
T8
X48.883Y-42.962
X48.883Y-47.462
X55.383Y-42.962
X55.383Y-47.462
X58.535Y-42.962
X58.535Y-47.462
X63.02Y-50.93
X65.035Y-42.962
X65.035Y-47.462
X70.64Y-50.93
X77.94Y-50.89
X85.56Y-50.89
T9
X43.497Y-77.47
X43.497Y-134.62
X45.879Y-96.52
X45.879Y-134.62
X49.847Y-74.93
X49.847Y-132.08
X50.641Y-115.57
X52.229Y-93.98
X52.229Y-132.08
X56.991Y-113.03
X62.547Y-77.47
X62.547Y-134.62
X64.929Y-134.62
X67.31Y-96.52
X67.31Y-134.62
X68.897Y-74.93
X68.897Y-132.08
X71.279Y-132.08
X73.66Y-93.98
X73.66Y-132.08
X76.835Y-115.57
X81.597Y-77.47
X81.597Y-134.62
X83.185Y-113.03
X83.979Y-134.62
X86.36Y-96.52
X86.36Y-134.62
X87.947Y-74.93
X87.947Y-132.08
X90.329Y-132.08
X92.71Y-93.98
X92.71Y-132.08
X95.885Y-115.57
X100.647Y-77.47
X102.235Y-113.03
X105.41Y-96.52
X106.997Y-74.93
X111.76Y-93.98
X112.554Y-134.62
X114.935Y-115.57
X117.316Y-134.62
X118.904Y-132.08
X119.697Y-77.47
X121.285Y-113.03
X123.666Y-132.08
X124.46Y-96.52
X126.047Y-74.93
X130.81Y-93.98
X133.985Y-115.57
X138.748Y-77.47
X140.335Y-113.03
X143.51Y-96.52
X143.51Y-134.62
X145.097Y-74.93
X149.86Y-93.98
X149.86Y-132.08
X153.035Y-115.57
X153.05Y-134.61
X155.416Y-134.62
X157.797Y-77.47
X159.385Y-113.03
X159.4Y-132.07
X161.766Y-132.08
X162.56Y-96.52
X164.147Y-74.93
X168.91Y-93.98
X172.085Y-115.57
X176.847Y-77.47
X178.435Y-113.03
X179.23Y-134.625
X181.61Y-96.52
X183.197Y-74.93
X184.0Y-134.62
X185.58Y-132.085
X187.96Y-93.98
X190.35Y-132.08
X191.135Y-115.57
X195.897Y-77.47
X197.485Y-113.03
X200.66Y-96.52
X202.248Y-74.93
X207.01Y-93.98
X210.185Y-115.57
X214.947Y-77.47
X214.947Y-134.62
X216.535Y-113.03
X219.71Y-96.52
X221.297Y-74.93
X221.297Y-132.08
X226.06Y-93.98
X226.854Y-134.62
X229.235Y-115.57
X233.204Y-132.08
X233.998Y-77.47
X233.998Y-134.62
X235.585Y-113.03
X240.347Y-74.93
X240.347Y-132.08
X245.904Y-96.52
X250.666Y-115.57
X250.666Y-134.62
X252.254Y-93.98
X253.047Y-77.47
X253.047Y-134.62
X257.016Y-113.03
X257.016Y-132.08
X259.397Y-74.93
X259.397Y-132.08
T11
X42.227Y-80.01
X42.227Y-137.16
X44.609Y-99.06
X44.609Y-137.16
X49.371Y-118.11
X52.387Y-80.01
X52.387Y-137.16
X54.769Y-99.06
X54.769Y-137.16
X59.531Y-118.11
X61.277Y-80.01
X61.277Y-137.16
X63.659Y-137.16
X66.04Y-99.06
X66.04Y-137.16
X71.438Y-80.01
X71.438Y-137.16
X73.819Y-137.16
X75.565Y-118.11
X76.2Y-99.06
X76.2Y-137.16
X80.328Y-80.01
X80.328Y-137.16
X82.709Y-137.16
X85.09Y-99.06
X85.09Y-137.16
X85.725Y-118.11
X90.487Y-80.01
X90.487Y-137.16
X92.869Y-137.16
X94.615Y-118.11
X95.25Y-99.06
X95.25Y-137.16
X99.377Y-80.01
X104.14Y-99.06
X104.775Y-118.11
X109.537Y-80.01
X111.284Y-137.16
X113.665Y-118.11
X114.3Y-99.06
X116.046Y-137.16
X118.427Y-80.01
X121.444Y-137.16
X123.19Y-99.06
X123.825Y-118.11
X126.206Y-137.16
X128.588Y-80.01
X132.715Y-118.11
X133.35Y-99.06
X137.477Y-80.01
X142.24Y-99.06
X142.24Y-137.16
X142.875Y-118.11
X147.637Y-80.01
X151.765Y-118.11
X151.78Y-137.15
X152.4Y-99.06
X152.4Y-137.16
X154.146Y-137.16
X156.528Y-80.01
X161.29Y-99.06
X161.925Y-118.11
X161.94Y-137.15
X164.306Y-137.16
X166.688Y-80.01
X170.815Y-118.11
X171.45Y-99.06
X175.577Y-80.01
X177.96Y-137.165
X180.34Y-99.06
X180.975Y-118.11
X182.73Y-137.16
X185.737Y-80.01
X188.12Y-137.165
X189.865Y-118.11
X190.5Y-99.06
X192.89Y-137.16
X194.627Y-80.01
X199.39Y-99.06
X200.025Y-118.11
X204.787Y-80.01
X208.915Y-118.11
X209.55Y-99.06
X213.677Y-80.01
X213.677Y-137.16
X218.44Y-99.06
X219.075Y-118.11
X223.837Y-80.01
X223.837Y-137.16
X225.584Y-137.16
X227.965Y-118.11
X228.6Y-99.06
X232.727Y-80.01
X232.727Y-137.16
X235.744Y-137.16
X238.125Y-118.11
X242.887Y-80.01
X242.887Y-137.16
X244.634Y-99.06
X249.396Y-118.11
X249.396Y-137.16
X251.777Y-80.01
X251.777Y-137.16
X254.794Y-99.06
X259.556Y-118.11
X259.556Y-137.16
X261.938Y-80.01
X261.938Y-137.16
T12
X104.458Y-130.175
X109.22Y-130.175
X109.226Y-130.175
X128.27Y-130.175
X133.033Y-130.175
X171.134Y-130.18
X175.904Y-130.175
X194.946Y-130.18
X199.716Y-130.175
X209.226Y-130.175
T13
X47.307Y-80.01
X47.307Y-137.16
X49.689Y-99.06
X49.689Y-137.16
X54.451Y-118.11
X66.358Y-80.01
X66.358Y-137.16
X68.739Y-137.16
X71.12Y-99.06
X71.12Y-137.16
X80.645Y-118.11
X85.407Y-80.01
X85.407Y-137.16
X87.789Y-137.16
X90.17Y-99.06
X90.17Y-137.16
X99.695Y-118.11
X104.457Y-80.01
X104.458Y-145.415
X109.22Y-99.06
X109.22Y-145.415
X109.226Y-145.415
X116.364Y-137.16
X118.745Y-118.11
X121.126Y-137.16
X123.507Y-80.01
X128.27Y-99.06
X128.27Y-145.415
X133.033Y-145.415
X137.795Y-118.11
X142.558Y-80.01
X147.32Y-99.06
X147.32Y-137.16
X156.845Y-118.11
X156.86Y-137.15
X159.226Y-137.16
X161.607Y-80.01
X166.37Y-99.06
X171.134Y-145.42
X175.895Y-118.11
X175.904Y-145.415
X180.657Y-80.01
X183.04Y-137.165
X185.42Y-99.06
X187.81Y-137.16
X194.945Y-118.11
X194.946Y-145.42
X199.707Y-80.01
X199.716Y-145.415
X204.47Y-99.06
X209.226Y-145.415
X213.995Y-118.11
X218.757Y-80.01
X218.757Y-137.16
X223.52Y-99.06
X230.664Y-137.16
X233.045Y-118.11
X237.807Y-80.01
X237.807Y-137.16
X249.714Y-99.06
X254.476Y-118.11
X254.476Y-137.16
X256.858Y-80.01
X256.858Y-137.16
T3
G00X69.906Y-42.229
M15
G01X69.906Y-41.429
M16
G05
G00X69.906Y-45.959
M15
G01X69.906Y-44.459
M16
G05
G00X78.556Y-42.229
M15
G01X78.556Y-41.429
M16
G05
G00X78.556Y-45.959
M15
G01X78.556Y-44.459
M16
G05
T10
G00X251.257Y-52.432
M15
G01X251.257Y-53.732
M16
G05
G00X262.457Y-52.432
M15
G01X262.457Y-53.732
M16
G05
T0
M30
