%TF.GenerationSoftware,KiCad,Pcbnew,(5.99.0-10540-g55c1d814f9)*%
%TF.CreationDate,2021-05-28T08:01:38+02:00*%
%TF.ProjectId,0xcb-static,30786362-2d73-4746-9174-69632e6b6963,1.0*%
%TF.SameCoordinates,Original*%
%TF.FileFunction,Soldermask,Top*%
%TF.FilePolarity,Negative*%
%FSLAX46Y46*%
G04 Gerber Fmt 4.6, Leading zero omitted, Abs format (unit mm)*
G04 Created by KiCad (PCBNEW (5.99.0-10540-g55c1d814f9)) date 2021-05-28 08:01:38*
%MOMM*%
%LPD*%
G01*
G04 APERTURE LIST*
%ADD10C,1.750000*%
%ADD11C,3.987800*%
%ADD12R,1.600000X1.600000*%
%ADD13O,1.600000X1.600000*%
%ADD14C,2.000000*%
%ADD15C,3.048000*%
%ADD16R,1.700000X1.700000*%
%ADD17O,1.700000X1.700000*%
%ADD18R,2.200000X2.200000*%
%ADD19O,2.200000X2.200000*%
%ADD20C,1.400000*%
%ADD21O,1.400000X1.400000*%
%ADD22C,1.600000*%
%ADD23C,1.500000*%
%ADD24R,2.000000X2.000000*%
%ADD25R,2.000000X3.200000*%
%ADD26C,0.700000*%
%ADD27O,0.900000X1.700000*%
%ADD28O,0.900000X2.400000*%
G04 APERTURE END LIST*
D10*
%TO.C,MX37_1*%
X73818800Y-137160000D03*
X63658800Y-137160000D03*
D11*
X68738800Y-137160000D03*
%TD*%
D12*
%TO.C,D36*%
X205549500Y-64262000D03*
D13*
X205549500Y-51562000D03*
%TD*%
D10*
%TO.C,MX22*%
X218440000Y-99060000D03*
D11*
X223520000Y-99060000D03*
D10*
X228600000Y-99060000D03*
%TD*%
D12*
%TO.C,D49*%
X197929500Y-65532000D03*
D13*
X197929500Y-52832000D03*
%TD*%
D10*
%TO.C,MX27*%
X104775000Y-118110000D03*
D11*
X99695000Y-118110000D03*
D10*
X94615000Y-118110000D03*
%TD*%
D12*
%TO.C,D20*%
X162369500Y-61722000D03*
D13*
X162369500Y-49022000D03*
%TD*%
D14*
%TO.C,SW2*%
X58535500Y-42962000D03*
X65035500Y-42962000D03*
X65035500Y-47462000D03*
X58535500Y-47462000D03*
%TD*%
D11*
%TO.C,MX25*%
X54451300Y-118110000D03*
D10*
X49371300Y-118110000D03*
X59531300Y-118110000D03*
%TD*%
D11*
%TO.C,MX41*%
X199726250Y-145415000D03*
D10*
X182740000Y-137160000D03*
X192900000Y-137160000D03*
D15*
X175913750Y-130175000D03*
X199726250Y-130175000D03*
D11*
X175913750Y-145415000D03*
X187820000Y-137160000D03*
%TD*%
D16*
%TO.C,OL1*%
X213110000Y-48980000D03*
D17*
X213110000Y-51520000D03*
X213110000Y-54060000D03*
X213110000Y-56600000D03*
%TD*%
D12*
%TO.C,D10*%
X180149500Y-59182000D03*
D13*
X180149500Y-46482000D03*
%TD*%
D10*
%TO.C,MX21*%
X199390000Y-99060000D03*
X209550000Y-99060000D03*
D11*
X204470000Y-99060000D03*
%TD*%
D12*
%TO.C,D14*%
X101409500Y-61722000D03*
D13*
X101409500Y-49022000D03*
%TD*%
D10*
%TO.C,MX11*%
X242887500Y-80010000D03*
X232727500Y-80010000D03*
D11*
X237807500Y-80010000D03*
%TD*%
D10*
%TO.C,MX38_2*%
X95250000Y-137160000D03*
X85090000Y-137160000D03*
D11*
X90170000Y-137160000D03*
%TD*%
D10*
%TO.C,MX14*%
X66040000Y-99060000D03*
D11*
X71120000Y-99060000D03*
D10*
X76200000Y-99060000D03*
%TD*%
%TO.C,MX40*%
X142240000Y-137160000D03*
D11*
X147320000Y-137160000D03*
D10*
X152400000Y-137160000D03*
%TD*%
%TO.C,MX31*%
X170815000Y-118110000D03*
D11*
X175895000Y-118110000D03*
D10*
X180975000Y-118110000D03*
%TD*%
D18*
%TO.C,D47*%
X70640000Y-50930000D03*
D19*
X63020000Y-50930000D03*
%TD*%
D10*
%TO.C,MX16*%
X104140000Y-99060000D03*
D11*
X109220000Y-99060000D03*
D10*
X114300000Y-99060000D03*
%TD*%
D12*
%TO.C,D27*%
X114109500Y-62992000D03*
D13*
X114109500Y-50292000D03*
%TD*%
D12*
%TO.C,D28*%
X124269500Y-64516000D03*
D13*
X124269500Y-51816000D03*
%TD*%
D11*
%TO.C,MX10*%
X218757500Y-80010000D03*
D10*
X213677500Y-80010000D03*
X223837500Y-80010000D03*
%TD*%
D20*
%TO.C,R1*%
X80581500Y-43180000D03*
D21*
X80581500Y-48260000D03*
%TD*%
D10*
%TO.C,MX29*%
X142875000Y-118110000D03*
X132715000Y-118110000D03*
D11*
X137795000Y-118110000D03*
%TD*%
D10*
%TO.C,MX33*%
X219075000Y-118110000D03*
X208915000Y-118110000D03*
D11*
X213995000Y-118110000D03*
%TD*%
D12*
%TO.C,D17*%
X131889500Y-60452000D03*
D13*
X131889500Y-47752000D03*
%TD*%
D12*
%TO.C,D40*%
X126809500Y-66802000D03*
D13*
X126809500Y-54102000D03*
%TD*%
D12*
%TO.C,D32*%
X164909500Y-64262000D03*
D13*
X164909500Y-51562000D03*
%TD*%
D10*
%TO.C,MX39*%
X116046300Y-137160000D03*
D11*
X121126300Y-137160000D03*
D10*
X126206300Y-137160000D03*
D11*
X109220050Y-145415000D03*
D15*
X109220050Y-130175000D03*
X133032550Y-130175000D03*
D11*
X133032550Y-145415000D03*
%TD*%
D12*
%TO.C,D50*%
X208089500Y-66802000D03*
D13*
X208089500Y-54102000D03*
%TD*%
D10*
%TO.C,MX40_1*%
X151780000Y-137150000D03*
D11*
X156860000Y-137150000D03*
D10*
X161940000Y-137150000D03*
%TD*%
D22*
%TO.C,C2*%
X46759500Y-68834000D03*
X41759500Y-68834000D03*
%TD*%
D20*
%TO.C,R4*%
X75438000Y-48260000D03*
D21*
X75438000Y-53340000D03*
%TD*%
D10*
%TO.C,MX43_1*%
X235743800Y-137160000D03*
X225583800Y-137160000D03*
D11*
X230663800Y-137160000D03*
%TD*%
D12*
%TO.C,D19*%
X152209500Y-60452000D03*
D13*
X152209500Y-47752000D03*
%TD*%
D12*
%TO.C,D35*%
X195389500Y-62992000D03*
D13*
X195389500Y-50292000D03*
%TD*%
D20*
%TO.C,R5*%
X78041500Y-58420000D03*
D21*
X83121500Y-58420000D03*
%TD*%
D12*
%TO.C,D45*%
X177609500Y-65532000D03*
D13*
X177609500Y-52832000D03*
%TD*%
D12*
%TO.C,D4*%
X119189500Y-59182000D03*
D13*
X119189500Y-46482000D03*
%TD*%
D12*
%TO.C,D22*%
X182689500Y-61722000D03*
D13*
X182689500Y-49022000D03*
%TD*%
D12*
%TO.C,D25*%
X93789500Y-62992000D03*
D13*
X93789500Y-50292000D03*
%TD*%
D10*
%TO.C,MX44_1*%
X259556300Y-137160000D03*
X249396300Y-137160000D03*
D11*
X254476300Y-137160000D03*
%TD*%
D10*
%TO.C,MX44*%
X251777500Y-137160000D03*
X261937500Y-137160000D03*
D11*
X256857500Y-137160000D03*
%TD*%
D10*
%TO.C,MX4*%
X109537500Y-80010000D03*
X99377500Y-80010000D03*
D11*
X104457500Y-80010000D03*
%TD*%
D12*
%TO.C,D24*%
X203009500Y-61722000D03*
D13*
X203009500Y-49022000D03*
%TD*%
D10*
%TO.C,MX24*%
X261937500Y-80010000D03*
X251777500Y-80010000D03*
D11*
X256857500Y-80010000D03*
%TD*%
D10*
%TO.C,MX37*%
X71437500Y-137160000D03*
D11*
X66357500Y-137160000D03*
D10*
X61277500Y-137160000D03*
%TD*%
D11*
%TO.C,MX20*%
X185420000Y-99060000D03*
D10*
X180340000Y-99060000D03*
X190500000Y-99060000D03*
%TD*%
D12*
%TO.C,D9*%
X169989500Y-57912000D03*
D13*
X169989500Y-45212000D03*
%TD*%
D11*
%TO.C,MX7*%
X161607500Y-80010000D03*
D10*
X166687500Y-80010000D03*
X156527500Y-80010000D03*
%TD*%
D11*
%TO.C,MX36*%
X47307500Y-137160000D03*
D10*
X52387500Y-137160000D03*
X42227500Y-137160000D03*
%TD*%
D12*
%TO.C,D39*%
X116649500Y-65532000D03*
D13*
X116649500Y-52832000D03*
%TD*%
D12*
%TO.C,D13*%
X91249500Y-60452000D03*
D13*
X91249500Y-47752000D03*
%TD*%
D12*
%TO.C,D26*%
X103940000Y-64370000D03*
D13*
X103940000Y-51670000D03*
%TD*%
D10*
%TO.C,MX42*%
X213677500Y-137160000D03*
X223837500Y-137160000D03*
D11*
X218757500Y-137160000D03*
%TD*%
D12*
%TO.C,D12*%
X200469500Y-59182000D03*
D13*
X200469500Y-46482000D03*
%TD*%
D22*
%TO.C,C1*%
X48871500Y-68834000D03*
X53871500Y-68834000D03*
%TD*%
D12*
%TO.C,D7*%
X149669500Y-57912000D03*
D13*
X149669500Y-45212000D03*
%TD*%
D10*
%TO.C,MX17*%
X133350000Y-99060000D03*
X123190000Y-99060000D03*
D11*
X128270000Y-99060000D03*
%TD*%
D20*
%TO.C,F1*%
X84147500Y-55764000D03*
X79047500Y-53964000D03*
%TD*%
D10*
%TO.C,MX36_1*%
X54768800Y-137160000D03*
X44608800Y-137160000D03*
D11*
X49688800Y-137160000D03*
%TD*%
D10*
%TO.C,MX30*%
X151765000Y-118110000D03*
X161925000Y-118110000D03*
D11*
X156845000Y-118110000D03*
%TD*%
D12*
%TO.C,D41*%
X136980000Y-65540000D03*
D13*
X136980000Y-52840000D03*
%TD*%
D12*
%TO.C,D3*%
X109029500Y-57912000D03*
D13*
X109029500Y-45212000D03*
%TD*%
D20*
%TO.C,R6*%
X71010000Y-55590000D03*
D21*
X65930000Y-55590000D03*
%TD*%
D12*
%TO.C,D5*%
X129349500Y-57912000D03*
D13*
X129349500Y-45212000D03*
%TD*%
D10*
%TO.C,MX8*%
X175577500Y-80010000D03*
X185737500Y-80010000D03*
D11*
X180657500Y-80010000D03*
%TD*%
D10*
%TO.C,MX5*%
X128587500Y-80010000D03*
X118427500Y-80010000D03*
D11*
X123507500Y-80010000D03*
%TD*%
D10*
%TO.C,MX34*%
X227965000Y-118110000D03*
X238125000Y-118110000D03*
D11*
X233045000Y-118110000D03*
%TD*%
D12*
%TO.C,D8*%
X159829500Y-59182000D03*
D13*
X159829500Y-46482000D03*
%TD*%
D10*
%TO.C,MX28*%
X123825000Y-118110000D03*
D11*
X118745000Y-118110000D03*
D10*
X113665000Y-118110000D03*
%TD*%
D11*
%TO.C,MX19*%
X166370000Y-99060000D03*
D10*
X161290000Y-99060000D03*
X171450000Y-99060000D03*
%TD*%
D12*
%TO.C,D16*%
X121729500Y-61722000D03*
D13*
X121729500Y-49022000D03*
%TD*%
D10*
%TO.C,MX15*%
X95250000Y-99060000D03*
X85090000Y-99060000D03*
D11*
X90170000Y-99060000D03*
%TD*%
D12*
%TO.C,D6*%
X139509500Y-59182000D03*
D13*
X139509500Y-46482000D03*
%TD*%
D12*
%TO.C,D15*%
X111569500Y-60452000D03*
D13*
X111569500Y-47752000D03*
%TD*%
D10*
%TO.C,MX43*%
X242887500Y-137160000D03*
D11*
X237807500Y-137160000D03*
D10*
X232727500Y-137160000D03*
%TD*%
D12*
%TO.C,D23*%
X192849500Y-60452000D03*
D13*
X192849500Y-47752000D03*
%TD*%
D10*
%TO.C,MX18*%
X142240000Y-99060000D03*
D11*
X147320000Y-99060000D03*
D10*
X152400000Y-99060000D03*
%TD*%
D12*
%TO.C,D31*%
X154749500Y-62992000D03*
D13*
X154749500Y-50292000D03*
%TD*%
D12*
%TO.C,D43*%
X157290000Y-65520000D03*
D13*
X157290000Y-52820000D03*
%TD*%
D10*
%TO.C,MX23*%
X254793800Y-99060000D03*
X244633800Y-99060000D03*
D11*
X249713800Y-99060000D03*
%TD*%
D12*
%TO.C,U1*%
X75247500Y-58420000D03*
D13*
X72707500Y-58420000D03*
X70167500Y-58420000D03*
X67627500Y-58420000D03*
X65087500Y-58420000D03*
X62547500Y-58420000D03*
X60007500Y-58420000D03*
X57467500Y-58420000D03*
X54927500Y-58420000D03*
X52387500Y-58420000D03*
X49847500Y-58420000D03*
X47307500Y-58420000D03*
X44767500Y-58420000D03*
X42227500Y-58420000D03*
X42227500Y-66040000D03*
X44767500Y-66040000D03*
X47307500Y-66040000D03*
X49847500Y-66040000D03*
X52387500Y-66040000D03*
X54927500Y-66040000D03*
X57467500Y-66040000D03*
X60007500Y-66040000D03*
X62547500Y-66040000D03*
X65087500Y-66040000D03*
X67627500Y-66040000D03*
X70167500Y-66040000D03*
X72707500Y-66040000D03*
X75247500Y-66040000D03*
%TD*%
D12*
%TO.C,D29*%
X134429500Y-62992000D03*
D13*
X134429500Y-50292000D03*
%TD*%
D12*
%TO.C,D1*%
X88709500Y-57912000D03*
D13*
X88709500Y-45212000D03*
%TD*%
D12*
%TO.C,D18*%
X142049500Y-61722000D03*
D13*
X142049500Y-49022000D03*
%TD*%
D12*
%TO.C,D48*%
X187769500Y-66802000D03*
D13*
X187769500Y-54102000D03*
%TD*%
D10*
%TO.C,MX35*%
X259556300Y-118110000D03*
X249396300Y-118110000D03*
D11*
X254476300Y-118110000D03*
%TD*%
D10*
%TO.C,MX37_2*%
X76200000Y-137160000D03*
D11*
X71120000Y-137160000D03*
D10*
X66040000Y-137160000D03*
%TD*%
D12*
%TO.C,D38*%
X106489500Y-66802000D03*
D13*
X106489500Y-54102000D03*
%TD*%
D10*
%TO.C,MX38*%
X90487500Y-137160000D03*
X80327500Y-137160000D03*
D11*
X85407500Y-137160000D03*
%TD*%
D10*
%TO.C,MX9*%
X194627500Y-80010000D03*
D11*
X199707500Y-80010000D03*
D10*
X204787500Y-80010000D03*
%TD*%
%TO.C,MX41_1*%
X177960000Y-137160000D03*
D11*
X183040000Y-137160000D03*
D10*
X188120000Y-137160000D03*
D11*
X171133750Y-145415000D03*
D15*
X171133750Y-130175000D03*
X194946250Y-130175000D03*
D11*
X194946250Y-145415000D03*
%TD*%
D10*
%TO.C,MX2*%
X61277500Y-80010000D03*
X71437500Y-80010000D03*
D11*
X66357500Y-80010000D03*
%TD*%
D10*
%TO.C,MX1*%
X42227500Y-80010000D03*
D11*
X47307500Y-80010000D03*
D10*
X52387500Y-80010000D03*
%TD*%
D12*
%TO.C,D30*%
X144589500Y-64262000D03*
D13*
X144589500Y-51562000D03*
%TD*%
D10*
%TO.C,MX40_2*%
X154146300Y-137160000D03*
D11*
X209226200Y-145415000D03*
X109226400Y-145415000D03*
D15*
X209226200Y-130175000D03*
D10*
X164306300Y-137160000D03*
D15*
X109226400Y-130175000D03*
D11*
X159226300Y-137160000D03*
%TD*%
D12*
%TO.C,D21*%
X172529500Y-60452000D03*
D13*
X172529500Y-47752000D03*
%TD*%
D22*
%TO.C,C3*%
X58463500Y-50292000D03*
X55963500Y-50292000D03*
%TD*%
D18*
%TO.C,D46*%
X77940000Y-50890000D03*
D19*
X85560000Y-50890000D03*
%TD*%
D12*
%TO.C,D2*%
X98869500Y-59182000D03*
D13*
X98869500Y-46482000D03*
%TD*%
D12*
%TO.C,D34*%
X185229500Y-64262000D03*
D13*
X185229500Y-51562000D03*
%TD*%
D23*
%TO.C,Y1*%
X51207500Y-54346000D03*
X56087500Y-54346000D03*
%TD*%
D12*
%TO.C,D33*%
X175069500Y-62992000D03*
D13*
X175069500Y-50292000D03*
%TD*%
D10*
%TO.C,MX32*%
X189865000Y-118110000D03*
D11*
X194945000Y-118110000D03*
D10*
X200025000Y-118110000D03*
%TD*%
D20*
%TO.C,R2*%
X67881500Y-48260000D03*
D21*
X67881500Y-43180000D03*
%TD*%
D10*
%TO.C,MX13*%
X44608800Y-99060000D03*
X54768800Y-99060000D03*
D11*
X49688800Y-99060000D03*
%TD*%
D24*
%TO.C,MX12*%
X259357500Y-45582000D03*
D14*
X254357500Y-45582000D03*
X256857500Y-45582000D03*
D25*
X251257500Y-53082000D03*
X262457500Y-53082000D03*
D14*
X254357500Y-60082000D03*
X259357500Y-60082000D03*
%TD*%
D12*
%TO.C,D42*%
X147129500Y-66802000D03*
D13*
X147129500Y-54102000D03*
%TD*%
D10*
%TO.C,MX3*%
X80327500Y-80010000D03*
D11*
X85407500Y-80010000D03*
D10*
X90487500Y-80010000D03*
%TD*%
D20*
%TO.C,R3*%
X73152000Y-53340000D03*
D21*
X73152000Y-48260000D03*
%TD*%
D12*
%TO.C,D11*%
X190309500Y-57912000D03*
D13*
X190309500Y-45212000D03*
%TD*%
D26*
%TO.C,J1*%
X77206500Y-46189000D03*
X76356500Y-46189000D03*
X75506500Y-46189000D03*
X74656500Y-46189000D03*
X73806500Y-46189000D03*
X72956500Y-46189000D03*
X72106500Y-46189000D03*
X71256500Y-46189000D03*
X71256500Y-44839000D03*
X72106500Y-44839000D03*
X72956500Y-44839000D03*
X73806500Y-44839000D03*
X74656500Y-44839000D03*
X75506500Y-44839000D03*
X76356500Y-44839000D03*
X77206500Y-44839000D03*
D27*
X69906500Y-41829000D03*
X78556500Y-41829000D03*
D28*
X78556500Y-45209000D03*
X69906500Y-45209000D03*
%TD*%
D10*
%TO.C,MX38_1*%
X92868800Y-137160000D03*
X82708800Y-137160000D03*
D11*
X87788800Y-137160000D03*
%TD*%
D12*
%TO.C,D37*%
X96329500Y-65532000D03*
D13*
X96329500Y-52832000D03*
%TD*%
D16*
%TO.C,J2*%
X42921000Y-47513000D03*
D17*
X45461000Y-47513000D03*
X42921000Y-50053000D03*
X45461000Y-50053000D03*
X42921000Y-52593000D03*
X45461000Y-52593000D03*
%TD*%
D22*
%TO.C,C4*%
X48851500Y-50292000D03*
X51351500Y-50292000D03*
%TD*%
D14*
%TO.C,SW1*%
X55383500Y-42962000D03*
X48883500Y-42962000D03*
X48883500Y-47462000D03*
X55383500Y-47462000D03*
%TD*%
D10*
%TO.C,MX26*%
X85725000Y-118110000D03*
X75565000Y-118110000D03*
D11*
X80645000Y-118110000D03*
%TD*%
D10*
%TO.C,MX6*%
X147637500Y-80010000D03*
X137477500Y-80010000D03*
D11*
X142557500Y-80010000D03*
%TD*%
%TO.C,MX39_1*%
X128270050Y-145415000D03*
D10*
X111283800Y-137160000D03*
X121443800Y-137160000D03*
D15*
X104457550Y-130175000D03*
X128270050Y-130175000D03*
D11*
X104457550Y-145415000D03*
X116363800Y-137160000D03*
%TD*%
D12*
%TO.C,D44*%
X167460000Y-66860000D03*
D13*
X167460000Y-54160000D03*
%TD*%
M02*
