%TF.GenerationSoftware,KiCad,Pcbnew,(5.99.0-10540-g55c1d814f9)*%
%TF.CreationDate,2021-05-27T21:19:55+02:00*%
%TF.ProjectId,plate-back,706c6174-652d-4626-9163-6b2e6b696361,1.0*%
%TF.SameCoordinates,Original*%
%TF.FileFunction,Profile,NP*%
%FSLAX46Y46*%
G04 Gerber Fmt 4.6, Leading zero omitted, Abs format (unit mm)*
G04 Created by KiCad (PCBNEW (5.99.0-10540-g55c1d814f9)) date 2021-05-27 21:19:55*
%MOMM*%
%LPD*%
G01*
G04 APERTURE LIST*
%TA.AperFunction,Profile*%
%ADD10C,0.250000*%
%TD*%
G04 APERTURE END LIST*
D10*
X268938749Y-116567001D02*
X35338750Y-116567001D01*
X249738749Y-123067001D02*
X211738749Y-123067001D01*
X211738749Y-136067001D02*
X249738749Y-136067001D01*
X269688749Y-119917001D02*
G75*
G03*
X269688749Y-119917001I-1250000J0D01*
G01*
X35338750Y-143717001D02*
X268938749Y-143717001D01*
X250238749Y-135567001D02*
G75*
G02*
X249738749Y-136067001I-500000J0D01*
G01*
X211238749Y-123567001D02*
G75*
G02*
X211738749Y-123067001I500000J0D01*
G01*
X32838750Y-119067001D02*
X32838750Y-141217001D01*
X269688749Y-140367001D02*
G75*
G03*
X269688749Y-140367001I-1250000J0D01*
G01*
X211738749Y-136067001D02*
G75*
G02*
X211238749Y-135567001I0J500000D01*
G01*
X249738749Y-123067001D02*
G75*
G02*
X250238749Y-123567001I0J-500000D01*
G01*
X250238749Y-135567001D02*
X250238749Y-123567001D01*
X260658749Y-130142001D02*
G75*
G03*
X260658749Y-130142001I-3750000J0D01*
G01*
X32838750Y-119067001D02*
G75*
G02*
X35338750Y-116567001I2500000J0D01*
G01*
X35338750Y-143717001D02*
G75*
G02*
X32838750Y-141217001I0J2500000D01*
G01*
X37088750Y-119917001D02*
G75*
G03*
X37088750Y-119917001I-1250000J0D01*
G01*
X211238749Y-123567001D02*
X211238749Y-135567001D01*
X271438749Y-141217001D02*
X271438749Y-119067001D01*
X271438749Y-141217001D02*
G75*
G02*
X268938749Y-143717001I-2500000J0D01*
G01*
X268938749Y-116567001D02*
G75*
G02*
X271438749Y-119067001I0J-2500000D01*
G01*
X37088750Y-140367001D02*
G75*
G03*
X37088750Y-140367001I-1250000J0D01*
G01*
M02*
