%TF.GenerationSoftware,KiCad,Pcbnew,(5.99.0-10540-g55c1d814f9)*%
%TF.CreationDate,2021-05-27T21:14:22+02:00*%
%TF.ProjectId,plate-bottom,706c6174-652d-4626-9f74-746f6d2e6b69,1.0*%
%TF.SameCoordinates,Original*%
%TF.FileFunction,Profile,NP*%
%FSLAX46Y46*%
G04 Gerber Fmt 4.6, Leading zero omitted, Abs format (unit mm)*
G04 Created by KiCad (PCBNEW (5.99.0-10540-g55c1d814f9)) date 2021-05-27 21:14:22*
%MOMM*%
%LPD*%
G01*
G04 APERTURE LIST*
%TA.AperFunction,Profile*%
%ADD10C,0.250000*%
%TD*%
%ADD11C,0.200000*%
G04 APERTURE END LIST*
D10*
X154535212Y-97395153D02*
X158606412Y-95451796D01*
D11*
X32958750Y-145375000D02*
X33274011Y-145367828D01*
X33564829Y-145346923D01*
X33833124Y-145313201D01*
X34080820Y-145267578D01*
X34309839Y-145210968D01*
X34522104Y-145144287D01*
X34719537Y-145068450D01*
X34904062Y-144984375D01*
X35242075Y-144795166D01*
X35551523Y-144583984D01*
X35847788Y-144358154D01*
X36146250Y-144125000D01*
X36462290Y-143891845D01*
X36631708Y-143777557D01*
X36811289Y-143666015D01*
X37002954Y-143558135D01*
X37208627Y-143454833D01*
X37430231Y-143357025D01*
X37669687Y-143265625D01*
X37928919Y-143181549D01*
X38209848Y-143105712D01*
X38514398Y-143039031D01*
X38844492Y-142982421D01*
X39202051Y-142936798D01*
X39588999Y-142903076D01*
X40007257Y-142882171D01*
X40458750Y-142875000D01*
D10*
X165922118Y-94039603D02*
X165922118Y-89532812D01*
D11*
X162429243Y-101621985D02*
X162685101Y-101478397D01*
X162930260Y-101332940D01*
X163164841Y-101185442D01*
X163388969Y-101035727D01*
X163602767Y-100883623D01*
X163806358Y-100728956D01*
X163999867Y-100571552D01*
X164183417Y-100411239D01*
X164357131Y-100247842D01*
X164521132Y-100081188D01*
X164675546Y-99911104D01*
X164820494Y-99737415D01*
X164956101Y-99559949D01*
X165082490Y-99378533D01*
X165199785Y-99192991D01*
X165308110Y-99003152D01*
X165407587Y-98808841D01*
X165498340Y-98609885D01*
X165580494Y-98406110D01*
X165654171Y-98197344D01*
X165719496Y-97983411D01*
X165776591Y-97764140D01*
X165825580Y-97539356D01*
X165866587Y-97308886D01*
X165899736Y-97072556D01*
X165925150Y-96830193D01*
X165942952Y-96581624D01*
X165953267Y-96326674D01*
X165956217Y-96065170D01*
X165951926Y-95796940D01*
X165940519Y-95521808D01*
X165922118Y-95239603D01*
D10*
X150473331Y-102516478D02*
X150473331Y-99516478D01*
X175084401Y-75715586D02*
X175084401Y-82336604D01*
D11*
X154876760Y-74124757D02*
X154701073Y-74014673D01*
X154522899Y-73911035D01*
X154342577Y-73813795D01*
X154160449Y-73722905D01*
X153976855Y-73638318D01*
X153792137Y-73559985D01*
X153420693Y-73421895D01*
X153048844Y-73308252D01*
X152679318Y-73218675D01*
X152314844Y-73152783D01*
X151958150Y-73110194D01*
X151611964Y-73090528D01*
X151279014Y-73093403D01*
X150962028Y-73118437D01*
X150663735Y-73165250D01*
X150386862Y-73233460D01*
X150134139Y-73322685D01*
X149908293Y-73432545D01*
X149712052Y-73562658D01*
D10*
X144466408Y-74124757D02*
X144466408Y-63237788D01*
X156076760Y-63637788D02*
X162667414Y-63637788D01*
X154876760Y-63237788D02*
G75*
G02*
X155676760Y-62437788I800000J0D01*
G01*
D11*
X162489107Y-95451796D02*
X162480971Y-95738141D01*
X162453637Y-96025759D01*
X162402712Y-96313379D01*
X162323807Y-96599734D01*
X162253490Y-96789306D01*
X162167484Y-96977376D01*
X162064489Y-97163566D01*
X161943202Y-97347501D01*
X161802324Y-97528804D01*
X161640553Y-97707100D01*
X161456587Y-97882012D01*
X161249126Y-98053165D01*
X161016869Y-98220181D01*
X160758515Y-98382686D01*
D10*
X123858767Y-83536604D02*
G75*
G02*
X123058767Y-82736604I0J800000D01*
G01*
D11*
X133421051Y-95239603D02*
X133402649Y-95521808D01*
X133391241Y-95796940D01*
X133386951Y-96065170D01*
X133389901Y-96326674D01*
X133400215Y-96581624D01*
X133418018Y-96830193D01*
X133443431Y-97072556D01*
X133476580Y-97308886D01*
X133517587Y-97539356D01*
X133566577Y-97764140D01*
X133623672Y-97983411D01*
X133688996Y-98197344D01*
X133762673Y-98406110D01*
X133844827Y-98609885D01*
X133935581Y-98808841D01*
X134035058Y-99003152D01*
X134143382Y-99192991D01*
X134260677Y-99378533D01*
X134387066Y-99559949D01*
X134522673Y-99737415D01*
X134667622Y-99911104D01*
X134822035Y-100081188D01*
X134986037Y-100247842D01*
X135159751Y-100411239D01*
X135343300Y-100571552D01*
X135536809Y-100728956D01*
X135740401Y-100883623D01*
X135954199Y-101035727D01*
X136178327Y-101185442D01*
X136412908Y-101332940D01*
X136658066Y-101478397D01*
X136913926Y-101621985D01*
D10*
X133421051Y-89532812D02*
X133421051Y-94039603D01*
X148869838Y-82075790D02*
X148869838Y-88332812D01*
X136675754Y-63637788D02*
G75*
G02*
X136731259Y-62437788I-2550524J719256D01*
G01*
X123058767Y-94839603D02*
X123058767Y-101961077D01*
X125639949Y-89532812D02*
X133421051Y-89532812D01*
X144712379Y-88332812D02*
X144712379Y-83637669D01*
X267308749Y-37227001D02*
G75*
G03*
X267308749Y-37227001I-1250000J0D01*
G01*
X162900239Y-114778400D02*
X156080913Y-114778400D01*
X124258767Y-102000721D02*
X124258767Y-95239603D01*
X156076760Y-74812791D02*
X156076760Y-63637788D01*
X133606616Y-82336604D02*
X124258767Y-82336604D01*
X156080913Y-105089830D02*
X158596880Y-103715456D01*
X148869838Y-102516478D02*
G75*
G02*
X147211549Y-103464272I-1100000J0D01*
G01*
X158169395Y-80016198D02*
X160758515Y-81469244D01*
X141173773Y-80016198D02*
X139438553Y-77058560D01*
X165922118Y-88332812D02*
X165922118Y-83536604D01*
X155680913Y-115978400D02*
G75*
G02*
X154880913Y-115178400I0J800000D01*
G01*
X32958750Y-33875001D02*
X266558749Y-33875001D01*
X150473331Y-82075790D02*
X148869838Y-82075790D01*
X175084401Y-82336604D02*
X165736552Y-82336604D01*
X176284401Y-101961076D02*
G75*
G02*
X175084401Y-102000721I-514774J-2599521D01*
G01*
X162611909Y-62437788D02*
G75*
G02*
X162667414Y-63637788I2606029J-480744D01*
G01*
X123058767Y-75755231D02*
G75*
G02*
X124258767Y-75715586I514774J2599521D01*
G01*
X124258767Y-102000722D02*
G75*
G02*
X123058767Y-101961077I-685226J-2559875D01*
G01*
X142482096Y-79281950D02*
X147231488Y-76616530D01*
X148869838Y-88332812D02*
X144712379Y-88332812D01*
X136854062Y-95451796D02*
X136854062Y-83912584D01*
X141229424Y-99940561D02*
X138584654Y-98382686D01*
X154535212Y-82736604D02*
X154535212Y-88332812D01*
X123058767Y-75755231D02*
X123058767Y-82736604D01*
D11*
X160758515Y-81469244D02*
X160943493Y-81579572D01*
X161121289Y-81698698D01*
X161291246Y-81825947D01*
X161452710Y-81960645D01*
X161605024Y-82102118D01*
X161747533Y-82249691D01*
X161879581Y-82402689D01*
X162056605Y-82640886D01*
X162206405Y-82887497D01*
X162326768Y-83140249D01*
X162415481Y-83396864D01*
X162470331Y-83655068D01*
X162489107Y-83912584D01*
D10*
X136913926Y-101621985D02*
X139429548Y-102996171D01*
X155680913Y-115978400D02*
X162848834Y-115978400D01*
D11*
X259058749Y-142875000D02*
X259510241Y-142882171D01*
X259928499Y-142903076D01*
X260315447Y-142936798D01*
X260673006Y-142982421D01*
X261003100Y-143039031D01*
X261307650Y-143105712D01*
X261588579Y-143181549D01*
X261847811Y-143265625D01*
X262087267Y-143357025D01*
X262308871Y-143454833D01*
X262514544Y-143558135D01*
X262706209Y-143666015D01*
X262885790Y-143777557D01*
X263055208Y-143891845D01*
X263371249Y-144125000D01*
X263669710Y-144358154D01*
X263965975Y-144583984D01*
X264275423Y-144795166D01*
X264613436Y-144984375D01*
X264797961Y-145068450D01*
X264995394Y-145144287D01*
X265207659Y-145210968D01*
X265436678Y-145267578D01*
X265684374Y-145313201D01*
X265952669Y-145346923D01*
X266243487Y-145367828D01*
X266558749Y-145375000D01*
D10*
X150473330Y-77575791D02*
G75*
G02*
X152111680Y-76616530I1100001J0D01*
G01*
X150271584Y-113561428D02*
G75*
G02*
X149071584Y-113565469I-591308J-2583187D01*
G01*
X133421051Y-88332812D02*
X125639949Y-88332812D01*
X136494334Y-115978400D02*
X143662255Y-115978400D01*
X142521871Y-100701864D02*
X140746634Y-103715644D01*
X266558749Y-33875001D02*
G75*
G02*
X269058749Y-36375001I0J-2500000D01*
G01*
X162438697Y-78545284D02*
X159904616Y-77058560D01*
X143262255Y-105089830D02*
X143262255Y-114778400D01*
X124258767Y-82336604D02*
X124258767Y-75715586D01*
X149071584Y-106668965D02*
X149071584Y-113565469D01*
X143666408Y-62437788D02*
G75*
G02*
X144466408Y-63237788I0J-800000D01*
G01*
X165922118Y-83536604D02*
X175484401Y-83536604D01*
X156861073Y-79281950D02*
X158610842Y-76299515D01*
X143266408Y-63637788D02*
X143266408Y-74812791D01*
D11*
X136904471Y-78545284D02*
X136574408Y-78745490D01*
X136260262Y-78949665D01*
X135962164Y-79158009D01*
X135680244Y-79370720D01*
X135414633Y-79587999D01*
X135165461Y-79810045D01*
X134932860Y-80037057D01*
X134716958Y-80269236D01*
X134517887Y-80506780D01*
X134335777Y-80749890D01*
X134170760Y-80998765D01*
X134022964Y-81253605D01*
X133892522Y-81514609D01*
X133779562Y-81781977D01*
X133684217Y-82055909D01*
X133606616Y-82336604D01*
D10*
X150473331Y-80575790D02*
X150473331Y-77575791D01*
X34708750Y-57675001D02*
G75*
G03*
X34708750Y-57675001I-1250000J0D01*
G01*
X176284401Y-101961077D02*
X176284401Y-94839603D01*
X152111680Y-76616530D02*
X156861073Y-79281950D01*
X136675754Y-63637788D02*
X143266408Y-63637788D01*
X158212300Y-99882508D02*
X159913276Y-102996360D01*
X140732326Y-76299515D02*
X142482096Y-79281950D01*
X144712379Y-91732414D02*
X148869838Y-91732414D01*
X269058749Y-142875000D02*
G75*
G02*
X266558749Y-145375000I-2500000J0D01*
G01*
X148869838Y-98016478D02*
X150473331Y-98016478D01*
X40458750Y-142875000D02*
X259058749Y-142875000D01*
X150271584Y-113561428D02*
X150271584Y-106752505D01*
X176284401Y-82736604D02*
X176284401Y-75755231D01*
X123058767Y-94839603D02*
G75*
G02*
X123858767Y-94039603I800000J0D01*
G01*
X148869838Y-99516478D02*
X148869838Y-102516478D01*
X154535212Y-88332812D02*
X158606412Y-88332812D01*
X162489107Y-83912584D02*
X162489107Y-95451796D01*
D11*
X138584654Y-98382686D02*
X138326299Y-98220181D01*
X138094042Y-98053165D01*
X137886581Y-97882012D01*
X137702615Y-97707100D01*
X137540844Y-97528804D01*
X137399966Y-97347501D01*
X137278679Y-97163566D01*
X137175684Y-96977376D01*
X137089678Y-96789306D01*
X137019361Y-96599734D01*
X136940456Y-96313379D01*
X136889531Y-96025759D01*
X136862197Y-95738141D01*
X136854062Y-95451796D01*
D10*
X124258767Y-95239603D02*
X133421051Y-95239603D01*
X154535212Y-91732414D02*
X154535212Y-97395153D01*
D11*
X150271584Y-106752505D02*
X150546820Y-106848035D01*
X150755166Y-106894683D01*
X150981982Y-106926786D01*
X151226055Y-106943559D01*
X151486172Y-106944218D01*
X151761119Y-106927982D01*
X152049684Y-106894064D01*
X152350655Y-106841683D01*
X152662817Y-106770054D01*
X152984958Y-106678393D01*
X153315866Y-106565917D01*
X153654327Y-106431842D01*
X153999129Y-106275385D01*
X154349058Y-106095761D01*
X154525566Y-105997017D01*
X154702902Y-105892187D01*
X154880913Y-105781175D01*
D10*
X154880913Y-105781175D02*
X154880913Y-115178400D01*
X158606412Y-88332812D02*
X158606412Y-84533178D01*
D11*
X136854062Y-83912584D02*
X136872837Y-83655068D01*
X136927687Y-83396864D01*
X137016400Y-83140249D01*
X137136763Y-82887497D01*
X137286563Y-82640886D01*
X137463587Y-82402689D01*
X137595635Y-82249691D01*
X137738144Y-82102118D01*
X137890458Y-81960645D01*
X138051922Y-81825947D01*
X138221879Y-81698698D01*
X138399675Y-81579572D01*
X138584654Y-81469244D01*
D10*
X133421051Y-94039603D02*
X123858767Y-94039603D01*
X173703219Y-88332812D02*
X165922118Y-88332812D01*
X158610842Y-76299515D02*
X156076760Y-74812791D01*
X165922118Y-89532812D02*
X173703219Y-89532812D01*
X158606412Y-91732414D02*
X154535212Y-91732414D01*
X150473331Y-99516478D02*
X148869838Y-99516478D01*
X154876760Y-63237788D02*
X154876760Y-74124757D01*
X176284401Y-82736604D02*
G75*
G02*
X175484401Y-83536604I-800000J0D01*
G01*
X148869838Y-77575791D02*
X148869838Y-80575790D01*
X140746634Y-103715644D02*
X143262255Y-105089830D01*
X34708750Y-63675001D02*
G75*
G03*
X34708750Y-63675001I-1250000J0D01*
G01*
X148869838Y-91732414D02*
X148869838Y-98016478D01*
X138584654Y-81469244D02*
X141173773Y-80016198D01*
X147211549Y-103464272D02*
X142521871Y-100701864D01*
X139438553Y-77058560D02*
X136904471Y-78545284D01*
D11*
X144462255Y-105781175D02*
X144816511Y-105944020D01*
X145149937Y-106098749D01*
X145465107Y-106244035D01*
X145764593Y-106378548D01*
X146050967Y-106500960D01*
X146326803Y-106609943D01*
X146594674Y-106704170D01*
X146857152Y-106782310D01*
X147116810Y-106843037D01*
X147376221Y-106885022D01*
X147637959Y-106906936D01*
X147904595Y-106907452D01*
X148178702Y-106885241D01*
X148462854Y-106838975D01*
X148759624Y-106767326D01*
X149071584Y-106668965D01*
D10*
X158606412Y-84533178D02*
X154535212Y-82736604D01*
X143666408Y-62437788D02*
X136731259Y-62437788D01*
X123858767Y-83536604D02*
X133421051Y-83536604D01*
X143262255Y-114778400D02*
X136442930Y-114778400D01*
X160758515Y-98382686D02*
X158212300Y-99882508D01*
X156080913Y-114778400D02*
X156080913Y-105089830D01*
X158606412Y-95451796D02*
X158606412Y-91732414D01*
X159904616Y-77058560D02*
X158169395Y-80016198D01*
X148869838Y-80575790D02*
X150473331Y-80575790D01*
X267308749Y-57675001D02*
G75*
G03*
X267308749Y-57675001I-1250000J0D01*
G01*
X143266408Y-74812791D02*
X140732326Y-76299515D01*
X133421051Y-83536604D02*
X133421051Y-88332812D01*
X139429548Y-102996171D02*
X141229424Y-99940561D01*
X34708750Y-37227001D02*
G75*
G03*
X34708750Y-37227001I-1250000J0D01*
G01*
X269058749Y-36375001D02*
X269058749Y-142875000D01*
X175484401Y-94039603D02*
G75*
G02*
X176284401Y-94839603I0J-800000D01*
G01*
X144462255Y-115178400D02*
X144462255Y-105781175D01*
X175084401Y-95239603D02*
X175084401Y-102000721D01*
X144462255Y-115178400D02*
G75*
G02*
X143662255Y-115978400I-800000J0D01*
G01*
X30458750Y-36375001D02*
G75*
G02*
X32958750Y-33875001I2500000J0D01*
G01*
X165922118Y-95239603D02*
X175084401Y-95239603D01*
X34708750Y-141875000D02*
G75*
G03*
X34708750Y-141875000I-1250000J0D01*
G01*
X30458750Y-142875000D02*
X30458750Y-36375001D01*
X32958750Y-145375000D02*
G75*
G02*
X30458750Y-142875000I0J2500000D01*
G01*
X143673885Y-83024952D02*
X140688529Y-84674205D01*
X267308749Y-63675001D02*
G75*
G03*
X267308749Y-63675001I-1250000J0D01*
G01*
X162611909Y-62437788D02*
X155676760Y-62437788D01*
X175484401Y-94039603D02*
X165922118Y-94039603D01*
X173703219Y-88332812D02*
G75*
G02*
X173703219Y-89532812I2581182J-600000D01*
G01*
X175084401Y-75715586D02*
G75*
G02*
X176284401Y-75755231I685226J2559876D01*
G01*
X136494334Y-115978400D02*
G75*
G02*
X136442930Y-114778400I-2604391J489537D01*
G01*
X125639949Y-89532812D02*
G75*
G02*
X125639949Y-88332812I-2581182J600000D01*
G01*
X144712379Y-96291783D02*
G75*
G02*
X143687051Y-96911591I-700000J0D01*
G01*
X159913276Y-102996360D02*
X162429243Y-101621985D01*
D11*
X149712052Y-73562658D02*
X149417274Y-73418494D01*
X149110624Y-73298519D01*
X148793700Y-73202673D01*
X148468102Y-73130896D01*
X148135427Y-73083125D01*
X147797277Y-73059301D01*
X147455250Y-73059363D01*
X147110945Y-73083249D01*
X146765961Y-73130900D01*
X146421898Y-73202255D01*
X146080354Y-73297252D01*
X145742930Y-73415832D01*
X145411224Y-73557933D01*
X145086836Y-73723494D01*
X144771364Y-73912456D01*
X144466408Y-74124757D01*
D10*
X140688529Y-84674205D02*
X140688529Y-95337711D01*
X156919177Y-100644209D02*
X152131620Y-103464272D01*
X152131620Y-103464272D02*
G75*
G02*
X150473331Y-102516478I-558289J947794D01*
G01*
X267308749Y-141875000D02*
G75*
G03*
X267308749Y-141875000I-1250000J0D01*
G01*
X150473331Y-98016478D02*
X150473331Y-82075790D01*
X144712379Y-96291783D02*
X144712379Y-91732414D01*
X158596880Y-103715456D02*
X156919177Y-100644209D01*
D11*
X165736552Y-82336604D02*
X165658950Y-82055909D01*
X165563605Y-81781977D01*
X165450646Y-81514609D01*
X165320203Y-81253605D01*
X165172408Y-80998765D01*
X165007390Y-80749890D01*
X164825281Y-80506780D01*
X164626210Y-80269236D01*
X164410308Y-80037057D01*
X164177706Y-79810045D01*
X163928535Y-79587999D01*
X163662924Y-79370720D01*
X163381004Y-79158009D01*
X163082906Y-78949665D01*
X162768760Y-78745490D01*
X162438697Y-78545284D01*
D10*
X162900238Y-114778400D02*
G75*
G02*
X162848834Y-115978400I2552988J-710463D01*
G01*
X143673885Y-83024952D02*
G75*
G02*
X144712379Y-83637669I338494J-612717D01*
G01*
X140688529Y-95337711D02*
X143687051Y-96911591D01*
X147231489Y-76616531D02*
G75*
G02*
X148869838Y-77575791I538349J-959260D01*
G01*
M02*
