%TF.GenerationSoftware,KiCad,Pcbnew,(5.99.0-10650-gfdcc49d3ee)*%
%TF.CreationDate,2021-06-11T23:30:07+02:00*%
%TF.ProjectId,plate-top,706c6174-652d-4746-9f70-2e6b69636164,1.0*%
%TF.SameCoordinates,Original*%
%TF.FileFunction,Profile,NP*%
%FSLAX46Y46*%
G04 Gerber Fmt 4.6, Leading zero omitted, Abs format (unit mm)*
G04 Created by KiCad (PCBNEW (5.99.0-10650-gfdcc49d3ee)) date 2021-06-11 23:30:07*
%MOMM*%
%LPD*%
G01*
G04 APERTURE LIST*
%TA.AperFunction,Profile*%
%ADD10C,0.250000*%
%TD*%
%ADD11C,0.200000*%
G04 APERTURE END LIST*
D10*
X59508750Y-115295001D02*
G75*
G02*
X59118750Y-114905001I0J390000D01*
G01*
X59518750Y-115295001D02*
G75*
G02*
X59918750Y-115695001I0J-400000D01*
G01*
X59918750Y-118895001D02*
G75*
G02*
X59518750Y-119295001I-400000J0D01*
G01*
X44718750Y-119295001D02*
G75*
G02*
X44318750Y-118895001I0J400000D01*
G01*
X44318750Y-115695001D02*
G75*
G02*
X44718750Y-115295001I400000J0D01*
G01*
X45118750Y-114905001D02*
G75*
G02*
X44728750Y-115295001I-390000J0D01*
G01*
X44728750Y-109295001D02*
G75*
G02*
X45118750Y-109685001I0J-390000D01*
G01*
X44718750Y-109295001D02*
G75*
G02*
X44318750Y-108895001I0J400000D01*
G01*
X44318750Y-105695001D02*
G75*
G02*
X44718750Y-105295001I400000J0D01*
G01*
X59518750Y-105295001D02*
G75*
G02*
X59918750Y-105695001I0J-400000D01*
G01*
X59918750Y-108895001D02*
G75*
G02*
X59518750Y-109295001I-400000J0D01*
G01*
X59118750Y-109685001D02*
G75*
G02*
X59508750Y-109295001I390000J0D01*
G01*
X54746250Y-96245001D02*
G75*
G02*
X54356250Y-95855001I0J390000D01*
G01*
X54756250Y-96245001D02*
G75*
G02*
X55156250Y-96645001I0J-400000D01*
G01*
X55156250Y-99845001D02*
G75*
G02*
X54756250Y-100245001I-400000J0D01*
G01*
X39956250Y-100245001D02*
G75*
G02*
X39556250Y-99845001I0J400000D01*
G01*
X39556250Y-96645001D02*
G75*
G02*
X39956250Y-96245001I400000J0D01*
G01*
X40356250Y-95855001D02*
G75*
G02*
X39966250Y-96245001I-390000J0D01*
G01*
X39966250Y-90245001D02*
G75*
G02*
X40356250Y-90635001I0J-390000D01*
G01*
X39956250Y-90245001D02*
G75*
G02*
X39556250Y-89845001I0J400000D01*
G01*
X39556250Y-86645001D02*
G75*
G02*
X39956250Y-86245001I400000J0D01*
G01*
X54756250Y-86245001D02*
G75*
G02*
X55156250Y-86645001I0J-400000D01*
G01*
X55156250Y-89845001D02*
G75*
G02*
X54756250Y-90245001I-400000J0D01*
G01*
X54356250Y-90635001D02*
G75*
G02*
X54746250Y-90245001I390000J0D01*
G01*
X95227500Y-134345000D02*
G75*
G02*
X94837500Y-133955000I0J390000D01*
G01*
X95237500Y-134345000D02*
G75*
G02*
X95637500Y-134745000I0J-400000D01*
G01*
X95637500Y-137945000D02*
G75*
G02*
X95237500Y-138345000I-400000J0D01*
G01*
X37575000Y-138345000D02*
G75*
G02*
X37175000Y-137945000I0J400000D01*
G01*
X37175000Y-134745000D02*
G75*
G02*
X37575000Y-134345000I400000J0D01*
G01*
X37975000Y-133955000D02*
G75*
G02*
X37585000Y-134345000I-390000J0D01*
G01*
X37585000Y-128345000D02*
G75*
G02*
X37975000Y-128735000I0J-390000D01*
G01*
X37575000Y-128345000D02*
G75*
G02*
X37175000Y-127945000I0J400000D01*
G01*
X37175000Y-124745001D02*
G75*
G02*
X37575000Y-124345001I400000J0D01*
G01*
X95237500Y-124345001D02*
G75*
G02*
X95637500Y-124745001I0J-400000D01*
G01*
X95637500Y-127945000D02*
G75*
G02*
X95237500Y-128345000I-400000J0D01*
G01*
X94837500Y-128735000D02*
G75*
G02*
X95227500Y-128345000I390000J0D01*
G01*
X228577499Y-96245001D02*
G75*
G02*
X228187499Y-95855001I0J390000D01*
G01*
X228597499Y-96245001D02*
G75*
G02*
X228987499Y-96635001I0J-390000D01*
G01*
X228987499Y-99855001D02*
G75*
G02*
X228597499Y-100245001I-390000J0D01*
G01*
X213777499Y-100245001D02*
G75*
G02*
X213387499Y-99855001I0J390000D01*
G01*
X213387499Y-96635001D02*
G75*
G02*
X213777499Y-96245001I390000J0D01*
G01*
X214187499Y-95855001D02*
G75*
G02*
X213797499Y-96245001I-390000J0D01*
G01*
X213797499Y-90245001D02*
G75*
G02*
X214187499Y-90635001I0J-390000D01*
G01*
X213777499Y-90245001D02*
G75*
G02*
X213387499Y-89855001I0J390000D01*
G01*
X213387499Y-86635001D02*
G75*
G02*
X213777499Y-86245001I390000J0D01*
G01*
X228597499Y-86245001D02*
G75*
G02*
X228987499Y-86635001I0J-390000D01*
G01*
X228987499Y-89855001D02*
G75*
G02*
X228597499Y-90245001I-390000J0D01*
G01*
X228187499Y-90635001D02*
G75*
G02*
X228577499Y-90245001I390000J0D01*
G01*
X209527499Y-96245001D02*
G75*
G02*
X209137499Y-95855001I0J390000D01*
G01*
X209547499Y-96245001D02*
G75*
G02*
X209937499Y-96635001I0J-390000D01*
G01*
X209937499Y-99855001D02*
G75*
G02*
X209547499Y-100245001I-390000J0D01*
G01*
X194727499Y-100245001D02*
G75*
G02*
X194337499Y-99855001I0J390000D01*
G01*
X194337499Y-96635001D02*
G75*
G02*
X194727499Y-96245001I390000J0D01*
G01*
X195137499Y-95855001D02*
G75*
G02*
X194747499Y-96245001I-390000J0D01*
G01*
X194747499Y-90245001D02*
G75*
G02*
X195137499Y-90635001I0J-390000D01*
G01*
X194727499Y-90245001D02*
G75*
G02*
X194337499Y-89855001I0J390000D01*
G01*
X194337499Y-86635001D02*
G75*
G02*
X194727499Y-86245001I390000J0D01*
G01*
X209547499Y-86245001D02*
G75*
G02*
X209937499Y-86635001I0J-390000D01*
G01*
X209937499Y-89855001D02*
G75*
G02*
X209547499Y-90245001I-390000J0D01*
G01*
X209137499Y-90635001D02*
G75*
G02*
X209527499Y-90245001I390000J0D01*
G01*
X190477499Y-96245001D02*
G75*
G02*
X190087499Y-95855001I0J390000D01*
G01*
X190497499Y-96245001D02*
G75*
G02*
X190887499Y-96635001I0J-390000D01*
G01*
X190887499Y-99855001D02*
G75*
G02*
X190497499Y-100245001I-390000J0D01*
G01*
X175677499Y-100245001D02*
G75*
G02*
X175287499Y-99855001I0J390000D01*
G01*
X175287499Y-96635001D02*
G75*
G02*
X175677499Y-96245001I390000J0D01*
G01*
X176087499Y-95855001D02*
G75*
G02*
X175697499Y-96245001I-390000J0D01*
G01*
X175697499Y-90245001D02*
G75*
G02*
X176087499Y-90635001I0J-390000D01*
G01*
X175677499Y-90245001D02*
G75*
G02*
X175287499Y-89855001I0J390000D01*
G01*
X175287499Y-86635001D02*
G75*
G02*
X175677499Y-86245001I390000J0D01*
G01*
X190497499Y-86245001D02*
G75*
G02*
X190887499Y-86635001I0J-390000D01*
G01*
X190887499Y-89855001D02*
G75*
G02*
X190497499Y-90245001I-390000J0D01*
G01*
X190087499Y-90635001D02*
G75*
G02*
X190477499Y-90245001I390000J0D01*
G01*
X171427499Y-96245001D02*
G75*
G02*
X171037499Y-95855001I0J390000D01*
G01*
X171447499Y-96245001D02*
G75*
G02*
X171837499Y-96635001I0J-390000D01*
G01*
X171837499Y-99855001D02*
G75*
G02*
X171447499Y-100245001I-390000J0D01*
G01*
X156627499Y-100245001D02*
G75*
G02*
X156237499Y-99855001I0J390000D01*
G01*
X156237499Y-96635001D02*
G75*
G02*
X156627499Y-96245001I390000J0D01*
G01*
X157037499Y-95855001D02*
G75*
G02*
X156647499Y-96245001I-390000J0D01*
G01*
X156647499Y-90245001D02*
G75*
G02*
X157037499Y-90635001I0J-390000D01*
G01*
X156627499Y-90245001D02*
G75*
G02*
X156237499Y-89855001I0J390000D01*
G01*
X156237499Y-86635001D02*
G75*
G02*
X156627499Y-86245001I390000J0D01*
G01*
X171447499Y-86245001D02*
G75*
G02*
X171837499Y-86635001I0J-390000D01*
G01*
X171837499Y-89855001D02*
G75*
G02*
X171447499Y-90245001I-390000J0D01*
G01*
X171037499Y-90635001D02*
G75*
G02*
X171427499Y-90245001I390000J0D01*
G01*
X152377499Y-96245001D02*
G75*
G02*
X151987499Y-95855001I0J390000D01*
G01*
X152397499Y-96245001D02*
G75*
G02*
X152787499Y-96635001I0J-390000D01*
G01*
X152787499Y-99855001D02*
G75*
G02*
X152397499Y-100245001I-390000J0D01*
G01*
X137577499Y-100245001D02*
G75*
G02*
X137187499Y-99855001I0J390000D01*
G01*
X137187499Y-96635001D02*
G75*
G02*
X137577499Y-96245001I390000J0D01*
G01*
X137987499Y-95855001D02*
G75*
G02*
X137597499Y-96245001I-390000J0D01*
G01*
X137597499Y-90245001D02*
G75*
G02*
X137987499Y-90635001I0J-390000D01*
G01*
X137577499Y-90245001D02*
G75*
G02*
X137187499Y-89855001I0J390000D01*
G01*
X137187499Y-86635001D02*
G75*
G02*
X137577499Y-86245001I390000J0D01*
G01*
X152397499Y-86245001D02*
G75*
G02*
X152787499Y-86635001I0J-390000D01*
G01*
X152787499Y-89855001D02*
G75*
G02*
X152397499Y-90245001I-390000J0D01*
G01*
X151987499Y-90635001D02*
G75*
G02*
X152377499Y-90245001I390000J0D01*
G01*
X176968749Y-138845000D02*
G75*
G02*
X177468749Y-138345000I500000J0D01*
G01*
X176968749Y-139845000D02*
G75*
G02*
X176468749Y-140345000I-500000J0D01*
G01*
X165706249Y-140345000D02*
G75*
G02*
X165206249Y-139845000I0J500000D01*
G01*
X164706249Y-138345000D02*
G75*
G02*
X165206249Y-138845000I0J-500000D01*
G01*
X137587499Y-138345000D02*
G75*
G02*
X137187499Y-137945000I0J400000D01*
G01*
X137187499Y-134745000D02*
G75*
G02*
X137587499Y-134345000I400000J0D01*
G01*
X137987499Y-133955000D02*
G75*
G02*
X137597499Y-134345000I-390000J0D01*
G01*
X137597499Y-128345000D02*
G75*
G02*
X137987499Y-128735000I0J-390000D01*
G01*
X137587499Y-128345000D02*
G75*
G02*
X137187499Y-127945000I0J400000D01*
G01*
X137187499Y-124745001D02*
G75*
G02*
X137587499Y-124345001I400000J0D01*
G01*
X163393749Y-124345001D02*
G75*
G02*
X163893749Y-124845001I0J-500000D01*
G01*
X164393749Y-125345001D02*
G75*
G02*
X163893749Y-124845001I0J500000D01*
G01*
X173706249Y-124845001D02*
G75*
G02*
X173206249Y-125345001I-500000J0D01*
G01*
X173706249Y-124845001D02*
G75*
G02*
X174206249Y-124345001I500000J0D01*
G01*
X191968749Y-124345001D02*
G75*
G02*
X192468749Y-124845001I0J-500000D01*
G01*
X192968749Y-125345001D02*
G75*
G02*
X192468749Y-124845001I0J500000D01*
G01*
X200468749Y-125345000D02*
G75*
G02*
X200968749Y-125845000I0J-500000D01*
G01*
X200968749Y-139845000D02*
G75*
G02*
X200468749Y-140345000I-500000J0D01*
G01*
X189706249Y-140345000D02*
G75*
G02*
X189206249Y-139845000I0J500000D01*
G01*
X188706249Y-138345000D02*
G75*
G02*
X189206249Y-138845000I0J-500000D01*
G01*
X104752500Y-115295001D02*
G75*
G02*
X104362500Y-114905001I0J390000D01*
G01*
X104762500Y-115295001D02*
G75*
G02*
X105162500Y-115695001I0J-400000D01*
G01*
X105162500Y-118895001D02*
G75*
G02*
X104762500Y-119295001I-400000J0D01*
G01*
X89962500Y-119295001D02*
G75*
G02*
X89562500Y-118895001I0J400000D01*
G01*
X89562500Y-115695001D02*
G75*
G02*
X89962500Y-115295001I400000J0D01*
G01*
X90362500Y-114905001D02*
G75*
G02*
X89972500Y-115295001I-390000J0D01*
G01*
X89972500Y-109295001D02*
G75*
G02*
X90362500Y-109685001I0J-390000D01*
G01*
X89962500Y-109295001D02*
G75*
G02*
X89562500Y-108895001I0J400000D01*
G01*
X89562500Y-105695001D02*
G75*
G02*
X89962500Y-105295001I400000J0D01*
G01*
X104762500Y-105295001D02*
G75*
G02*
X105162500Y-105695001I0J-400000D01*
G01*
X105162500Y-108895001D02*
G75*
G02*
X104762500Y-109295001I-400000J0D01*
G01*
X104362500Y-109685001D02*
G75*
G02*
X104752500Y-109295001I390000J0D01*
G01*
X123802500Y-115295001D02*
G75*
G02*
X123412500Y-114905001I0J390000D01*
G01*
X123812500Y-115295001D02*
G75*
G02*
X124212500Y-115695001I0J-400000D01*
G01*
X124212500Y-118895001D02*
G75*
G02*
X123812500Y-119295001I-400000J0D01*
G01*
X109012500Y-119295001D02*
G75*
G02*
X108612500Y-118895001I0J400000D01*
G01*
X108612500Y-115695001D02*
G75*
G02*
X109012500Y-115295001I400000J0D01*
G01*
X109412500Y-114905001D02*
G75*
G02*
X109022500Y-115295001I-390000J0D01*
G01*
X109022500Y-109295001D02*
G75*
G02*
X109412500Y-109685001I0J-390000D01*
G01*
X109012500Y-109295001D02*
G75*
G02*
X108612500Y-108895001I0J400000D01*
G01*
X108612500Y-105695001D02*
G75*
G02*
X109012500Y-105295001I400000J0D01*
G01*
X123812500Y-105295001D02*
G75*
G02*
X124212500Y-105695001I0J-400000D01*
G01*
X124212500Y-108895001D02*
G75*
G02*
X123812500Y-109295001I-400000J0D01*
G01*
X123412500Y-109685001D02*
G75*
G02*
X123802500Y-109295001I390000J0D01*
G01*
X142852499Y-115295001D02*
G75*
G02*
X142462499Y-114905001I0J390000D01*
G01*
X142862499Y-115295001D02*
G75*
G02*
X143262499Y-115695001I0J-400000D01*
G01*
X143262499Y-118895001D02*
G75*
G02*
X142862499Y-119295001I-400000J0D01*
G01*
X128062499Y-119295001D02*
G75*
G02*
X127662499Y-118895001I0J400000D01*
G01*
X127662499Y-115695001D02*
G75*
G02*
X128062499Y-115295001I400000J0D01*
G01*
X128462499Y-114905001D02*
G75*
G02*
X128072499Y-115295001I-390000J0D01*
G01*
X128072499Y-109295001D02*
G75*
G02*
X128462499Y-109685001I0J-390000D01*
G01*
X128062499Y-109295001D02*
G75*
G02*
X127662499Y-108895001I0J400000D01*
G01*
X127662499Y-105695001D02*
G75*
G02*
X128062499Y-105295001I400000J0D01*
G01*
X142862499Y-105295001D02*
G75*
G02*
X143262499Y-105695001I0J-400000D01*
G01*
X143262499Y-108895001D02*
G75*
G02*
X142862499Y-109295001I-400000J0D01*
G01*
X142462499Y-109685001D02*
G75*
G02*
X142852499Y-109295001I390000J0D01*
G01*
X85702500Y-115295001D02*
G75*
G02*
X85312500Y-114905001I0J390000D01*
G01*
X85712500Y-115295001D02*
G75*
G02*
X86112500Y-115695001I0J-400000D01*
G01*
X86112500Y-118895001D02*
G75*
G02*
X85712500Y-119295001I-400000J0D01*
G01*
X70912500Y-119295001D02*
G75*
G02*
X70512500Y-118895001I0J400000D01*
G01*
X70512500Y-115695001D02*
G75*
G02*
X70912500Y-115295001I400000J0D01*
G01*
X71312500Y-114905001D02*
G75*
G02*
X70922500Y-115295001I-390000J0D01*
G01*
X70922500Y-109295001D02*
G75*
G02*
X71312500Y-109685001I0J-390000D01*
G01*
X70912500Y-109295001D02*
G75*
G02*
X70512500Y-108895001I0J400000D01*
G01*
X70512500Y-105695001D02*
G75*
G02*
X70912500Y-105295001I400000J0D01*
G01*
X85712500Y-105295001D02*
G75*
G02*
X86112500Y-105695001I0J-400000D01*
G01*
X86112500Y-108895001D02*
G75*
G02*
X85712500Y-109295001I-400000J0D01*
G01*
X85312500Y-109685001D02*
G75*
G02*
X85702500Y-109295001I390000J0D01*
G01*
X254771249Y-96245001D02*
G75*
G02*
X254381249Y-95855001I0J390000D01*
G01*
X254781249Y-96245001D02*
G75*
G02*
X255181249Y-96645001I0J-400000D01*
G01*
X255181249Y-99845001D02*
G75*
G02*
X254781249Y-100245001I-400000J0D01*
G01*
X239981249Y-100245001D02*
G75*
G02*
X239581249Y-99845001I0J400000D01*
G01*
X239581249Y-96645001D02*
G75*
G02*
X239981249Y-96245001I400000J0D01*
G01*
X240381249Y-95855001D02*
G75*
G02*
X239991249Y-96245001I-390000J0D01*
G01*
X239991249Y-90245001D02*
G75*
G02*
X240381249Y-90635001I0J-390000D01*
G01*
X239981249Y-90245001D02*
G75*
G02*
X239581249Y-89845001I0J400000D01*
G01*
X239581249Y-86645001D02*
G75*
G02*
X239981249Y-86245001I400000J0D01*
G01*
X254781249Y-86245001D02*
G75*
G02*
X255181249Y-86645001I0J-400000D01*
G01*
X255181249Y-89845001D02*
G75*
G02*
X254781249Y-90245001I-400000J0D01*
G01*
X254381249Y-90635001D02*
G75*
G02*
X254771249Y-90245001I390000J0D01*
G01*
X259533749Y-115295001D02*
G75*
G02*
X259143749Y-114905001I0J390000D01*
G01*
X259543749Y-115295001D02*
G75*
G02*
X259943749Y-115695001I0J-400000D01*
G01*
X259943749Y-118895001D02*
G75*
G02*
X259543749Y-119295001I-400000J0D01*
G01*
X244743749Y-119295001D02*
G75*
G02*
X244343749Y-118895001I0J400000D01*
G01*
X244343749Y-115695001D02*
G75*
G02*
X244743749Y-115295001I400000J0D01*
G01*
X245143749Y-114905001D02*
G75*
G02*
X244753749Y-115295001I-390000J0D01*
G01*
X244753749Y-109295001D02*
G75*
G02*
X245143749Y-109685001I0J-390000D01*
G01*
X244743749Y-109295001D02*
G75*
G02*
X244343749Y-108895001I0J400000D01*
G01*
X244343749Y-105695001D02*
G75*
G02*
X244743749Y-105295001I400000J0D01*
G01*
X259543749Y-105295001D02*
G75*
G02*
X259943749Y-105695001I0J-400000D01*
G01*
X259943749Y-108895001D02*
G75*
G02*
X259543749Y-109295001I-400000J0D01*
G01*
X259143749Y-109685001D02*
G75*
G02*
X259533749Y-109295001I390000J0D01*
G01*
X209424999Y-124845001D02*
G75*
G02*
X208924999Y-125345001I-500000J0D01*
G01*
X209424999Y-124845001D02*
G75*
G02*
X209924999Y-124345001I500000J0D01*
G01*
X261924999Y-124345001D02*
G75*
G02*
X262324999Y-124745001I0J-400000D01*
G01*
X262324999Y-127945000D02*
G75*
G02*
X261924999Y-128345000I-400000J0D01*
G01*
X261524999Y-128735000D02*
G75*
G02*
X261914999Y-128345000I390000J0D01*
G01*
X261914999Y-134345000D02*
G75*
G02*
X261524999Y-133955000I0J390000D01*
G01*
X261924999Y-134345000D02*
G75*
G02*
X262324999Y-134745000I0J-400000D01*
G01*
X262324999Y-137945000D02*
G75*
G02*
X261924999Y-138345000I-400000J0D01*
G01*
X210393749Y-138845000D02*
G75*
G02*
X210893749Y-138345000I500000J0D01*
G01*
X210393749Y-139845000D02*
G75*
G02*
X209893749Y-140345000I-500000J0D01*
G01*
X203893749Y-140345000D02*
G75*
G02*
X203393749Y-139845000I0J500000D01*
G01*
X203393750Y-125845000D02*
G75*
G02*
X203893749Y-125345001I499999J0D01*
G01*
X71415000Y-77195001D02*
G75*
G02*
X71025000Y-76805001I0J390000D01*
G01*
X71435000Y-77195001D02*
G75*
G02*
X71825000Y-77585001I0J-390000D01*
G01*
X71825000Y-80805001D02*
G75*
G02*
X71435000Y-81195001I-390000J0D01*
G01*
X56615000Y-81195001D02*
G75*
G02*
X56225000Y-80805001I0J390000D01*
G01*
X56225000Y-77585001D02*
G75*
G02*
X56615000Y-77195001I390000J0D01*
G01*
X57025000Y-76805001D02*
G75*
G02*
X56635000Y-77195001I-390000J0D01*
G01*
X56635000Y-71195001D02*
G75*
G02*
X57025000Y-71585001I0J-390000D01*
G01*
X56615000Y-71195001D02*
G75*
G02*
X56225000Y-70805001I0J390000D01*
G01*
X56225000Y-67585001D02*
G75*
G02*
X56615000Y-67195001I390000J0D01*
G01*
X71435000Y-67195001D02*
G75*
G02*
X71825000Y-67585001I0J-390000D01*
G01*
X71825000Y-70805001D02*
G75*
G02*
X71435000Y-71195001I-390000J0D01*
G01*
X71025000Y-71585001D02*
G75*
G02*
X71415000Y-71195001I390000J0D01*
G01*
X90465000Y-77195001D02*
G75*
G02*
X90075000Y-76805001I0J390000D01*
G01*
X90485000Y-77195001D02*
G75*
G02*
X90875000Y-77585001I0J-390000D01*
G01*
X90875000Y-80805001D02*
G75*
G02*
X90485000Y-81195001I-390000J0D01*
G01*
X75665000Y-81195001D02*
G75*
G02*
X75275000Y-80805001I0J390000D01*
G01*
X75275000Y-77585001D02*
G75*
G02*
X75665000Y-77195001I390000J0D01*
G01*
X76075000Y-76805001D02*
G75*
G02*
X75685000Y-77195001I-390000J0D01*
G01*
X75685000Y-71195001D02*
G75*
G02*
X76075000Y-71585001I0J-390000D01*
G01*
X75665000Y-71195001D02*
G75*
G02*
X75275000Y-70805001I0J390000D01*
G01*
X75275000Y-67585001D02*
G75*
G02*
X75665000Y-67195001I390000J0D01*
G01*
X90485000Y-67195001D02*
G75*
G02*
X90875000Y-67585001I0J-390000D01*
G01*
X90875000Y-70805001D02*
G75*
G02*
X90485000Y-71195001I-390000J0D01*
G01*
X90075000Y-71585001D02*
G75*
G02*
X90465000Y-71195001I390000J0D01*
G01*
X109515000Y-77195001D02*
G75*
G02*
X109125000Y-76805001I0J390000D01*
G01*
X109535000Y-77195001D02*
G75*
G02*
X109925000Y-77585001I0J-390000D01*
G01*
X109925000Y-80805001D02*
G75*
G02*
X109535000Y-81195001I-390000J0D01*
G01*
X94715000Y-81195001D02*
G75*
G02*
X94325000Y-80805001I0J390000D01*
G01*
X94325000Y-77585001D02*
G75*
G02*
X94715000Y-77195001I390000J0D01*
G01*
X95125000Y-76805001D02*
G75*
G02*
X94735000Y-77195001I-390000J0D01*
G01*
X94735000Y-71195001D02*
G75*
G02*
X95125000Y-71585001I0J-390000D01*
G01*
X94715000Y-71195001D02*
G75*
G02*
X94325000Y-70805001I0J390000D01*
G01*
X94325000Y-67585001D02*
G75*
G02*
X94715000Y-67195001I390000J0D01*
G01*
X109535000Y-67195001D02*
G75*
G02*
X109925000Y-67585001I0J-390000D01*
G01*
X109925000Y-70805001D02*
G75*
G02*
X109535000Y-71195001I-390000J0D01*
G01*
X109125000Y-71585001D02*
G75*
G02*
X109515000Y-71195001I390000J0D01*
G01*
X128564999Y-77195001D02*
G75*
G02*
X128174999Y-76805001I0J390000D01*
G01*
X128584999Y-77195001D02*
G75*
G02*
X128974999Y-77585001I0J-390000D01*
G01*
X128974999Y-80805001D02*
G75*
G02*
X128584999Y-81195001I-390000J0D01*
G01*
X113765000Y-81195001D02*
G75*
G02*
X113375000Y-80805001I0J390000D01*
G01*
X113375000Y-77585001D02*
G75*
G02*
X113765000Y-77195001I390000J0D01*
G01*
X114175000Y-76805001D02*
G75*
G02*
X113785000Y-77195001I-390000J0D01*
G01*
X113785000Y-71195001D02*
G75*
G02*
X114175000Y-71585001I0J-390000D01*
G01*
X113765000Y-71195001D02*
G75*
G02*
X113375000Y-70805001I0J390000D01*
G01*
X113375000Y-67585001D02*
G75*
G02*
X113765000Y-67195001I390000J0D01*
G01*
X128584999Y-67195001D02*
G75*
G02*
X128974999Y-67585001I0J-390000D01*
G01*
X128974999Y-70805001D02*
G75*
G02*
X128584999Y-71195001I-390000J0D01*
G01*
X128174999Y-71585001D02*
G75*
G02*
X128564999Y-71195001I390000J0D01*
G01*
X147614999Y-77195001D02*
G75*
G02*
X147224999Y-76805001I0J390000D01*
G01*
X147634999Y-77195001D02*
G75*
G02*
X148024999Y-77585001I0J-390000D01*
G01*
X148024999Y-80805001D02*
G75*
G02*
X147634999Y-81195001I-390000J0D01*
G01*
X132814999Y-81195001D02*
G75*
G02*
X132424999Y-80805001I0J390000D01*
G01*
X132424999Y-77585001D02*
G75*
G02*
X132814999Y-77195001I390000J0D01*
G01*
X133224999Y-76805001D02*
G75*
G02*
X132834999Y-77195001I-390000J0D01*
G01*
X132834999Y-71195001D02*
G75*
G02*
X133224999Y-71585001I0J-390000D01*
G01*
X132814999Y-71195001D02*
G75*
G02*
X132424999Y-70805001I0J390000D01*
G01*
X132424999Y-67585001D02*
G75*
G02*
X132814999Y-67195001I390000J0D01*
G01*
X147634999Y-67195001D02*
G75*
G02*
X148024999Y-67585001I0J-390000D01*
G01*
X148024999Y-70805001D02*
G75*
G02*
X147634999Y-71195001I-390000J0D01*
G01*
X147224999Y-71585001D02*
G75*
G02*
X147614999Y-71195001I390000J0D01*
G01*
X166664999Y-77195001D02*
G75*
G02*
X166274999Y-76805001I0J390000D01*
G01*
X166684999Y-77195001D02*
G75*
G02*
X167074999Y-77585001I0J-390000D01*
G01*
X167074999Y-80805001D02*
G75*
G02*
X166684999Y-81195001I-390000J0D01*
G01*
X151864999Y-81195001D02*
G75*
G02*
X151474999Y-80805001I0J390000D01*
G01*
X151474999Y-77585001D02*
G75*
G02*
X151864999Y-77195001I390000J0D01*
G01*
X152274999Y-76805001D02*
G75*
G02*
X151884999Y-77195001I-390000J0D01*
G01*
X151884999Y-71195001D02*
G75*
G02*
X152274999Y-71585001I0J-390000D01*
G01*
X151864999Y-71195001D02*
G75*
G02*
X151474999Y-70805001I0J390000D01*
G01*
X151474999Y-67585001D02*
G75*
G02*
X151864999Y-67195001I390000J0D01*
G01*
X166684999Y-67195001D02*
G75*
G02*
X167074999Y-67585001I0J-390000D01*
G01*
X167074999Y-70805001D02*
G75*
G02*
X166684999Y-71195001I-390000J0D01*
G01*
X166274999Y-71585001D02*
G75*
G02*
X166664999Y-71195001I390000J0D01*
G01*
X185714999Y-77195001D02*
G75*
G02*
X185324999Y-76805001I0J390000D01*
G01*
X185734999Y-77195001D02*
G75*
G02*
X186124999Y-77585001I0J-390000D01*
G01*
X186124999Y-80805001D02*
G75*
G02*
X185734999Y-81195001I-390000J0D01*
G01*
X170914999Y-81195001D02*
G75*
G02*
X170524999Y-80805001I0J390000D01*
G01*
X170524999Y-77585001D02*
G75*
G02*
X170914999Y-77195001I390000J0D01*
G01*
X171324999Y-76805001D02*
G75*
G02*
X170934999Y-77195001I-390000J0D01*
G01*
X170934999Y-71195001D02*
G75*
G02*
X171324999Y-71585001I0J-390000D01*
G01*
X170914999Y-71195001D02*
G75*
G02*
X170524999Y-70805001I0J390000D01*
G01*
X170524999Y-67585001D02*
G75*
G02*
X170914999Y-67195001I390000J0D01*
G01*
X185734999Y-67195001D02*
G75*
G02*
X186124999Y-67585001I0J-390000D01*
G01*
X186124999Y-70805001D02*
G75*
G02*
X185734999Y-71195001I-390000J0D01*
G01*
X185324999Y-71585001D02*
G75*
G02*
X185714999Y-71195001I390000J0D01*
G01*
X204764999Y-77195001D02*
G75*
G02*
X204374999Y-76805001I0J390000D01*
G01*
X204784999Y-77195001D02*
G75*
G02*
X205174999Y-77585001I0J-390000D01*
G01*
X205174999Y-80805001D02*
G75*
G02*
X204784999Y-81195001I-390000J0D01*
G01*
X189964999Y-81195001D02*
G75*
G02*
X189574999Y-80805001I0J390000D01*
G01*
X189574999Y-77585001D02*
G75*
G02*
X189964999Y-77195001I390000J0D01*
G01*
X190374999Y-76805001D02*
G75*
G02*
X189984999Y-77195001I-390000J0D01*
G01*
X189984999Y-71195001D02*
G75*
G02*
X190374999Y-71585001I0J-390000D01*
G01*
X189964999Y-71195001D02*
G75*
G02*
X189574999Y-70805001I0J390000D01*
G01*
X189574999Y-67585001D02*
G75*
G02*
X189964999Y-67195001I390000J0D01*
G01*
X204784999Y-67195001D02*
G75*
G02*
X205174999Y-67585001I0J-390000D01*
G01*
X205174999Y-70805001D02*
G75*
G02*
X204784999Y-71195001I-390000J0D01*
G01*
X204374999Y-71585001D02*
G75*
G02*
X204764999Y-71195001I390000J0D01*
G01*
X133327499Y-96245001D02*
G75*
G02*
X132937499Y-95855001I0J390000D01*
G01*
X133347499Y-96245001D02*
G75*
G02*
X133737499Y-96635001I0J-390000D01*
G01*
X133737499Y-99855001D02*
G75*
G02*
X133347499Y-100245001I-390000J0D01*
G01*
X118527500Y-100245001D02*
G75*
G02*
X118137500Y-99855001I0J390000D01*
G01*
X118137500Y-96635001D02*
G75*
G02*
X118527500Y-96245001I390000J0D01*
G01*
X118937500Y-95855001D02*
G75*
G02*
X118547500Y-96245001I-390000J0D01*
G01*
X118547500Y-90245001D02*
G75*
G02*
X118937500Y-90635001I0J-390000D01*
G01*
X118527500Y-90245001D02*
G75*
G02*
X118137500Y-89855001I0J390000D01*
G01*
X118137500Y-86635001D02*
G75*
G02*
X118527500Y-86245001I390000J0D01*
G01*
X133347499Y-86245001D02*
G75*
G02*
X133737499Y-86635001I0J-390000D01*
G01*
X133737499Y-89855001D02*
G75*
G02*
X133347499Y-90245001I-390000J0D01*
G01*
X132937499Y-90635001D02*
G75*
G02*
X133327499Y-90245001I390000J0D01*
G01*
X114277500Y-96245001D02*
G75*
G02*
X113887500Y-95855001I0J390000D01*
G01*
X114297500Y-96245001D02*
G75*
G02*
X114687500Y-96635001I0J-390000D01*
G01*
X114687500Y-99855001D02*
G75*
G02*
X114297500Y-100245001I-390000J0D01*
G01*
X99477500Y-100245001D02*
G75*
G02*
X99087500Y-99855001I0J390000D01*
G01*
X99087500Y-96635001D02*
G75*
G02*
X99477500Y-96245001I390000J0D01*
G01*
X99887500Y-95855001D02*
G75*
G02*
X99497500Y-96245001I-390000J0D01*
G01*
X99497500Y-90245001D02*
G75*
G02*
X99887500Y-90635001I0J-390000D01*
G01*
X99477500Y-90245001D02*
G75*
G02*
X99087500Y-89855001I0J390000D01*
G01*
X99087500Y-86635001D02*
G75*
G02*
X99477500Y-86245001I390000J0D01*
G01*
X114297500Y-86245001D02*
G75*
G02*
X114687500Y-86635001I0J-390000D01*
G01*
X114687500Y-89855001D02*
G75*
G02*
X114297500Y-90245001I-390000J0D01*
G01*
X113887500Y-90635001D02*
G75*
G02*
X114277500Y-90245001I390000J0D01*
G01*
X95227500Y-96245001D02*
G75*
G02*
X94837500Y-95855001I0J390000D01*
G01*
X95247500Y-96245001D02*
G75*
G02*
X95637500Y-96635001I0J-390000D01*
G01*
X95637500Y-99855001D02*
G75*
G02*
X95247500Y-100245001I-390000J0D01*
G01*
X80427500Y-100245001D02*
G75*
G02*
X80037500Y-99855001I0J390000D01*
G01*
X80037500Y-96635001D02*
G75*
G02*
X80427500Y-96245001I390000J0D01*
G01*
X80837500Y-95855001D02*
G75*
G02*
X80447500Y-96245001I-390000J0D01*
G01*
X80447500Y-90245001D02*
G75*
G02*
X80837500Y-90635001I0J-390000D01*
G01*
X80427500Y-90245001D02*
G75*
G02*
X80037500Y-89855001I0J390000D01*
G01*
X80037500Y-86635001D02*
G75*
G02*
X80427500Y-86245001I390000J0D01*
G01*
X95247500Y-86245001D02*
G75*
G02*
X95637500Y-86635001I0J-390000D01*
G01*
X95637500Y-89855001D02*
G75*
G02*
X95247500Y-90245001I-390000J0D01*
G01*
X94837500Y-90635001D02*
G75*
G02*
X95227500Y-90245001I390000J0D01*
G01*
X223814999Y-77195001D02*
G75*
G02*
X223424999Y-76805001I0J390000D01*
G01*
X223834999Y-77195001D02*
G75*
G02*
X224224999Y-77585001I0J-390000D01*
G01*
X224224999Y-80805001D02*
G75*
G02*
X223834999Y-81195001I-390000J0D01*
G01*
X209014999Y-81195001D02*
G75*
G02*
X208624999Y-80805001I0J390000D01*
G01*
X208624999Y-77585001D02*
G75*
G02*
X209014999Y-77195001I390000J0D01*
G01*
X209424999Y-76805001D02*
G75*
G02*
X209034999Y-77195001I-390000J0D01*
G01*
X209034999Y-71195001D02*
G75*
G02*
X209424999Y-71585001I0J-390000D01*
G01*
X209014999Y-71195001D02*
G75*
G02*
X208624999Y-70805001I0J390000D01*
G01*
X208624999Y-67585001D02*
G75*
G02*
X209014999Y-67195001I390000J0D01*
G01*
X223834999Y-67195001D02*
G75*
G02*
X224224999Y-67585001I0J-390000D01*
G01*
X224224999Y-70805001D02*
G75*
G02*
X223834999Y-71195001I-390000J0D01*
G01*
X223424999Y-71585001D02*
G75*
G02*
X223814999Y-71195001I390000J0D01*
G01*
X242864999Y-77195001D02*
G75*
G02*
X242474999Y-76805001I0J390000D01*
G01*
X242884999Y-77195001D02*
G75*
G02*
X243274999Y-77585001I0J-390000D01*
G01*
X243274999Y-80805001D02*
G75*
G02*
X242884999Y-81195001I-390000J0D01*
G01*
X228064999Y-81195001D02*
G75*
G02*
X227674999Y-80805001I0J390000D01*
G01*
X227674999Y-77585001D02*
G75*
G02*
X228064999Y-77195001I390000J0D01*
G01*
X228474999Y-76805001D02*
G75*
G02*
X228084999Y-77195001I-390000J0D01*
G01*
X228084999Y-71195001D02*
G75*
G02*
X228474999Y-71585001I0J-390000D01*
G01*
X228064999Y-71195001D02*
G75*
G02*
X227674999Y-70805001I0J390000D01*
G01*
X227674999Y-67585001D02*
G75*
G02*
X228064999Y-67195001I390000J0D01*
G01*
X242884999Y-67195001D02*
G75*
G02*
X243274999Y-67585001I0J-390000D01*
G01*
X243274999Y-70805001D02*
G75*
G02*
X242884999Y-71195001I-390000J0D01*
G01*
X242474999Y-71585001D02*
G75*
G02*
X242864999Y-71195001I390000J0D01*
G01*
X261914999Y-77195001D02*
G75*
G02*
X261524999Y-76805001I0J390000D01*
G01*
X261934999Y-77195001D02*
G75*
G02*
X262324999Y-77585001I0J-390000D01*
G01*
X262324999Y-80805001D02*
G75*
G02*
X261934999Y-81195001I-390000J0D01*
G01*
X247114999Y-81195001D02*
G75*
G02*
X246724999Y-80805001I0J390000D01*
G01*
X246724999Y-77585001D02*
G75*
G02*
X247114999Y-77195001I390000J0D01*
G01*
X247524999Y-76805001D02*
G75*
G02*
X247134999Y-77195001I-390000J0D01*
G01*
X247134999Y-71195001D02*
G75*
G02*
X247524999Y-71585001I0J-390000D01*
G01*
X247114999Y-71195001D02*
G75*
G02*
X246724999Y-70805001I0J390000D01*
G01*
X246724999Y-67585001D02*
G75*
G02*
X247114999Y-67195001I390000J0D01*
G01*
X261934999Y-67195001D02*
G75*
G02*
X262324999Y-67585001I0J-390000D01*
G01*
X262324999Y-70805001D02*
G75*
G02*
X261934999Y-71195001I-390000J0D01*
G01*
X261524999Y-71585001D02*
G75*
G02*
X261914999Y-71195001I390000J0D01*
G01*
X76177500Y-96245001D02*
G75*
G02*
X75787500Y-95855001I0J390000D01*
G01*
X76197500Y-96245001D02*
G75*
G02*
X76587500Y-96635001I0J-390000D01*
G01*
X76587500Y-99855001D02*
G75*
G02*
X76197500Y-100245001I-390000J0D01*
G01*
X61377500Y-100245001D02*
G75*
G02*
X60987500Y-99855001I0J390000D01*
G01*
X60987500Y-96635001D02*
G75*
G02*
X61377500Y-96245001I390000J0D01*
G01*
X61787500Y-95855001D02*
G75*
G02*
X61397500Y-96245001I-390000J0D01*
G01*
X61397500Y-90245001D02*
G75*
G02*
X61787500Y-90635001I0J-390000D01*
G01*
X61377500Y-90245001D02*
G75*
G02*
X60987500Y-89855001I0J390000D01*
G01*
X60987500Y-86635001D02*
G75*
G02*
X61377500Y-86245001I390000J0D01*
G01*
X76197500Y-86245001D02*
G75*
G02*
X76587500Y-86635001I0J-390000D01*
G01*
X76587500Y-89855001D02*
G75*
G02*
X76197500Y-90245001I-390000J0D01*
G01*
X75787500Y-90635001D02*
G75*
G02*
X76177500Y-90245001I390000J0D01*
G01*
X161902499Y-115295001D02*
G75*
G02*
X161512499Y-114905001I0J390000D01*
G01*
X161912499Y-115295001D02*
G75*
G02*
X162312499Y-115695001I0J-400000D01*
G01*
X162312499Y-118895001D02*
G75*
G02*
X161912499Y-119295001I-400000J0D01*
G01*
X147112499Y-119295001D02*
G75*
G02*
X146712499Y-118895001I0J400000D01*
G01*
X146712499Y-115695001D02*
G75*
G02*
X147112499Y-115295001I400000J0D01*
G01*
X147512499Y-114905001D02*
G75*
G02*
X147122499Y-115295001I-390000J0D01*
G01*
X147122499Y-109295001D02*
G75*
G02*
X147512499Y-109685001I0J-390000D01*
G01*
X147112499Y-109295001D02*
G75*
G02*
X146712499Y-108895001I0J400000D01*
G01*
X146712499Y-105695001D02*
G75*
G02*
X147112499Y-105295001I400000J0D01*
G01*
X161912499Y-105295001D02*
G75*
G02*
X162312499Y-105695001I0J-400000D01*
G01*
X162312499Y-108895001D02*
G75*
G02*
X161912499Y-109295001I-400000J0D01*
G01*
X161512499Y-109685001D02*
G75*
G02*
X161902499Y-109295001I390000J0D01*
G01*
X180952499Y-115295001D02*
G75*
G02*
X180562499Y-114905001I0J390000D01*
G01*
X180962499Y-115295001D02*
G75*
G02*
X181362499Y-115695001I0J-400000D01*
G01*
X181362499Y-118895001D02*
G75*
G02*
X180962499Y-119295001I-400000J0D01*
G01*
X166162499Y-119295001D02*
G75*
G02*
X165762499Y-118895001I0J400000D01*
G01*
X165762499Y-115695001D02*
G75*
G02*
X166162499Y-115295001I400000J0D01*
G01*
X166562499Y-114905001D02*
G75*
G02*
X166172499Y-115295001I-390000J0D01*
G01*
X166172499Y-109295001D02*
G75*
G02*
X166562499Y-109685001I0J-390000D01*
G01*
X166162499Y-109295001D02*
G75*
G02*
X165762499Y-108895001I0J400000D01*
G01*
X165762499Y-105695001D02*
G75*
G02*
X166162499Y-105295001I400000J0D01*
G01*
X180962499Y-105295001D02*
G75*
G02*
X181362499Y-105695001I0J-400000D01*
G01*
X181362499Y-108895001D02*
G75*
G02*
X180962499Y-109295001I-400000J0D01*
G01*
X180562499Y-109685001D02*
G75*
G02*
X180952499Y-109295001I390000J0D01*
G01*
X200002499Y-115295001D02*
G75*
G02*
X199612499Y-114905001I0J390000D01*
G01*
X200012499Y-115295001D02*
G75*
G02*
X200412499Y-115695001I0J-400000D01*
G01*
X200412499Y-118895001D02*
G75*
G02*
X200012499Y-119295001I-400000J0D01*
G01*
X185212499Y-119295001D02*
G75*
G02*
X184812499Y-118895001I0J400000D01*
G01*
X184812499Y-115695001D02*
G75*
G02*
X185212499Y-115295001I400000J0D01*
G01*
X185612499Y-114905001D02*
G75*
G02*
X185222499Y-115295001I-390000J0D01*
G01*
X185222499Y-109295001D02*
G75*
G02*
X185612499Y-109685001I0J-390000D01*
G01*
X185212499Y-109295001D02*
G75*
G02*
X184812499Y-108895001I0J400000D01*
G01*
X184812499Y-105695001D02*
G75*
G02*
X185212499Y-105295001I400000J0D01*
G01*
X200012499Y-105295001D02*
G75*
G02*
X200412499Y-105695001I0J-400000D01*
G01*
X200412499Y-108895001D02*
G75*
G02*
X200012499Y-109295001I-400000J0D01*
G01*
X199612499Y-109685001D02*
G75*
G02*
X200002499Y-109295001I390000J0D01*
G01*
X219052499Y-115295001D02*
G75*
G02*
X218662499Y-114905001I0J390000D01*
G01*
X219062499Y-115295001D02*
G75*
G02*
X219462499Y-115695001I0J-400000D01*
G01*
X219462499Y-118895001D02*
G75*
G02*
X219062499Y-119295001I-400000J0D01*
G01*
X204262499Y-119295001D02*
G75*
G02*
X203862499Y-118895001I0J400000D01*
G01*
X203862499Y-115695001D02*
G75*
G02*
X204262499Y-115295001I400000J0D01*
G01*
X204662499Y-114905001D02*
G75*
G02*
X204272499Y-115295001I-390000J0D01*
G01*
X204272499Y-109295001D02*
G75*
G02*
X204662499Y-109685001I0J-390000D01*
G01*
X204262499Y-109295001D02*
G75*
G02*
X203862499Y-108895001I0J400000D01*
G01*
X203862499Y-105695001D02*
G75*
G02*
X204262499Y-105295001I400000J0D01*
G01*
X219062499Y-105295001D02*
G75*
G02*
X219462499Y-105695001I0J-400000D01*
G01*
X219462499Y-108895001D02*
G75*
G02*
X219062499Y-109295001I-400000J0D01*
G01*
X218662499Y-109685001D02*
G75*
G02*
X219052499Y-109295001I390000J0D01*
G01*
X238102499Y-115295001D02*
G75*
G02*
X237712499Y-114905001I0J390000D01*
G01*
X238112499Y-115295001D02*
G75*
G02*
X238512499Y-115695001I0J-400000D01*
G01*
X238512499Y-118895001D02*
G75*
G02*
X238112499Y-119295001I-400000J0D01*
G01*
X223312499Y-119295001D02*
G75*
G02*
X222912499Y-118895001I0J400000D01*
G01*
X222912499Y-115695001D02*
G75*
G02*
X223312499Y-115295001I400000J0D01*
G01*
X223712499Y-114905001D02*
G75*
G02*
X223322499Y-115295001I-390000J0D01*
G01*
X223322499Y-109295001D02*
G75*
G02*
X223712499Y-109685001I0J-390000D01*
G01*
X223312499Y-109295001D02*
G75*
G02*
X222912499Y-108895001I0J400000D01*
G01*
X222912499Y-105695001D02*
G75*
G02*
X223312499Y-105295001I400000J0D01*
G01*
X238112499Y-105295001D02*
G75*
G02*
X238512499Y-105695001I0J-400000D01*
G01*
X238512499Y-108895001D02*
G75*
G02*
X238112499Y-109295001I-400000J0D01*
G01*
X237712499Y-109685001D02*
G75*
G02*
X238102499Y-109295001I390000J0D01*
G01*
X52365000Y-77195001D02*
G75*
G02*
X51975000Y-76805001I0J390000D01*
G01*
X52385000Y-77195001D02*
G75*
G02*
X52775000Y-77585001I0J-390000D01*
G01*
X52775000Y-80805001D02*
G75*
G02*
X52385000Y-81195001I-390000J0D01*
G01*
X37565000Y-81195001D02*
G75*
G02*
X37175000Y-80805001I0J390000D01*
G01*
X37175000Y-77585001D02*
G75*
G02*
X37565000Y-77195001I390000J0D01*
G01*
X37975000Y-76805001D02*
G75*
G02*
X37585000Y-77195001I-390000J0D01*
G01*
X37585000Y-71195001D02*
G75*
G02*
X37975000Y-71585001I0J-390000D01*
G01*
X37565000Y-71195001D02*
G75*
G02*
X37175000Y-70805001I0J390000D01*
G01*
X37175000Y-67585001D02*
G75*
G02*
X37565000Y-67195001I390000J0D01*
G01*
X52385000Y-67195001D02*
G75*
G02*
X52775000Y-67585001I0J-390000D01*
G01*
X52775000Y-70805001D02*
G75*
G02*
X52385000Y-71195001I-390000J0D01*
G01*
X51975000Y-71585001D02*
G75*
G02*
X52365000Y-71195001I390000J0D01*
G01*
X30450000Y-63170001D02*
G75*
G02*
X32950000Y-60670001I2500000J0D01*
G01*
X32950000Y-145370000D02*
G75*
G02*
X30450000Y-142870000I0J2500000D01*
G01*
X269049999Y-142870000D02*
G75*
G02*
X266549999Y-145370000I-2500000J0D01*
G01*
X266549999Y-60670001D02*
G75*
G02*
X269049999Y-63170001I0J-2500000D01*
G01*
X110393750Y-138845000D02*
G75*
G02*
X110893750Y-138345000I500000J0D01*
G01*
X110393750Y-139845000D02*
G75*
G02*
X109893750Y-140345000I-500000J0D01*
G01*
X99031250Y-140345000D02*
G75*
G02*
X98531250Y-139845000I0J500000D01*
G01*
X98531251Y-125845000D02*
G75*
G02*
X99031250Y-125345001I499999J0D01*
G01*
X107031250Y-124845001D02*
G75*
G02*
X106531250Y-125345001I-500000J0D01*
G01*
X107031250Y-124845001D02*
G75*
G02*
X107531250Y-124345001I500000J0D01*
G01*
X125293750Y-124345001D02*
G75*
G02*
X125793750Y-124845001I0J-500000D01*
G01*
X126293749Y-125345000D02*
G75*
G02*
X125793750Y-124845001I0J499999D01*
G01*
X133793749Y-125345000D02*
G75*
G02*
X134293749Y-125845000I0J-500000D01*
G01*
X134293749Y-139845000D02*
G75*
G02*
X133793749Y-140345000I-500000J0D01*
G01*
X123031250Y-140345000D02*
G75*
G02*
X122531250Y-139845000I0J500000D01*
G01*
X122031250Y-138345000D02*
G75*
G02*
X122531250Y-138845000I0J-500000D01*
G01*
X51975000Y-71585001D02*
X51975000Y-76805001D01*
X37975000Y-71585001D02*
X37975000Y-76805001D01*
X259143749Y-109685001D02*
X259143749Y-114905001D01*
X245143749Y-109685001D02*
X245143749Y-114905001D01*
X54356250Y-90635001D02*
X54356250Y-95855001D01*
X40356250Y-90635001D02*
X40356250Y-95855001D01*
X261524999Y-71585001D02*
X261524999Y-76805001D01*
X247524999Y-71585001D02*
X247524999Y-76805001D01*
X242474999Y-71585001D02*
X242474999Y-76805001D01*
X228474999Y-71585001D02*
X228474999Y-76805001D01*
X223424999Y-71585001D02*
X223424999Y-76805001D01*
X209424999Y-71585001D02*
X209424999Y-76805001D01*
X75787500Y-90635001D02*
X75787500Y-95855001D01*
X61787500Y-90635001D02*
X61787500Y-95855001D01*
X94837500Y-90635001D02*
X94837500Y-95855001D01*
X80837500Y-90635001D02*
X80837500Y-95855001D01*
X113887500Y-90635001D02*
X113887500Y-95855001D01*
X99887500Y-90635001D02*
X99887500Y-95855001D01*
X132937499Y-90635001D02*
X132937499Y-95855001D01*
X118937500Y-90635001D02*
X118937500Y-95855001D01*
X204374999Y-71585001D02*
X204374999Y-76805001D01*
X190374999Y-71585001D02*
X190374999Y-76805001D01*
X185324999Y-71585001D02*
X185324999Y-76805001D01*
X171324999Y-71585001D02*
X171324999Y-76805001D01*
X166274999Y-71585001D02*
X166274999Y-76805001D01*
X152274999Y-71585001D02*
X152274999Y-76805001D01*
X147224999Y-71585001D02*
X147224999Y-76805001D01*
X133224999Y-71585001D02*
X133224999Y-76805001D01*
X128174999Y-71585001D02*
X128174999Y-76805001D01*
X114175000Y-71585001D02*
X114175000Y-76805001D01*
X109125000Y-71585001D02*
X109125000Y-76805001D01*
X95125000Y-71585001D02*
X95125000Y-76805001D01*
X90075000Y-71585001D02*
X90075000Y-76805001D01*
X76075000Y-71585001D02*
X76075000Y-76805001D01*
X71025000Y-71585001D02*
X71025000Y-76805001D01*
X57025000Y-71585001D02*
X57025000Y-76805001D01*
X223712499Y-109685001D02*
X223712499Y-114905001D01*
X237712499Y-109685001D02*
X237712499Y-114905001D01*
X204662499Y-109685001D02*
X204662499Y-114905001D01*
X218662499Y-109685001D02*
X218662499Y-114905001D01*
X185612499Y-109685001D02*
X185612499Y-114905001D01*
X199612499Y-109685001D02*
X199612499Y-114905001D01*
X166562499Y-109685001D02*
X166562499Y-114905001D01*
X180562499Y-109685001D02*
X180562499Y-114905001D01*
X147512499Y-109685001D02*
X147512499Y-114905001D01*
X161512499Y-109685001D02*
X161512499Y-114905001D01*
X128462499Y-109685001D02*
X128462499Y-114905001D01*
X142462499Y-109685001D02*
X142462499Y-114905001D01*
X109412500Y-109685001D02*
X109412500Y-114905001D01*
X123412500Y-109685001D02*
X123412500Y-114905001D01*
X90362500Y-109685001D02*
X90362500Y-114905001D01*
X104362500Y-109685001D02*
X104362500Y-114905001D01*
X151987499Y-90635001D02*
X151987499Y-95855001D01*
X137987499Y-90635001D02*
X137987499Y-95855001D01*
X171037499Y-90635001D02*
X171037499Y-95855001D01*
X157037499Y-90635001D02*
X157037499Y-95855001D01*
X190087499Y-90635001D02*
X190087499Y-95855001D01*
X176087499Y-90635001D02*
X176087499Y-95855001D01*
X209137499Y-90635001D02*
X209137499Y-95855001D01*
X195137499Y-90635001D02*
X195137499Y-95855001D01*
X228187499Y-90635001D02*
X228187499Y-95855001D01*
X214187499Y-90635001D02*
X214187499Y-95855001D01*
X254381249Y-90635001D02*
X254381249Y-95855001D01*
X240381249Y-90635001D02*
X240381249Y-95855001D01*
X59118750Y-109685001D02*
X59118750Y-114905001D01*
X45118750Y-109685001D02*
X45118750Y-114905001D01*
X85312500Y-109685001D02*
X85312500Y-114905001D01*
X71312500Y-109685001D02*
X71312500Y-114905001D01*
X261524999Y-128735000D02*
X261524999Y-133955000D01*
X37975000Y-128735000D02*
X37975000Y-133955000D01*
X137987499Y-128735000D02*
X137987499Y-133955000D01*
X94837500Y-128735000D02*
X94837500Y-133955000D01*
X59518750Y-115295001D02*
X59508750Y-115295001D01*
X59918750Y-118895001D02*
X59918750Y-115695001D01*
X44718750Y-119295001D02*
X59518750Y-119295001D01*
X44318750Y-115695001D02*
X44318750Y-118895001D01*
X44728750Y-115295001D02*
X44718750Y-115295001D01*
X44718750Y-109295001D02*
X44728750Y-109295001D01*
X44318750Y-105695001D02*
X44318750Y-108895001D01*
X44718750Y-105295001D02*
X59518750Y-105295001D01*
X59918750Y-108895001D02*
X59918750Y-105695001D01*
X59508750Y-109295001D02*
X59518750Y-109295001D01*
X54756250Y-96245001D02*
X54746250Y-96245001D01*
X55156250Y-99845001D02*
X55156250Y-96645001D01*
X39956250Y-100245001D02*
X54756250Y-100245001D01*
X39556250Y-96645001D02*
X39556250Y-99845001D01*
X39966250Y-96245001D02*
X39956250Y-96245001D01*
X39956250Y-90245001D02*
X39966250Y-90245001D01*
X39556250Y-86645001D02*
X39556250Y-89845001D01*
X39956250Y-86245001D02*
X54756250Y-86245001D01*
X55156250Y-89845001D02*
X55156250Y-86645001D01*
X54746250Y-90245001D02*
X54756250Y-90245001D01*
X95237500Y-134345000D02*
X95227500Y-134345000D01*
X95637500Y-137945000D02*
X95637500Y-134745000D01*
X37575000Y-138345000D02*
X95237500Y-138345000D01*
X37175000Y-134745000D02*
X37175000Y-137945000D01*
X37585000Y-134345000D02*
X37575000Y-134345000D01*
X37575000Y-128345000D02*
X37585000Y-128345000D01*
X37175000Y-124745001D02*
X37175000Y-127945000D01*
X37575000Y-124345001D02*
X95237500Y-124345001D01*
X95637500Y-127945000D02*
X95637500Y-124745001D01*
X95227500Y-128345000D02*
X95237500Y-128345000D01*
X228597499Y-96245001D02*
X228577499Y-96245001D01*
X228987499Y-99855001D02*
X228987499Y-96635001D01*
X213777499Y-100245001D02*
X228597499Y-100245001D01*
X213387499Y-96635001D02*
X213387499Y-99855001D01*
X213797499Y-96245001D02*
X213777499Y-96245001D01*
X213777499Y-90245001D02*
X213797499Y-90245001D01*
X213387499Y-86635001D02*
X213387499Y-89855001D01*
X213777499Y-86245001D02*
X228597499Y-86245001D01*
X228987499Y-89855001D02*
X228987499Y-86635001D01*
X228577499Y-90245001D02*
X228597499Y-90245001D01*
X209547499Y-96245001D02*
X209527499Y-96245001D01*
X209937499Y-99855001D02*
X209937499Y-96635001D01*
X194727499Y-100245001D02*
X209547499Y-100245001D01*
X194337499Y-96635001D02*
X194337499Y-99855001D01*
X194747499Y-96245001D02*
X194727499Y-96245001D01*
X194727499Y-90245001D02*
X194747499Y-90245001D01*
X194337499Y-86635001D02*
X194337499Y-89855001D01*
X194727499Y-86245001D02*
X209547499Y-86245001D01*
X209937499Y-89855001D02*
X209937499Y-86635001D01*
X209527499Y-90245001D02*
X209547499Y-90245001D01*
X190497499Y-96245001D02*
X190477499Y-96245001D01*
X190887499Y-99855001D02*
X190887499Y-96635001D01*
X175677499Y-100245001D02*
X190497499Y-100245001D01*
X175287499Y-96635001D02*
X175287499Y-99855001D01*
X175697499Y-96245001D02*
X175677499Y-96245001D01*
X175677499Y-90245001D02*
X175697499Y-90245001D01*
X175287499Y-86635001D02*
X175287499Y-89855001D01*
X175677499Y-86245001D02*
X190497499Y-86245001D01*
X190887499Y-89855001D02*
X190887499Y-86635001D01*
X190477499Y-90245001D02*
X190497499Y-90245001D01*
X171447499Y-96245001D02*
X171427499Y-96245001D01*
X171837499Y-99855001D02*
X171837499Y-96635001D01*
X156627499Y-100245001D02*
X171447499Y-100245001D01*
X156237499Y-96635001D02*
X156237499Y-99855001D01*
X156647499Y-96245001D02*
X156627499Y-96245001D01*
X156627499Y-90245001D02*
X156647499Y-90245001D01*
X156237499Y-86635001D02*
X156237499Y-89855001D01*
X156627499Y-86245001D02*
X171447499Y-86245001D01*
X171837499Y-89855001D02*
X171837499Y-86635001D01*
X171427499Y-90245001D02*
X171447499Y-90245001D01*
X152397499Y-96245001D02*
X152377499Y-96245001D01*
X152787499Y-99855001D02*
X152787499Y-96635001D01*
X137577499Y-100245001D02*
X152397499Y-100245001D01*
X137187499Y-96635001D02*
X137187499Y-99855001D01*
X137597499Y-96245001D02*
X137577499Y-96245001D01*
X137577499Y-90245001D02*
X137597499Y-90245001D01*
X137187499Y-86635001D02*
X137187499Y-89855001D01*
X137577499Y-86245001D02*
X152397499Y-86245001D01*
X152787499Y-89855001D02*
X152787499Y-86635001D01*
X152377499Y-90245001D02*
X152397499Y-90245001D01*
X177468749Y-138345000D02*
X188706249Y-138345000D01*
X176968749Y-138845000D02*
X176968749Y-139845000D01*
X165706249Y-140345000D02*
X176468749Y-140345000D01*
X165206249Y-138845000D02*
X165206249Y-139845000D01*
X137587499Y-138345000D02*
X164706249Y-138345000D01*
X137187499Y-134745000D02*
X137187499Y-137945000D01*
X137597499Y-134345000D02*
X137587499Y-134345000D01*
X137587499Y-128345000D02*
X137597499Y-128345000D01*
X137187499Y-124745001D02*
X137187499Y-127945000D01*
X137587499Y-124345001D02*
X163393749Y-124345001D01*
X164393749Y-125345001D02*
X173206249Y-125345001D01*
X174206249Y-124345001D02*
X191968749Y-124345001D01*
X192968749Y-125345001D02*
X200468749Y-125345001D01*
X200968749Y-125845000D02*
X200968749Y-139845000D01*
X189706249Y-140345000D02*
X200468749Y-140345000D01*
X189206249Y-138845000D02*
X189206249Y-139845000D01*
X104762500Y-115295001D02*
X104752500Y-115295001D01*
X105162500Y-118895001D02*
X105162500Y-115695001D01*
X89962500Y-119295001D02*
X104762500Y-119295001D01*
X89562500Y-115695001D02*
X89562500Y-118895001D01*
X89972500Y-115295001D02*
X89962500Y-115295001D01*
X89962500Y-109295001D02*
X89972500Y-109295001D01*
X89562500Y-105695001D02*
X89562500Y-108895001D01*
X89962500Y-105295001D02*
X104762500Y-105295001D01*
X105162500Y-108895001D02*
X105162500Y-105695001D01*
X104752500Y-109295001D02*
X104762500Y-109295001D01*
X123812500Y-115295001D02*
X123802500Y-115295001D01*
X124212500Y-118895001D02*
X124212500Y-115695001D01*
X109012500Y-119295001D02*
X123812500Y-119295001D01*
X108612500Y-115695001D02*
X108612500Y-118895001D01*
X109022500Y-115295001D02*
X109012500Y-115295001D01*
X109012500Y-109295001D02*
X109022500Y-109295001D01*
X108612500Y-105695001D02*
X108612500Y-108895001D01*
X109012500Y-105295001D02*
X123812500Y-105295001D01*
X124212500Y-108895001D02*
X124212500Y-105695001D01*
X123802500Y-109295001D02*
X123812500Y-109295001D01*
X142862499Y-115295001D02*
X142852499Y-115295001D01*
X143262499Y-118895001D02*
X143262499Y-115695001D01*
X128062499Y-119295001D02*
X142862499Y-119295001D01*
X127662499Y-115695001D02*
X127662499Y-118895001D01*
X128072499Y-115295001D02*
X128062499Y-115295001D01*
X128062499Y-109295001D02*
X128072499Y-109295001D01*
X127662499Y-105695001D02*
X127662499Y-108895001D01*
X128062499Y-105295001D02*
X142862499Y-105295001D01*
X143262499Y-108895001D02*
X143262499Y-105695001D01*
X142852499Y-109295001D02*
X142862499Y-109295001D01*
X85712500Y-115295001D02*
X85702500Y-115295001D01*
X86112500Y-118895001D02*
X86112500Y-115695001D01*
X70912500Y-119295001D02*
X85712500Y-119295001D01*
X70512500Y-115695001D02*
X70512500Y-118895001D01*
X70922500Y-115295001D02*
X70912500Y-115295001D01*
X70912500Y-109295001D02*
X70922500Y-109295001D01*
X70512500Y-105695001D02*
X70512500Y-108895001D01*
X70912500Y-105295001D02*
X85712500Y-105295001D01*
X86112500Y-108895001D02*
X86112500Y-105695001D01*
X85702500Y-109295001D02*
X85712500Y-109295001D01*
X254781249Y-96245001D02*
X254771249Y-96245001D01*
X255181249Y-99845001D02*
X255181249Y-96645001D01*
X239981249Y-100245001D02*
X254781249Y-100245001D01*
X239581249Y-96645001D02*
X239581249Y-99845001D01*
X239991249Y-96245001D02*
X239981249Y-96245001D01*
X239981249Y-90245001D02*
X239991249Y-90245001D01*
X239581249Y-86645001D02*
X239581249Y-89845001D01*
X239981249Y-86245001D02*
X254781249Y-86245001D01*
X255181249Y-89845001D02*
X255181249Y-86645001D01*
X254771249Y-90245001D02*
X254781249Y-90245001D01*
X259543749Y-115295001D02*
X259533749Y-115295001D01*
X259943749Y-118895001D02*
X259943749Y-115695001D01*
X244743749Y-119295001D02*
X259543749Y-119295001D01*
X244343749Y-115695001D02*
X244343749Y-118895001D01*
X244753749Y-115295001D02*
X244743749Y-115295001D01*
X244743749Y-109295001D02*
X244753749Y-109295001D01*
X244343749Y-105695001D02*
X244343749Y-108895001D01*
X244743749Y-105295001D02*
X259543749Y-105295001D01*
X259943749Y-108895001D02*
X259943749Y-105695001D01*
X259533749Y-109295001D02*
X259543749Y-109295001D01*
X203893749Y-125345001D02*
X208924999Y-125345001D01*
X209924999Y-124345001D02*
X261924999Y-124345001D01*
X262324999Y-127945000D02*
X262324999Y-124745001D01*
X261914999Y-128345000D02*
X261924999Y-128345000D01*
X261924999Y-134345000D02*
X261914999Y-134345000D01*
X262324999Y-137945000D02*
X262324999Y-134745000D01*
X210893749Y-138345000D02*
X261924999Y-138345000D01*
X210393749Y-138845000D02*
X210393749Y-139845000D01*
X203893749Y-140345000D02*
X209893749Y-140345000D01*
X203393749Y-125845000D02*
X203393749Y-139845000D01*
X71435000Y-77195001D02*
X71415000Y-77195001D01*
X71825000Y-80805001D02*
X71825000Y-77585001D01*
X56615000Y-81195001D02*
X71435000Y-81195001D01*
X56225000Y-77585001D02*
X56225000Y-80805001D01*
X56635000Y-77195001D02*
X56615000Y-77195001D01*
X56615000Y-71195001D02*
X56635000Y-71195001D01*
X56225000Y-67585001D02*
X56225000Y-70805001D01*
X56615000Y-67195001D02*
X71435000Y-67195001D01*
X71825000Y-70805001D02*
X71825000Y-67585001D01*
X71415000Y-71195001D02*
X71435000Y-71195001D01*
X90485000Y-77195001D02*
X90465000Y-77195001D01*
X90875000Y-80805001D02*
X90875000Y-77585001D01*
X75665000Y-81195001D02*
X90485000Y-81195001D01*
X75275000Y-77585001D02*
X75275000Y-80805001D01*
X75685000Y-77195001D02*
X75665000Y-77195001D01*
X75665000Y-71195001D02*
X75685000Y-71195001D01*
X75275000Y-67585001D02*
X75275000Y-70805001D01*
X75665000Y-67195001D02*
X90485000Y-67195001D01*
X90875000Y-70805001D02*
X90875000Y-67585001D01*
X90465000Y-71195001D02*
X90485000Y-71195001D01*
X109535000Y-77195001D02*
X109515000Y-77195001D01*
X109925000Y-80805001D02*
X109925000Y-77585001D01*
X94715000Y-81195001D02*
X109535000Y-81195001D01*
X94325000Y-77585001D02*
X94325000Y-80805001D01*
X94735000Y-77195001D02*
X94715000Y-77195001D01*
X94715000Y-71195001D02*
X94735000Y-71195001D01*
X94325000Y-67585001D02*
X94325000Y-70805001D01*
X94715000Y-67195001D02*
X109535000Y-67195001D01*
X109925000Y-70805001D02*
X109925000Y-67585001D01*
X109515000Y-71195001D02*
X109535000Y-71195001D01*
X128584999Y-77195001D02*
X128564999Y-77195001D01*
X128974999Y-80805001D02*
X128974999Y-77585001D01*
X113765000Y-81195001D02*
X128584999Y-81195001D01*
X113375000Y-77585001D02*
X113375000Y-80805001D01*
X113785000Y-77195001D02*
X113765000Y-77195001D01*
X113765000Y-71195001D02*
X113785000Y-71195001D01*
X113375000Y-67585001D02*
X113375000Y-70805001D01*
X113765000Y-67195001D02*
X128584999Y-67195001D01*
X128974999Y-70805001D02*
X128974999Y-67585001D01*
X128564999Y-71195001D02*
X128584999Y-71195001D01*
X147634999Y-77195001D02*
X147614999Y-77195001D01*
X148024999Y-80805001D02*
X148024999Y-77585001D01*
X132814999Y-81195001D02*
X147634999Y-81195001D01*
X132424999Y-77585001D02*
X132424999Y-80805001D01*
X132834999Y-77195001D02*
X132814999Y-77195001D01*
X132814999Y-71195001D02*
X132834999Y-71195001D01*
X132424999Y-67585001D02*
X132424999Y-70805001D01*
X132814999Y-67195001D02*
X147634999Y-67195001D01*
X148024999Y-70805001D02*
X148024999Y-67585001D01*
X147614999Y-71195001D02*
X147634999Y-71195001D01*
X166684999Y-77195001D02*
X166664999Y-77195001D01*
X167074999Y-80805001D02*
X167074999Y-77585001D01*
X151864999Y-81195001D02*
X166684999Y-81195001D01*
X151474999Y-77585001D02*
X151474999Y-80805001D01*
X151884999Y-77195001D02*
X151864999Y-77195001D01*
X151864999Y-71195001D02*
X151884999Y-71195001D01*
X151474999Y-67585001D02*
X151474999Y-70805001D01*
X151864999Y-67195001D02*
X166684999Y-67195001D01*
X167074999Y-70805001D02*
X167074999Y-67585001D01*
X166664999Y-71195001D02*
X166684999Y-71195001D01*
X185734999Y-77195001D02*
X185714999Y-77195001D01*
X186124999Y-80805001D02*
X186124999Y-77585001D01*
X170914999Y-81195001D02*
X185734999Y-81195001D01*
X170524999Y-77585001D02*
X170524999Y-80805001D01*
X170934999Y-77195001D02*
X170914999Y-77195001D01*
X170914999Y-71195001D02*
X170934999Y-71195001D01*
X170524999Y-67585001D02*
X170524999Y-70805001D01*
X170914999Y-67195001D02*
X185734999Y-67195001D01*
X186124999Y-70805001D02*
X186124999Y-67585001D01*
X185714999Y-71195001D02*
X185734999Y-71195001D01*
X204784999Y-77195001D02*
X204764999Y-77195001D01*
X205174999Y-80805001D02*
X205174999Y-77585001D01*
X189964999Y-81195001D02*
X204784999Y-81195001D01*
X189574999Y-77585001D02*
X189574999Y-80805001D01*
X189984999Y-77195001D02*
X189964999Y-77195001D01*
X189964999Y-71195001D02*
X189984999Y-71195001D01*
X189574999Y-67585001D02*
X189574999Y-70805001D01*
X189964999Y-67195001D02*
X204784999Y-67195001D01*
X205174999Y-70805001D02*
X205174999Y-67585001D01*
X204764999Y-71195001D02*
X204784999Y-71195001D01*
X133347499Y-96245001D02*
X133327499Y-96245001D01*
X133737499Y-99855001D02*
X133737499Y-96635001D01*
X118527500Y-100245001D02*
X133347499Y-100245001D01*
X118137500Y-96635001D02*
X118137500Y-99855001D01*
X118547500Y-96245001D02*
X118527500Y-96245001D01*
X118527500Y-90245001D02*
X118547500Y-90245001D01*
X118137500Y-86635001D02*
X118137500Y-89855001D01*
X118527500Y-86245001D02*
X133347499Y-86245001D01*
X133737499Y-89855001D02*
X133737499Y-86635001D01*
X133327499Y-90245001D02*
X133347499Y-90245001D01*
X114297500Y-96245001D02*
X114277500Y-96245001D01*
X114687500Y-99855001D02*
X114687500Y-96635001D01*
X99477500Y-100245001D02*
X114297500Y-100245001D01*
X99087500Y-96635001D02*
X99087500Y-99855001D01*
X99497500Y-96245001D02*
X99477500Y-96245001D01*
X99477500Y-90245001D02*
X99497500Y-90245001D01*
X99087500Y-86635001D02*
X99087500Y-89855001D01*
X99477500Y-86245001D02*
X114297500Y-86245001D01*
X114687500Y-89855001D02*
X114687500Y-86635001D01*
X114277500Y-90245001D02*
X114297500Y-90245001D01*
X95247500Y-96245001D02*
X95227500Y-96245001D01*
X95637500Y-99855001D02*
X95637500Y-96635001D01*
X80427500Y-100245001D02*
X95247500Y-100245001D01*
X80037500Y-96635001D02*
X80037500Y-99855001D01*
X80447500Y-96245001D02*
X80427500Y-96245001D01*
X80427500Y-90245001D02*
X80447500Y-90245001D01*
X80037500Y-86635001D02*
X80037500Y-89855001D01*
X80427500Y-86245001D02*
X95247500Y-86245001D01*
X95637500Y-89855001D02*
X95637500Y-86635001D01*
X95227500Y-90245001D02*
X95247500Y-90245001D01*
X223834999Y-77195001D02*
X223814999Y-77195001D01*
X224224999Y-80805001D02*
X224224999Y-77585001D01*
X209014999Y-81195001D02*
X223834999Y-81195001D01*
X208624999Y-77585001D02*
X208624999Y-80805001D01*
X209034999Y-77195001D02*
X209014999Y-77195001D01*
X209014999Y-71195001D02*
X209034999Y-71195001D01*
X208624999Y-67585001D02*
X208624999Y-70805001D01*
X209014999Y-67195001D02*
X223834999Y-67195001D01*
X224224999Y-70805001D02*
X224224999Y-67585001D01*
X223814999Y-71195001D02*
X223834999Y-71195001D01*
X242884999Y-77195001D02*
X242864999Y-77195001D01*
X243274999Y-80805001D02*
X243274999Y-77585001D01*
X228064999Y-81195001D02*
X242884999Y-81195001D01*
X227674999Y-77585001D02*
X227674999Y-80805001D01*
X228084999Y-77195001D02*
X228064999Y-77195001D01*
X228064999Y-71195001D02*
X228084999Y-71195001D01*
X227674999Y-67585001D02*
X227674999Y-70805001D01*
X228064999Y-67195001D02*
X242884999Y-67195001D01*
X243274999Y-70805001D02*
X243274999Y-67585001D01*
X242864999Y-71195001D02*
X242884999Y-71195001D01*
X261934999Y-77195001D02*
X261914999Y-77195001D01*
X262324999Y-80805001D02*
X262324999Y-77585001D01*
X247114999Y-81195001D02*
X261934999Y-81195001D01*
X246724999Y-77585001D02*
X246724999Y-80805001D01*
X247134999Y-77195001D02*
X247114999Y-77195001D01*
X247114999Y-71195001D02*
X247134999Y-71195001D01*
X246724999Y-67585001D02*
X246724999Y-70805001D01*
X247114999Y-67195001D02*
X261934999Y-67195001D01*
X262324999Y-70805001D02*
X262324999Y-67585001D01*
X261914999Y-71195001D02*
X261934999Y-71195001D01*
X76197500Y-96245001D02*
X76177500Y-96245001D01*
X76587500Y-99855001D02*
X76587500Y-96635001D01*
X61377500Y-100245001D02*
X76197500Y-100245001D01*
X60987500Y-96635001D02*
X60987500Y-99855001D01*
X61397500Y-96245001D02*
X61377500Y-96245001D01*
X61377500Y-90245001D02*
X61397500Y-90245001D01*
X60987500Y-86635001D02*
X60987500Y-89855001D01*
X61377500Y-86245001D02*
X76197500Y-86245001D01*
X76587500Y-89855001D02*
X76587500Y-86635001D01*
X76177500Y-90245001D02*
X76197500Y-90245001D01*
X161912499Y-115295001D02*
X161902499Y-115295001D01*
X162312499Y-118895001D02*
X162312499Y-115695001D01*
X147112499Y-119295001D02*
X161912499Y-119295001D01*
X146712499Y-115695001D02*
X146712499Y-118895001D01*
X147122499Y-115295001D02*
X147112499Y-115295001D01*
X147112499Y-109295001D02*
X147122499Y-109295001D01*
X146712499Y-105695001D02*
X146712499Y-108895001D01*
X147112499Y-105295001D02*
X161912499Y-105295001D01*
X162312499Y-108895001D02*
X162312499Y-105695001D01*
X161902499Y-109295001D02*
X161912499Y-109295001D01*
X180962499Y-115295001D02*
X180952499Y-115295001D01*
X181362499Y-118895001D02*
X181362499Y-115695001D01*
X166162499Y-119295001D02*
X180962499Y-119295001D01*
X165762499Y-115695001D02*
X165762499Y-118895001D01*
X166172499Y-115295001D02*
X166162499Y-115295001D01*
X166162499Y-109295001D02*
X166172499Y-109295001D01*
X165762499Y-105695001D02*
X165762499Y-108895001D01*
X166162499Y-105295001D02*
X180962499Y-105295001D01*
X181362499Y-108895001D02*
X181362499Y-105695001D01*
X180952499Y-109295001D02*
X180962499Y-109295001D01*
X200012499Y-115295001D02*
X200002499Y-115295001D01*
X200412499Y-118895001D02*
X200412499Y-115695001D01*
X185212499Y-119295001D02*
X200012499Y-119295001D01*
X184812499Y-115695001D02*
X184812499Y-118895001D01*
X185222499Y-115295001D02*
X185212499Y-115295001D01*
X185212499Y-109295001D02*
X185222499Y-109295001D01*
X184812499Y-105695001D02*
X184812499Y-108895001D01*
X185212499Y-105295001D02*
X200012499Y-105295001D01*
X200412499Y-108895001D02*
X200412499Y-105695001D01*
X200002499Y-109295001D02*
X200012499Y-109295001D01*
X219062499Y-115295001D02*
X219052499Y-115295001D01*
X219462499Y-118895001D02*
X219462499Y-115695001D01*
X204262499Y-119295001D02*
X219062499Y-119295001D01*
X203862499Y-115695001D02*
X203862499Y-118895001D01*
X204272499Y-115295001D02*
X204262499Y-115295001D01*
X204262499Y-109295001D02*
X204272499Y-109295001D01*
X203862499Y-105695001D02*
X203862499Y-108895001D01*
X204262499Y-105295001D02*
X219062499Y-105295001D01*
X219462499Y-108895001D02*
X219462499Y-105695001D01*
X219052499Y-109295001D02*
X219062499Y-109295001D01*
X238112499Y-115295001D02*
X238102499Y-115295001D01*
X238512499Y-118895001D02*
X238512499Y-115695001D01*
X223312499Y-119295001D02*
X238112499Y-119295001D01*
X222912499Y-115695001D02*
X222912499Y-118895001D01*
X223322499Y-115295001D02*
X223312499Y-115295001D01*
X223312499Y-109295001D02*
X223322499Y-109295001D01*
X222912499Y-105695001D02*
X222912499Y-108895001D01*
X223312499Y-105295001D02*
X238112499Y-105295001D01*
X238512499Y-108895001D02*
X238512499Y-105695001D01*
X238102499Y-109295001D02*
X238112499Y-109295001D01*
X52385000Y-77195001D02*
X52365000Y-77195001D01*
X52775000Y-80805001D02*
X52775000Y-77585001D01*
X37565000Y-81195001D02*
X52385000Y-81195001D01*
X37175000Y-77585001D02*
X37175000Y-80805001D01*
X37585000Y-77195001D02*
X37565000Y-77195001D01*
X37565000Y-71195001D02*
X37585000Y-71195001D01*
X37175000Y-67585001D02*
X37175000Y-70805001D01*
X37565000Y-67195001D02*
X52385000Y-67195001D01*
X52775000Y-70805001D02*
X52775000Y-67585001D01*
X52365000Y-71195001D02*
X52385000Y-71195001D01*
X30450000Y-142870000D02*
X30450000Y-63170001D01*
X259049999Y-142870000D02*
X40450000Y-142870000D01*
X269049999Y-63170001D02*
X269049999Y-142870000D01*
X40450000Y-63170001D02*
X259049999Y-63170001D01*
X110893750Y-138345000D02*
X122031250Y-138345000D01*
X110393750Y-138845000D02*
X110393750Y-139845000D01*
X99031250Y-140345000D02*
X109893750Y-140345000D01*
X98531250Y-125845000D02*
X98531250Y-139845000D01*
X99031250Y-125345001D02*
X106531250Y-125345001D01*
X107531250Y-124345001D02*
X125293750Y-124345001D01*
X126293749Y-125345001D02*
X133793749Y-125345001D01*
X134293749Y-125845000D02*
X134293749Y-139845000D01*
X123031250Y-140345000D02*
X133793749Y-140345000D01*
X122531250Y-138845000D02*
X122531250Y-139845000D01*
D11*
X32950000Y-60670001D02*
X33265261Y-60677172D01*
X33556079Y-60698077D01*
X33824374Y-60731799D01*
X34072070Y-60777422D01*
X34301089Y-60834032D01*
X34513354Y-60900713D01*
X34710787Y-60976550D01*
X34895312Y-61060626D01*
X35233325Y-61249834D01*
X35542773Y-61461016D01*
X35839038Y-61686846D01*
X36137500Y-61920001D01*
X36453540Y-62153155D01*
X36622958Y-62267443D01*
X36802539Y-62378985D01*
X36994204Y-62486865D01*
X37199877Y-62590167D01*
X37421481Y-62687975D01*
X37660937Y-62779376D01*
X37920169Y-62863451D01*
X38201098Y-62939288D01*
X38505648Y-63005969D01*
X38835742Y-63062579D01*
X39193301Y-63108202D01*
X39580249Y-63141924D01*
X39998507Y-63162829D01*
X40450000Y-63170001D01*
X40450000Y-142870000D02*
X39998507Y-142877171D01*
X39580249Y-142898076D01*
X39193301Y-142931798D01*
X38835742Y-142977421D01*
X38505648Y-143034031D01*
X38201098Y-143100712D01*
X37920169Y-143176549D01*
X37660937Y-143260625D01*
X37421481Y-143352025D01*
X37199877Y-143449833D01*
X36994204Y-143553135D01*
X36802539Y-143661015D01*
X36622958Y-143772557D01*
X36453540Y-143886845D01*
X36137500Y-144120000D01*
X35839038Y-144353154D01*
X35542773Y-144578984D01*
X35233325Y-144790166D01*
X34895312Y-144979375D01*
X34710787Y-145063450D01*
X34513354Y-145139287D01*
X34301089Y-145205968D01*
X34072070Y-145262578D01*
X33824374Y-145308201D01*
X33556079Y-145341923D01*
X33265261Y-145362828D01*
X32950000Y-145370000D01*
X266549999Y-145370000D02*
X266234737Y-145362828D01*
X265943919Y-145341923D01*
X265675624Y-145308201D01*
X265427928Y-145262578D01*
X265198909Y-145205968D01*
X264986644Y-145139287D01*
X264789211Y-145063450D01*
X264604686Y-144979375D01*
X264266673Y-144790166D01*
X263957225Y-144578984D01*
X263660960Y-144353154D01*
X263362499Y-144120000D01*
X263046458Y-143886845D01*
X262877040Y-143772557D01*
X262697459Y-143661015D01*
X262505794Y-143553135D01*
X262300121Y-143449833D01*
X262078517Y-143352025D01*
X261839061Y-143260625D01*
X261579829Y-143176549D01*
X261298900Y-143100712D01*
X260994350Y-143034031D01*
X260664256Y-142977421D01*
X260306697Y-142931798D01*
X259919749Y-142898076D01*
X259501491Y-142877171D01*
X259049999Y-142870000D01*
X259049999Y-63170001D02*
X259501491Y-63162829D01*
X259919749Y-63141924D01*
X260306697Y-63108202D01*
X260664256Y-63062579D01*
X260994350Y-63005969D01*
X261298900Y-62939288D01*
X261579829Y-62863451D01*
X261839061Y-62779376D01*
X262078517Y-62687975D01*
X262300121Y-62590167D01*
X262505794Y-62486865D01*
X262697459Y-62378985D01*
X262877040Y-62267443D01*
X263046458Y-62153155D01*
X263362499Y-61920001D01*
X263660960Y-61686846D01*
X263957225Y-61461016D01*
X264266673Y-61249834D01*
X264604686Y-61060626D01*
X264789211Y-60976550D01*
X264986644Y-60900713D01*
X265198909Y-60834032D01*
X265427928Y-60777422D01*
X265675624Y-60731799D01*
X265943919Y-60698077D01*
X266234737Y-60677172D01*
X266549999Y-60670001D01*
D10*
X267299999Y-63670001D02*
G75*
G03*
X267299999Y-63670001I-1250000J0D01*
G01*
X267299999Y-141870000D02*
G75*
G03*
X267299999Y-141870000I-1250000J0D01*
G01*
X34700000Y-141870000D02*
G75*
G03*
X34700000Y-141870000I-1250000J0D01*
G01*
X34700000Y-63670001D02*
G75*
G03*
X34700000Y-63670001I-1250000J0D01*
G01*
M02*
