%TF.GenerationSoftware,KiCad,Pcbnew,(5.99.0-10540-g55c1d814f9)*%
%TF.CreationDate,2021-05-28T08:58:00+02:00*%
%TF.ProjectId,plate-top,706c6174-652d-4746-9f70-2e6b69636164,1.0*%
%TF.SameCoordinates,Original*%
%TF.FileFunction,Profile,NP*%
%FSLAX46Y46*%
G04 Gerber Fmt 4.6, Leading zero omitted, Abs format (unit mm)*
G04 Created by KiCad (PCBNEW (5.99.0-10540-g55c1d814f9)) date 2021-05-28 08:58:00*
%MOMM*%
%LPD*%
G01*
G04 APERTURE LIST*
%TA.AperFunction,Profile*%
%ADD10C,0.250000*%
%TD*%
%ADD11C,0.200000*%
G04 APERTURE END LIST*
D10*
X210895983Y-138342766D02*
X244928341Y-138343011D01*
X209927233Y-124342767D02*
X245172622Y-124342592D01*
X37577234Y-124342767D02*
X56825445Y-124342312D01*
X37577234Y-138342766D02*
X57258766Y-138342514D01*
X56627234Y-124342767D02*
X95239734Y-124342767D01*
X171429733Y-96242767D02*
G75*
G02*
X171039733Y-95852767I0J390000D01*
G01*
X171449733Y-96242767D02*
G75*
G02*
X171839733Y-96632767I0J-390000D01*
G01*
X171839733Y-99852767D02*
G75*
G02*
X171449733Y-100242767I-390000J0D01*
G01*
X156629733Y-100242767D02*
G75*
G02*
X156239733Y-99852767I0J390000D01*
G01*
X156239733Y-96632767D02*
G75*
G02*
X156629733Y-96242767I390000J0D01*
G01*
X157039733Y-95852767D02*
G75*
G02*
X156649733Y-96242767I-390000J0D01*
G01*
X156649733Y-90242767D02*
G75*
G02*
X157039733Y-90632767I0J-390000D01*
G01*
X156629733Y-90242767D02*
G75*
G02*
X156239733Y-89852767I0J390000D01*
G01*
X156239733Y-86632767D02*
G75*
G02*
X156629733Y-86242767I390000J0D01*
G01*
X171449733Y-86242767D02*
G75*
G02*
X171839733Y-86632767I0J-390000D01*
G01*
X171839733Y-89852767D02*
G75*
G02*
X171449733Y-90242767I-390000J0D01*
G01*
X171039733Y-90632767D02*
G75*
G02*
X171429733Y-90242767I390000J0D01*
G01*
X190479733Y-96242767D02*
G75*
G02*
X190089733Y-95852767I0J390000D01*
G01*
X190499733Y-96242767D02*
G75*
G02*
X190889733Y-96632767I0J-390000D01*
G01*
X190889733Y-99852767D02*
G75*
G02*
X190499733Y-100242767I-390000J0D01*
G01*
X175679733Y-100242767D02*
G75*
G02*
X175289733Y-99852767I0J390000D01*
G01*
X175289733Y-96632767D02*
G75*
G02*
X175679733Y-96242767I390000J0D01*
G01*
X176089733Y-95852767D02*
G75*
G02*
X175699733Y-96242767I-390000J0D01*
G01*
X175699733Y-90242767D02*
G75*
G02*
X176089733Y-90632767I0J-390000D01*
G01*
X175679733Y-90242767D02*
G75*
G02*
X175289733Y-89852767I0J390000D01*
G01*
X175289733Y-86632767D02*
G75*
G02*
X175679733Y-86242767I390000J0D01*
G01*
X190499733Y-86242767D02*
G75*
G02*
X190889733Y-86632767I0J-390000D01*
G01*
X190889733Y-89852767D02*
G75*
G02*
X190499733Y-90242767I-390000J0D01*
G01*
X190089733Y-90632767D02*
G75*
G02*
X190479733Y-90242767I390000J0D01*
G01*
X209529733Y-96242767D02*
G75*
G02*
X209139733Y-95852767I0J390000D01*
G01*
X209549733Y-96242767D02*
G75*
G02*
X209939733Y-96632767I0J-390000D01*
G01*
X209939733Y-99852767D02*
G75*
G02*
X209549733Y-100242767I-390000J0D01*
G01*
X194729733Y-100242767D02*
G75*
G02*
X194339733Y-99852767I0J390000D01*
G01*
X194339733Y-96632767D02*
G75*
G02*
X194729733Y-96242767I390000J0D01*
G01*
X195139733Y-95852767D02*
G75*
G02*
X194749733Y-96242767I-390000J0D01*
G01*
X194749733Y-90242767D02*
G75*
G02*
X195139733Y-90632767I0J-390000D01*
G01*
X194729733Y-90242767D02*
G75*
G02*
X194339733Y-89852767I0J390000D01*
G01*
X194339733Y-86632767D02*
G75*
G02*
X194729733Y-86242767I390000J0D01*
G01*
X209549733Y-86242767D02*
G75*
G02*
X209939733Y-86632767I0J-390000D01*
G01*
X209939733Y-89852767D02*
G75*
G02*
X209549733Y-90242767I-390000J0D01*
G01*
X209139733Y-90632767D02*
G75*
G02*
X209529733Y-90242767I390000J0D01*
G01*
X228579733Y-96242767D02*
G75*
G02*
X228189733Y-95852767I0J390000D01*
G01*
X228599733Y-96242767D02*
G75*
G02*
X228989733Y-96632767I0J-390000D01*
G01*
X228989733Y-99852767D02*
G75*
G02*
X228599733Y-100242767I-390000J0D01*
G01*
X213779733Y-100242767D02*
G75*
G02*
X213389733Y-99852767I0J390000D01*
G01*
X213389733Y-96632767D02*
G75*
G02*
X213779733Y-96242767I390000J0D01*
G01*
X214189733Y-95852767D02*
G75*
G02*
X213799733Y-96242767I-390000J0D01*
G01*
X213799733Y-90242767D02*
G75*
G02*
X214189733Y-90632767I0J-390000D01*
G01*
X213779733Y-90242767D02*
G75*
G02*
X213389733Y-89852767I0J390000D01*
G01*
X213389733Y-86632767D02*
G75*
G02*
X213779733Y-86242767I390000J0D01*
G01*
X228599733Y-86242767D02*
G75*
G02*
X228989733Y-86632767I0J-390000D01*
G01*
X228989733Y-89852767D02*
G75*
G02*
X228599733Y-90242767I-390000J0D01*
G01*
X228189733Y-90632767D02*
G75*
G02*
X228579733Y-90242767I390000J0D01*
G01*
X37577234Y-138342766D02*
G75*
G02*
X37177234Y-137942766I0J400000D01*
G01*
X37177234Y-134742766D02*
G75*
G02*
X37577234Y-134342766I400000J0D01*
G01*
X37977234Y-133952766D02*
G75*
G02*
X37587234Y-134342766I-390000J0D01*
G01*
X37587234Y-128342766D02*
G75*
G02*
X37977234Y-128732766I0J-390000D01*
G01*
X37577234Y-128342766D02*
G75*
G02*
X37177234Y-127942766I0J400000D01*
G01*
X37177234Y-124742767D02*
G75*
G02*
X37577234Y-124342767I400000J0D01*
G01*
X95229734Y-134342766D02*
G75*
G02*
X94839734Y-133952766I0J390000D01*
G01*
X95239734Y-134342766D02*
G75*
G02*
X95639734Y-134742766I0J-400000D01*
G01*
X95639734Y-137942766D02*
G75*
G02*
X95239734Y-138342766I-400000J0D01*
G01*
X95239734Y-124342767D02*
G75*
G02*
X95639734Y-124742767I0J-400000D01*
G01*
X95639734Y-127942766D02*
G75*
G02*
X95239734Y-128342766I-400000J0D01*
G01*
X94839734Y-128732766D02*
G75*
G02*
X95229734Y-128342766I390000J0D01*
G01*
X54748484Y-96242767D02*
G75*
G02*
X54358484Y-95852767I0J390000D01*
G01*
X54758484Y-96242767D02*
G75*
G02*
X55158484Y-96642767I0J-400000D01*
G01*
X55158484Y-99842767D02*
G75*
G02*
X54758484Y-100242767I-400000J0D01*
G01*
X39958484Y-100242767D02*
G75*
G02*
X39558484Y-99842767I0J400000D01*
G01*
X39558484Y-96642767D02*
G75*
G02*
X39958484Y-96242767I400000J0D01*
G01*
X40358484Y-95852767D02*
G75*
G02*
X39968484Y-96242767I-390000J0D01*
G01*
X39968484Y-90242767D02*
G75*
G02*
X40358484Y-90632767I0J-390000D01*
G01*
X39958484Y-90242767D02*
G75*
G02*
X39558484Y-89842767I0J400000D01*
G01*
X39558484Y-86642767D02*
G75*
G02*
X39958484Y-86242767I400000J0D01*
G01*
X54758484Y-86242767D02*
G75*
G02*
X55158484Y-86642767I0J-400000D01*
G01*
X55158484Y-89842767D02*
G75*
G02*
X54758484Y-90242767I-400000J0D01*
G01*
X54358484Y-90632767D02*
G75*
G02*
X54748484Y-90242767I390000J0D01*
G01*
X59510984Y-115292767D02*
G75*
G02*
X59120984Y-114902767I0J390000D01*
G01*
X59520984Y-115292767D02*
G75*
G02*
X59920984Y-115692767I0J-400000D01*
G01*
X59920984Y-118892767D02*
G75*
G02*
X59520984Y-119292767I-400000J0D01*
G01*
X44720984Y-119292767D02*
G75*
G02*
X44320984Y-118892767I0J400000D01*
G01*
X44320984Y-115692767D02*
G75*
G02*
X44720984Y-115292767I400000J0D01*
G01*
X45120984Y-114902767D02*
G75*
G02*
X44730984Y-115292767I-390000J0D01*
G01*
X44730984Y-109292767D02*
G75*
G02*
X45120984Y-109682767I0J-390000D01*
G01*
X44720984Y-109292767D02*
G75*
G02*
X44320984Y-108892767I0J400000D01*
G01*
X44320984Y-105692767D02*
G75*
G02*
X44720984Y-105292767I400000J0D01*
G01*
X59520984Y-105292767D02*
G75*
G02*
X59920984Y-105692767I0J-400000D01*
G01*
X59920984Y-108892767D02*
G75*
G02*
X59520984Y-109292767I-400000J0D01*
G01*
X59120984Y-109682767D02*
G75*
G02*
X59510984Y-109292767I390000J0D01*
G01*
X123804734Y-115292767D02*
G75*
G02*
X123414734Y-114902767I0J390000D01*
G01*
X123814734Y-115292767D02*
G75*
G02*
X124214734Y-115692767I0J-400000D01*
G01*
X124214734Y-118892767D02*
G75*
G02*
X123814734Y-119292767I-400000J0D01*
G01*
X109014734Y-119292767D02*
G75*
G02*
X108614734Y-118892767I0J400000D01*
G01*
X108614734Y-115692767D02*
G75*
G02*
X109014734Y-115292767I400000J0D01*
G01*
X109414734Y-114902767D02*
G75*
G02*
X109024734Y-115292767I-390000J0D01*
G01*
X109024734Y-109292767D02*
G75*
G02*
X109414734Y-109682767I0J-390000D01*
G01*
X109014734Y-109292767D02*
G75*
G02*
X108614734Y-108892767I0J400000D01*
G01*
X108614734Y-105692767D02*
G75*
G02*
X109014734Y-105292767I400000J0D01*
G01*
X123814734Y-105292767D02*
G75*
G02*
X124214734Y-105692767I0J-400000D01*
G01*
X124214734Y-108892767D02*
G75*
G02*
X123814734Y-109292767I-400000J0D01*
G01*
X123414734Y-109682767D02*
G75*
G02*
X123804734Y-109292767I390000J0D01*
G01*
X104754734Y-115292767D02*
G75*
G02*
X104364734Y-114902767I0J390000D01*
G01*
X104764734Y-115292767D02*
G75*
G02*
X105164734Y-115692767I0J-400000D01*
G01*
X105164734Y-118892767D02*
G75*
G02*
X104764734Y-119292767I-400000J0D01*
G01*
X89964734Y-119292767D02*
G75*
G02*
X89564734Y-118892767I0J400000D01*
G01*
X89564734Y-115692767D02*
G75*
G02*
X89964734Y-115292767I400000J0D01*
G01*
X90364734Y-114902767D02*
G75*
G02*
X89974734Y-115292767I-390000J0D01*
G01*
X89974734Y-109292767D02*
G75*
G02*
X90364734Y-109682767I0J-390000D01*
G01*
X89964734Y-109292767D02*
G75*
G02*
X89564734Y-108892767I0J400000D01*
G01*
X89564734Y-105692767D02*
G75*
G02*
X89964734Y-105292767I400000J0D01*
G01*
X104764734Y-105292767D02*
G75*
G02*
X105164734Y-105692767I0J-400000D01*
G01*
X105164734Y-108892767D02*
G75*
G02*
X104764734Y-109292767I-400000J0D01*
G01*
X104364734Y-109682767D02*
G75*
G02*
X104754734Y-109292767I390000J0D01*
G01*
X176970983Y-138842766D02*
G75*
G02*
X177470983Y-138342766I500000J0D01*
G01*
X176970983Y-139842766D02*
G75*
G02*
X176470983Y-140342766I-500000J0D01*
G01*
X165708483Y-140342766D02*
G75*
G02*
X165208483Y-139842766I0J500000D01*
G01*
X164708483Y-138342766D02*
G75*
G02*
X165208483Y-138842766I0J-500000D01*
G01*
X137589733Y-138342766D02*
G75*
G02*
X137189733Y-137942766I0J400000D01*
G01*
X137189733Y-134742766D02*
G75*
G02*
X137589733Y-134342766I400000J0D01*
G01*
X137989733Y-133952766D02*
G75*
G02*
X137599733Y-134342766I-390000J0D01*
G01*
X137599733Y-128342766D02*
G75*
G02*
X137989733Y-128732766I0J-390000D01*
G01*
X137589733Y-128342766D02*
G75*
G02*
X137189733Y-127942766I0J400000D01*
G01*
X137189733Y-124742767D02*
G75*
G02*
X137589733Y-124342767I400000J0D01*
G01*
X163395983Y-124342767D02*
G75*
G02*
X163895983Y-124842767I0J-500000D01*
G01*
X164395983Y-125342767D02*
G75*
G02*
X163895983Y-124842767I0J500000D01*
G01*
X173708483Y-124842767D02*
G75*
G02*
X173208483Y-125342767I-500000J0D01*
G01*
X173708483Y-124842767D02*
G75*
G02*
X174208483Y-124342767I500000J0D01*
G01*
X191970983Y-124342767D02*
G75*
G02*
X192470983Y-124842767I0J-500000D01*
G01*
X192970983Y-125342767D02*
G75*
G02*
X192470983Y-124842767I0J500000D01*
G01*
X200470983Y-125342766D02*
G75*
G02*
X200970983Y-125842766I0J-500000D01*
G01*
X200970983Y-139842766D02*
G75*
G02*
X200470983Y-140342766I-500000J0D01*
G01*
X189708483Y-140342766D02*
G75*
G02*
X189208483Y-139842766I0J500000D01*
G01*
X188708483Y-138342766D02*
G75*
G02*
X189208483Y-138842766I0J-500000D01*
G01*
X209427233Y-124842767D02*
G75*
G02*
X208927233Y-125342767I-500000J0D01*
G01*
X209427233Y-124842767D02*
G75*
G02*
X209927233Y-124342767I500000J0D01*
G01*
X210395983Y-138842766D02*
G75*
G02*
X210895983Y-138342766I500000J0D01*
G01*
X210395983Y-139842766D02*
G75*
G02*
X209895983Y-140342766I-500000J0D01*
G01*
X203895983Y-140342766D02*
G75*
G02*
X203395983Y-139842766I0J500000D01*
G01*
X203395984Y-125842766D02*
G75*
G02*
X203895983Y-125342767I499999J0D01*
G01*
X85704734Y-115292767D02*
G75*
G02*
X85314734Y-114902767I0J390000D01*
G01*
X85714734Y-115292767D02*
G75*
G02*
X86114734Y-115692767I0J-400000D01*
G01*
X86114734Y-118892767D02*
G75*
G02*
X85714734Y-119292767I-400000J0D01*
G01*
X70914734Y-119292767D02*
G75*
G02*
X70514734Y-118892767I0J400000D01*
G01*
X70514734Y-115692767D02*
G75*
G02*
X70914734Y-115292767I400000J0D01*
G01*
X71314734Y-114902767D02*
G75*
G02*
X70924734Y-115292767I-390000J0D01*
G01*
X70924734Y-109292767D02*
G75*
G02*
X71314734Y-109682767I0J-390000D01*
G01*
X70914734Y-109292767D02*
G75*
G02*
X70514734Y-108892767I0J400000D01*
G01*
X70514734Y-105692767D02*
G75*
G02*
X70914734Y-105292767I400000J0D01*
G01*
X85714734Y-105292767D02*
G75*
G02*
X86114734Y-105692767I0J-400000D01*
G01*
X86114734Y-108892767D02*
G75*
G02*
X85714734Y-109292767I-400000J0D01*
G01*
X85314734Y-109682767D02*
G75*
G02*
X85704734Y-109292767I390000J0D01*
G01*
X254773483Y-96242767D02*
G75*
G02*
X254383483Y-95852767I0J390000D01*
G01*
X254783483Y-96242767D02*
G75*
G02*
X255183483Y-96642767I0J-400000D01*
G01*
X255183483Y-99842767D02*
G75*
G02*
X254783483Y-100242767I-400000J0D01*
G01*
X239983483Y-100242767D02*
G75*
G02*
X239583483Y-99842767I0J400000D01*
G01*
X239583483Y-96642767D02*
G75*
G02*
X239983483Y-96242767I400000J0D01*
G01*
X240383483Y-95852767D02*
G75*
G02*
X239993483Y-96242767I-390000J0D01*
G01*
X239993483Y-90242767D02*
G75*
G02*
X240383483Y-90632767I0J-390000D01*
G01*
X239983483Y-90242767D02*
G75*
G02*
X239583483Y-89842767I0J400000D01*
G01*
X239583483Y-86642767D02*
G75*
G02*
X239983483Y-86242767I400000J0D01*
G01*
X254783483Y-86242767D02*
G75*
G02*
X255183483Y-86642767I0J-400000D01*
G01*
X255183483Y-89842767D02*
G75*
G02*
X254783483Y-90242767I-400000J0D01*
G01*
X254383483Y-90632767D02*
G75*
G02*
X254773483Y-90242767I390000J0D01*
G01*
X259535983Y-115292767D02*
G75*
G02*
X259145983Y-114902767I0J390000D01*
G01*
X259545983Y-115292767D02*
G75*
G02*
X259945983Y-115692767I0J-400000D01*
G01*
X259945983Y-118892767D02*
G75*
G02*
X259545983Y-119292767I-400000J0D01*
G01*
X244745983Y-119292767D02*
G75*
G02*
X244345983Y-118892767I0J400000D01*
G01*
X244345983Y-115692767D02*
G75*
G02*
X244745983Y-115292767I400000J0D01*
G01*
X245145983Y-114902767D02*
G75*
G02*
X244755983Y-115292767I-390000J0D01*
G01*
X244755983Y-109292767D02*
G75*
G02*
X245145983Y-109682767I0J-390000D01*
G01*
X244745983Y-109292767D02*
G75*
G02*
X244345983Y-108892767I0J400000D01*
G01*
X244345983Y-105692767D02*
G75*
G02*
X244745983Y-105292767I400000J0D01*
G01*
X259545983Y-105292767D02*
G75*
G02*
X259945983Y-105692767I0J-400000D01*
G01*
X259945983Y-108892767D02*
G75*
G02*
X259545983Y-109292767I-400000J0D01*
G01*
X259145983Y-109682767D02*
G75*
G02*
X259535983Y-109292767I390000J0D01*
G01*
X261917233Y-134342766D02*
G75*
G02*
X261527233Y-133952766I0J390000D01*
G01*
X261927233Y-134342766D02*
G75*
G02*
X262327233Y-134742766I0J-400000D01*
G01*
X262327233Y-137942766D02*
G75*
G02*
X261927233Y-138342766I-400000J0D01*
G01*
X261927233Y-124342767D02*
G75*
G02*
X262327233Y-124742767I0J-400000D01*
G01*
X262327233Y-127942766D02*
G75*
G02*
X261927233Y-128342766I-400000J0D01*
G01*
X261527233Y-128732766D02*
G75*
G02*
X261917233Y-128342766I390000J0D01*
G01*
X71417234Y-77192767D02*
G75*
G02*
X71027234Y-76802767I0J390000D01*
G01*
X71437234Y-77192767D02*
G75*
G02*
X71827234Y-77582767I0J-390000D01*
G01*
X71827234Y-80802767D02*
G75*
G02*
X71437234Y-81192767I-390000J0D01*
G01*
X56617234Y-81192767D02*
G75*
G02*
X56227234Y-80802767I0J390000D01*
G01*
X56227234Y-77582767D02*
G75*
G02*
X56617234Y-77192767I390000J0D01*
G01*
X57027234Y-76802767D02*
G75*
G02*
X56637234Y-77192767I-390000J0D01*
G01*
X56637234Y-71192767D02*
G75*
G02*
X57027234Y-71582767I0J-390000D01*
G01*
X56617234Y-71192767D02*
G75*
G02*
X56227234Y-70802767I0J390000D01*
G01*
X56227234Y-67582767D02*
G75*
G02*
X56617234Y-67192767I390000J0D01*
G01*
X71437234Y-67192767D02*
G75*
G02*
X71827234Y-67582767I0J-390000D01*
G01*
X71827234Y-70802767D02*
G75*
G02*
X71437234Y-71192767I-390000J0D01*
G01*
X71027234Y-71582767D02*
G75*
G02*
X71417234Y-71192767I390000J0D01*
G01*
X90467234Y-77192767D02*
G75*
G02*
X90077234Y-76802767I0J390000D01*
G01*
X90487234Y-77192767D02*
G75*
G02*
X90877234Y-77582767I0J-390000D01*
G01*
X90877234Y-80802767D02*
G75*
G02*
X90487234Y-81192767I-390000J0D01*
G01*
X75667234Y-81192767D02*
G75*
G02*
X75277234Y-80802767I0J390000D01*
G01*
X75277234Y-77582767D02*
G75*
G02*
X75667234Y-77192767I390000J0D01*
G01*
X76077234Y-76802767D02*
G75*
G02*
X75687234Y-77192767I-390000J0D01*
G01*
X75687234Y-71192767D02*
G75*
G02*
X76077234Y-71582767I0J-390000D01*
G01*
X75667234Y-71192767D02*
G75*
G02*
X75277234Y-70802767I0J390000D01*
G01*
X75277234Y-67582767D02*
G75*
G02*
X75667234Y-67192767I390000J0D01*
G01*
X90487234Y-67192767D02*
G75*
G02*
X90877234Y-67582767I0J-390000D01*
G01*
X90877234Y-70802767D02*
G75*
G02*
X90487234Y-71192767I-390000J0D01*
G01*
X90077234Y-71582767D02*
G75*
G02*
X90467234Y-71192767I390000J0D01*
G01*
X109517234Y-77192767D02*
G75*
G02*
X109127234Y-76802767I0J390000D01*
G01*
X109537234Y-77192767D02*
G75*
G02*
X109927234Y-77582767I0J-390000D01*
G01*
X109927234Y-80802767D02*
G75*
G02*
X109537234Y-81192767I-390000J0D01*
G01*
X94717234Y-81192767D02*
G75*
G02*
X94327234Y-80802767I0J390000D01*
G01*
X94327234Y-77582767D02*
G75*
G02*
X94717234Y-77192767I390000J0D01*
G01*
X95127234Y-76802767D02*
G75*
G02*
X94737234Y-77192767I-390000J0D01*
G01*
X94737234Y-71192767D02*
G75*
G02*
X95127234Y-71582767I0J-390000D01*
G01*
X94717234Y-71192767D02*
G75*
G02*
X94327234Y-70802767I0J390000D01*
G01*
X94327234Y-67582767D02*
G75*
G02*
X94717234Y-67192767I390000J0D01*
G01*
X109537234Y-67192767D02*
G75*
G02*
X109927234Y-67582767I0J-390000D01*
G01*
X109927234Y-70802767D02*
G75*
G02*
X109537234Y-71192767I-390000J0D01*
G01*
X109127234Y-71582767D02*
G75*
G02*
X109517234Y-71192767I390000J0D01*
G01*
X128567233Y-77192767D02*
G75*
G02*
X128177233Y-76802767I0J390000D01*
G01*
X128587233Y-77192767D02*
G75*
G02*
X128977233Y-77582767I0J-390000D01*
G01*
X128977233Y-80802767D02*
G75*
G02*
X128587233Y-81192767I-390000J0D01*
G01*
X113767234Y-81192767D02*
G75*
G02*
X113377234Y-80802767I0J390000D01*
G01*
X113377234Y-77582767D02*
G75*
G02*
X113767234Y-77192767I390000J0D01*
G01*
X114177234Y-76802767D02*
G75*
G02*
X113787234Y-77192767I-390000J0D01*
G01*
X113787234Y-71192767D02*
G75*
G02*
X114177234Y-71582767I0J-390000D01*
G01*
X113767234Y-71192767D02*
G75*
G02*
X113377234Y-70802767I0J390000D01*
G01*
X113377234Y-67582767D02*
G75*
G02*
X113767234Y-67192767I390000J0D01*
G01*
X128587233Y-67192767D02*
G75*
G02*
X128977233Y-67582767I0J-390000D01*
G01*
X128977233Y-70802767D02*
G75*
G02*
X128587233Y-71192767I-390000J0D01*
G01*
X128177233Y-71582767D02*
G75*
G02*
X128567233Y-71192767I390000J0D01*
G01*
X147617233Y-77192767D02*
G75*
G02*
X147227233Y-76802767I0J390000D01*
G01*
X147637233Y-77192767D02*
G75*
G02*
X148027233Y-77582767I0J-390000D01*
G01*
X148027233Y-80802767D02*
G75*
G02*
X147637233Y-81192767I-390000J0D01*
G01*
X132817233Y-81192767D02*
G75*
G02*
X132427233Y-80802767I0J390000D01*
G01*
X132427233Y-77582767D02*
G75*
G02*
X132817233Y-77192767I390000J0D01*
G01*
X133227233Y-76802767D02*
G75*
G02*
X132837233Y-77192767I-390000J0D01*
G01*
X132837233Y-71192767D02*
G75*
G02*
X133227233Y-71582767I0J-390000D01*
G01*
X132817233Y-71192767D02*
G75*
G02*
X132427233Y-70802767I0J390000D01*
G01*
X132427233Y-67582767D02*
G75*
G02*
X132817233Y-67192767I390000J0D01*
G01*
X147637233Y-67192767D02*
G75*
G02*
X148027233Y-67582767I0J-390000D01*
G01*
X148027233Y-70802767D02*
G75*
G02*
X147637233Y-71192767I-390000J0D01*
G01*
X147227233Y-71582767D02*
G75*
G02*
X147617233Y-71192767I390000J0D01*
G01*
X166667233Y-77192767D02*
G75*
G02*
X166277233Y-76802767I0J390000D01*
G01*
X166687233Y-77192767D02*
G75*
G02*
X167077233Y-77582767I0J-390000D01*
G01*
X167077233Y-80802767D02*
G75*
G02*
X166687233Y-81192767I-390000J0D01*
G01*
X151867233Y-81192767D02*
G75*
G02*
X151477233Y-80802767I0J390000D01*
G01*
X151477233Y-77582767D02*
G75*
G02*
X151867233Y-77192767I390000J0D01*
G01*
X152277233Y-76802767D02*
G75*
G02*
X151887233Y-77192767I-390000J0D01*
G01*
X151887233Y-71192767D02*
G75*
G02*
X152277233Y-71582767I0J-390000D01*
G01*
X151867233Y-71192767D02*
G75*
G02*
X151477233Y-70802767I0J390000D01*
G01*
X151477233Y-67582767D02*
G75*
G02*
X151867233Y-67192767I390000J0D01*
G01*
X166687233Y-67192767D02*
G75*
G02*
X167077233Y-67582767I0J-390000D01*
G01*
X167077233Y-70802767D02*
G75*
G02*
X166687233Y-71192767I-390000J0D01*
G01*
X166277233Y-71582767D02*
G75*
G02*
X166667233Y-71192767I390000J0D01*
G01*
X185717233Y-77192767D02*
G75*
G02*
X185327233Y-76802767I0J390000D01*
G01*
X185737233Y-77192767D02*
G75*
G02*
X186127233Y-77582767I0J-390000D01*
G01*
X186127233Y-80802767D02*
G75*
G02*
X185737233Y-81192767I-390000J0D01*
G01*
X170917233Y-81192767D02*
G75*
G02*
X170527233Y-80802767I0J390000D01*
G01*
X170527233Y-77582767D02*
G75*
G02*
X170917233Y-77192767I390000J0D01*
G01*
X171327233Y-76802767D02*
G75*
G02*
X170937233Y-77192767I-390000J0D01*
G01*
X170937233Y-71192767D02*
G75*
G02*
X171327233Y-71582767I0J-390000D01*
G01*
X170917233Y-71192767D02*
G75*
G02*
X170527233Y-70802767I0J390000D01*
G01*
X170527233Y-67582767D02*
G75*
G02*
X170917233Y-67192767I390000J0D01*
G01*
X185737233Y-67192767D02*
G75*
G02*
X186127233Y-67582767I0J-390000D01*
G01*
X186127233Y-70802767D02*
G75*
G02*
X185737233Y-71192767I-390000J0D01*
G01*
X185327233Y-71582767D02*
G75*
G02*
X185717233Y-71192767I390000J0D01*
G01*
X204767233Y-77192767D02*
G75*
G02*
X204377233Y-76802767I0J390000D01*
G01*
X204787233Y-77192767D02*
G75*
G02*
X205177233Y-77582767I0J-390000D01*
G01*
X205177233Y-80802767D02*
G75*
G02*
X204787233Y-81192767I-390000J0D01*
G01*
X189967233Y-81192767D02*
G75*
G02*
X189577233Y-80802767I0J390000D01*
G01*
X189577233Y-77582767D02*
G75*
G02*
X189967233Y-77192767I390000J0D01*
G01*
X190377233Y-76802767D02*
G75*
G02*
X189987233Y-77192767I-390000J0D01*
G01*
X189987233Y-71192767D02*
G75*
G02*
X190377233Y-71582767I0J-390000D01*
G01*
X189967233Y-71192767D02*
G75*
G02*
X189577233Y-70802767I0J390000D01*
G01*
X189577233Y-67582767D02*
G75*
G02*
X189967233Y-67192767I390000J0D01*
G01*
X204787233Y-67192767D02*
G75*
G02*
X205177233Y-67582767I0J-390000D01*
G01*
X205177233Y-70802767D02*
G75*
G02*
X204787233Y-71192767I-390000J0D01*
G01*
X204377233Y-71582767D02*
G75*
G02*
X204767233Y-71192767I390000J0D01*
G01*
X152379733Y-96242767D02*
G75*
G02*
X151989733Y-95852767I0J390000D01*
G01*
X152399733Y-96242767D02*
G75*
G02*
X152789733Y-96632767I0J-390000D01*
G01*
X152789733Y-99852767D02*
G75*
G02*
X152399733Y-100242767I-390000J0D01*
G01*
X137579733Y-100242767D02*
G75*
G02*
X137189733Y-99852767I0J390000D01*
G01*
X137189733Y-96632767D02*
G75*
G02*
X137579733Y-96242767I390000J0D01*
G01*
X137989733Y-95852767D02*
G75*
G02*
X137599733Y-96242767I-390000J0D01*
G01*
X137599733Y-90242767D02*
G75*
G02*
X137989733Y-90632767I0J-390000D01*
G01*
X137579733Y-90242767D02*
G75*
G02*
X137189733Y-89852767I0J390000D01*
G01*
X137189733Y-86632767D02*
G75*
G02*
X137579733Y-86242767I390000J0D01*
G01*
X152399733Y-86242767D02*
G75*
G02*
X152789733Y-86632767I0J-390000D01*
G01*
X152789733Y-89852767D02*
G75*
G02*
X152399733Y-90242767I-390000J0D01*
G01*
X151989733Y-90632767D02*
G75*
G02*
X152379733Y-90242767I390000J0D01*
G01*
X133329733Y-96242767D02*
G75*
G02*
X132939733Y-95852767I0J390000D01*
G01*
X133349733Y-96242767D02*
G75*
G02*
X133739733Y-96632767I0J-390000D01*
G01*
X133739733Y-99852767D02*
G75*
G02*
X133349733Y-100242767I-390000J0D01*
G01*
X118529734Y-100242767D02*
G75*
G02*
X118139734Y-99852767I0J390000D01*
G01*
X118139734Y-96632767D02*
G75*
G02*
X118529734Y-96242767I390000J0D01*
G01*
X118939734Y-95852767D02*
G75*
G02*
X118549734Y-96242767I-390000J0D01*
G01*
X118549734Y-90242767D02*
G75*
G02*
X118939734Y-90632767I0J-390000D01*
G01*
X118529734Y-90242767D02*
G75*
G02*
X118139734Y-89852767I0J390000D01*
G01*
X118139734Y-86632767D02*
G75*
G02*
X118529734Y-86242767I390000J0D01*
G01*
X133349733Y-86242767D02*
G75*
G02*
X133739733Y-86632767I0J-390000D01*
G01*
X133739733Y-89852767D02*
G75*
G02*
X133349733Y-90242767I-390000J0D01*
G01*
X132939733Y-90632767D02*
G75*
G02*
X133329733Y-90242767I390000J0D01*
G01*
X114279734Y-96242767D02*
G75*
G02*
X113889734Y-95852767I0J390000D01*
G01*
X114299734Y-96242767D02*
G75*
G02*
X114689734Y-96632767I0J-390000D01*
G01*
X114689734Y-99852767D02*
G75*
G02*
X114299734Y-100242767I-390000J0D01*
G01*
X99479734Y-100242767D02*
G75*
G02*
X99089734Y-99852767I0J390000D01*
G01*
X99089734Y-96632767D02*
G75*
G02*
X99479734Y-96242767I390000J0D01*
G01*
X99889734Y-95852767D02*
G75*
G02*
X99499734Y-96242767I-390000J0D01*
G01*
X99499734Y-90242767D02*
G75*
G02*
X99889734Y-90632767I0J-390000D01*
G01*
X99479734Y-90242767D02*
G75*
G02*
X99089734Y-89852767I0J390000D01*
G01*
X99089734Y-86632767D02*
G75*
G02*
X99479734Y-86242767I390000J0D01*
G01*
X114299734Y-86242767D02*
G75*
G02*
X114689734Y-86632767I0J-390000D01*
G01*
X114689734Y-89852767D02*
G75*
G02*
X114299734Y-90242767I-390000J0D01*
G01*
X113889734Y-90632767D02*
G75*
G02*
X114279734Y-90242767I390000J0D01*
G01*
X95229734Y-96242767D02*
G75*
G02*
X94839734Y-95852767I0J390000D01*
G01*
X95249734Y-96242767D02*
G75*
G02*
X95639734Y-96632767I0J-390000D01*
G01*
X95639734Y-99852767D02*
G75*
G02*
X95249734Y-100242767I-390000J0D01*
G01*
X80429734Y-100242767D02*
G75*
G02*
X80039734Y-99852767I0J390000D01*
G01*
X80039734Y-96632767D02*
G75*
G02*
X80429734Y-96242767I390000J0D01*
G01*
X80839734Y-95852767D02*
G75*
G02*
X80449734Y-96242767I-390000J0D01*
G01*
X80449734Y-90242767D02*
G75*
G02*
X80839734Y-90632767I0J-390000D01*
G01*
X80429734Y-90242767D02*
G75*
G02*
X80039734Y-89852767I0J390000D01*
G01*
X80039734Y-86632767D02*
G75*
G02*
X80429734Y-86242767I390000J0D01*
G01*
X95249734Y-86242767D02*
G75*
G02*
X95639734Y-86632767I0J-390000D01*
G01*
X95639734Y-89852767D02*
G75*
G02*
X95249734Y-90242767I-390000J0D01*
G01*
X94839734Y-90632767D02*
G75*
G02*
X95229734Y-90242767I390000J0D01*
G01*
X223817233Y-77192767D02*
G75*
G02*
X223427233Y-76802767I0J390000D01*
G01*
X223837233Y-77192767D02*
G75*
G02*
X224227233Y-77582767I0J-390000D01*
G01*
X224227233Y-80802767D02*
G75*
G02*
X223837233Y-81192767I-390000J0D01*
G01*
X209017233Y-81192767D02*
G75*
G02*
X208627233Y-80802767I0J390000D01*
G01*
X208627233Y-77582767D02*
G75*
G02*
X209017233Y-77192767I390000J0D01*
G01*
X209427233Y-76802767D02*
G75*
G02*
X209037233Y-77192767I-390000J0D01*
G01*
X209037233Y-71192767D02*
G75*
G02*
X209427233Y-71582767I0J-390000D01*
G01*
X209017233Y-71192767D02*
G75*
G02*
X208627233Y-70802767I0J390000D01*
G01*
X208627233Y-67582767D02*
G75*
G02*
X209017233Y-67192767I390000J0D01*
G01*
X223837233Y-67192767D02*
G75*
G02*
X224227233Y-67582767I0J-390000D01*
G01*
X224227233Y-70802767D02*
G75*
G02*
X223837233Y-71192767I-390000J0D01*
G01*
X223427233Y-71582767D02*
G75*
G02*
X223817233Y-71192767I390000J0D01*
G01*
X242867233Y-77192767D02*
G75*
G02*
X242477233Y-76802767I0J390000D01*
G01*
X242887233Y-77192767D02*
G75*
G02*
X243277233Y-77582767I0J-390000D01*
G01*
X243277233Y-80802767D02*
G75*
G02*
X242887233Y-81192767I-390000J0D01*
G01*
X228067233Y-81192767D02*
G75*
G02*
X227677233Y-80802767I0J390000D01*
G01*
X227677233Y-77582767D02*
G75*
G02*
X228067233Y-77192767I390000J0D01*
G01*
X228477233Y-76802767D02*
G75*
G02*
X228087233Y-77192767I-390000J0D01*
G01*
X228087233Y-71192767D02*
G75*
G02*
X228477233Y-71582767I0J-390000D01*
G01*
X228067233Y-71192767D02*
G75*
G02*
X227677233Y-70802767I0J390000D01*
G01*
X227677233Y-67582767D02*
G75*
G02*
X228067233Y-67192767I390000J0D01*
G01*
X242887233Y-67192767D02*
G75*
G02*
X243277233Y-67582767I0J-390000D01*
G01*
X243277233Y-70802767D02*
G75*
G02*
X242887233Y-71192767I-390000J0D01*
G01*
X242477233Y-71582767D02*
G75*
G02*
X242867233Y-71192767I390000J0D01*
G01*
X261917233Y-77192767D02*
G75*
G02*
X261527233Y-76802767I0J390000D01*
G01*
X261937233Y-77192767D02*
G75*
G02*
X262327233Y-77582767I0J-390000D01*
G01*
X262327233Y-80802767D02*
G75*
G02*
X261937233Y-81192767I-390000J0D01*
G01*
X247117233Y-81192767D02*
G75*
G02*
X246727233Y-80802767I0J390000D01*
G01*
X246727233Y-77582767D02*
G75*
G02*
X247117233Y-77192767I390000J0D01*
G01*
X247527233Y-76802767D02*
G75*
G02*
X247137233Y-77192767I-390000J0D01*
G01*
X247137233Y-71192767D02*
G75*
G02*
X247527233Y-71582767I0J-390000D01*
G01*
X247117233Y-71192767D02*
G75*
G02*
X246727233Y-70802767I0J390000D01*
G01*
X246727233Y-67582767D02*
G75*
G02*
X247117233Y-67192767I390000J0D01*
G01*
X261937233Y-67192767D02*
G75*
G02*
X262327233Y-67582767I0J-390000D01*
G01*
X262327233Y-70802767D02*
G75*
G02*
X261937233Y-71192767I-390000J0D01*
G01*
X261527233Y-71582767D02*
G75*
G02*
X261917233Y-71192767I390000J0D01*
G01*
X76179734Y-96242767D02*
G75*
G02*
X75789734Y-95852767I0J390000D01*
G01*
X76199734Y-96242767D02*
G75*
G02*
X76589734Y-96632767I0J-390000D01*
G01*
X76589734Y-99852767D02*
G75*
G02*
X76199734Y-100242767I-390000J0D01*
G01*
X61379734Y-100242767D02*
G75*
G02*
X60989734Y-99852767I0J390000D01*
G01*
X60989734Y-96632767D02*
G75*
G02*
X61379734Y-96242767I390000J0D01*
G01*
X61789734Y-95852767D02*
G75*
G02*
X61399734Y-96242767I-390000J0D01*
G01*
X61399734Y-90242767D02*
G75*
G02*
X61789734Y-90632767I0J-390000D01*
G01*
X61379734Y-90242767D02*
G75*
G02*
X60989734Y-89852767I0J390000D01*
G01*
X60989734Y-86632767D02*
G75*
G02*
X61379734Y-86242767I390000J0D01*
G01*
X76199734Y-86242767D02*
G75*
G02*
X76589734Y-86632767I0J-390000D01*
G01*
X76589734Y-89852767D02*
G75*
G02*
X76199734Y-90242767I-390000J0D01*
G01*
X75789734Y-90632767D02*
G75*
G02*
X76179734Y-90242767I390000J0D01*
G01*
X142854733Y-115292767D02*
G75*
G02*
X142464733Y-114902767I0J390000D01*
G01*
X142864733Y-115292767D02*
G75*
G02*
X143264733Y-115692767I0J-400000D01*
G01*
X143264733Y-118892767D02*
G75*
G02*
X142864733Y-119292767I-400000J0D01*
G01*
X128064733Y-119292767D02*
G75*
G02*
X127664733Y-118892767I0J400000D01*
G01*
X127664733Y-115692767D02*
G75*
G02*
X128064733Y-115292767I400000J0D01*
G01*
X128464733Y-114902767D02*
G75*
G02*
X128074733Y-115292767I-390000J0D01*
G01*
X128074733Y-109292767D02*
G75*
G02*
X128464733Y-109682767I0J-390000D01*
G01*
X128064733Y-109292767D02*
G75*
G02*
X127664733Y-108892767I0J400000D01*
G01*
X127664733Y-105692767D02*
G75*
G02*
X128064733Y-105292767I400000J0D01*
G01*
X142864733Y-105292767D02*
G75*
G02*
X143264733Y-105692767I0J-400000D01*
G01*
X143264733Y-108892767D02*
G75*
G02*
X142864733Y-109292767I-400000J0D01*
G01*
X142464733Y-109682767D02*
G75*
G02*
X142854733Y-109292767I390000J0D01*
G01*
X161904733Y-115292767D02*
G75*
G02*
X161514733Y-114902767I0J390000D01*
G01*
X161914733Y-115292767D02*
G75*
G02*
X162314733Y-115692767I0J-400000D01*
G01*
X162314733Y-118892767D02*
G75*
G02*
X161914733Y-119292767I-400000J0D01*
G01*
X147114733Y-119292767D02*
G75*
G02*
X146714733Y-118892767I0J400000D01*
G01*
X146714733Y-115692767D02*
G75*
G02*
X147114733Y-115292767I400000J0D01*
G01*
X147514733Y-114902767D02*
G75*
G02*
X147124733Y-115292767I-390000J0D01*
G01*
X147124733Y-109292767D02*
G75*
G02*
X147514733Y-109682767I0J-390000D01*
G01*
X147114733Y-109292767D02*
G75*
G02*
X146714733Y-108892767I0J400000D01*
G01*
X146714733Y-105692767D02*
G75*
G02*
X147114733Y-105292767I400000J0D01*
G01*
X161914733Y-105292767D02*
G75*
G02*
X162314733Y-105692767I0J-400000D01*
G01*
X162314733Y-108892767D02*
G75*
G02*
X161914733Y-109292767I-400000J0D01*
G01*
X161514733Y-109682767D02*
G75*
G02*
X161904733Y-109292767I390000J0D01*
G01*
X180954733Y-115292767D02*
G75*
G02*
X180564733Y-114902767I0J390000D01*
G01*
X180964733Y-115292767D02*
G75*
G02*
X181364733Y-115692767I0J-400000D01*
G01*
X181364733Y-118892767D02*
G75*
G02*
X180964733Y-119292767I-400000J0D01*
G01*
X166164733Y-119292767D02*
G75*
G02*
X165764733Y-118892767I0J400000D01*
G01*
X165764733Y-115692767D02*
G75*
G02*
X166164733Y-115292767I400000J0D01*
G01*
X166564733Y-114902767D02*
G75*
G02*
X166174733Y-115292767I-390000J0D01*
G01*
X166174733Y-109292767D02*
G75*
G02*
X166564733Y-109682767I0J-390000D01*
G01*
X166164733Y-109292767D02*
G75*
G02*
X165764733Y-108892767I0J400000D01*
G01*
X165764733Y-105692767D02*
G75*
G02*
X166164733Y-105292767I400000J0D01*
G01*
X180964733Y-105292767D02*
G75*
G02*
X181364733Y-105692767I0J-400000D01*
G01*
X181364733Y-108892767D02*
G75*
G02*
X180964733Y-109292767I-400000J0D01*
G01*
X180564733Y-109682767D02*
G75*
G02*
X180954733Y-109292767I390000J0D01*
G01*
X200004733Y-115292767D02*
G75*
G02*
X199614733Y-114902767I0J390000D01*
G01*
X200014733Y-115292767D02*
G75*
G02*
X200414733Y-115692767I0J-400000D01*
G01*
X200414733Y-118892767D02*
G75*
G02*
X200014733Y-119292767I-400000J0D01*
G01*
X185214733Y-119292767D02*
G75*
G02*
X184814733Y-118892767I0J400000D01*
G01*
X184814733Y-115692767D02*
G75*
G02*
X185214733Y-115292767I400000J0D01*
G01*
X185614733Y-114902767D02*
G75*
G02*
X185224733Y-115292767I-390000J0D01*
G01*
X185224733Y-109292767D02*
G75*
G02*
X185614733Y-109682767I0J-390000D01*
G01*
X185214733Y-109292767D02*
G75*
G02*
X184814733Y-108892767I0J400000D01*
G01*
X184814733Y-105692767D02*
G75*
G02*
X185214733Y-105292767I400000J0D01*
G01*
X200014733Y-105292767D02*
G75*
G02*
X200414733Y-105692767I0J-400000D01*
G01*
X200414733Y-108892767D02*
G75*
G02*
X200014733Y-109292767I-400000J0D01*
G01*
X199614733Y-109682767D02*
G75*
G02*
X200004733Y-109292767I390000J0D01*
G01*
X219054733Y-115292767D02*
G75*
G02*
X218664733Y-114902767I0J390000D01*
G01*
X219064733Y-115292767D02*
G75*
G02*
X219464733Y-115692767I0J-400000D01*
G01*
X219464733Y-118892767D02*
G75*
G02*
X219064733Y-119292767I-400000J0D01*
G01*
X204264733Y-119292767D02*
G75*
G02*
X203864733Y-118892767I0J400000D01*
G01*
X203864733Y-115692767D02*
G75*
G02*
X204264733Y-115292767I400000J0D01*
G01*
X204664733Y-114902767D02*
G75*
G02*
X204274733Y-115292767I-390000J0D01*
G01*
X204274733Y-109292767D02*
G75*
G02*
X204664733Y-109682767I0J-390000D01*
G01*
X204264733Y-109292767D02*
G75*
G02*
X203864733Y-108892767I0J400000D01*
G01*
X203864733Y-105692767D02*
G75*
G02*
X204264733Y-105292767I400000J0D01*
G01*
X219064733Y-105292767D02*
G75*
G02*
X219464733Y-105692767I0J-400000D01*
G01*
X219464733Y-108892767D02*
G75*
G02*
X219064733Y-109292767I-400000J0D01*
G01*
X218664733Y-109682767D02*
G75*
G02*
X219054733Y-109292767I390000J0D01*
G01*
X238104733Y-115292767D02*
G75*
G02*
X237714733Y-114902767I0J390000D01*
G01*
X238114733Y-115292767D02*
G75*
G02*
X238514733Y-115692767I0J-400000D01*
G01*
X238514733Y-118892767D02*
G75*
G02*
X238114733Y-119292767I-400000J0D01*
G01*
X223314733Y-119292767D02*
G75*
G02*
X222914733Y-118892767I0J400000D01*
G01*
X222914733Y-115692767D02*
G75*
G02*
X223314733Y-115292767I400000J0D01*
G01*
X223714733Y-114902767D02*
G75*
G02*
X223324733Y-115292767I-390000J0D01*
G01*
X223324733Y-109292767D02*
G75*
G02*
X223714733Y-109682767I0J-390000D01*
G01*
X223314733Y-109292767D02*
G75*
G02*
X222914733Y-108892767I0J400000D01*
G01*
X222914733Y-105692767D02*
G75*
G02*
X223314733Y-105292767I400000J0D01*
G01*
X238114733Y-105292767D02*
G75*
G02*
X238514733Y-105692767I0J-400000D01*
G01*
X238514733Y-108892767D02*
G75*
G02*
X238114733Y-109292767I-400000J0D01*
G01*
X237714733Y-109682767D02*
G75*
G02*
X238104733Y-109292767I390000J0D01*
G01*
X52367234Y-77192767D02*
G75*
G02*
X51977234Y-76802767I0J390000D01*
G01*
X52387234Y-77192767D02*
G75*
G02*
X52777234Y-77582767I0J-390000D01*
G01*
X52777234Y-80802767D02*
G75*
G02*
X52387234Y-81192767I-390000J0D01*
G01*
X37567234Y-81192767D02*
G75*
G02*
X37177234Y-80802767I0J390000D01*
G01*
X37177234Y-77582767D02*
G75*
G02*
X37567234Y-77192767I390000J0D01*
G01*
X37977234Y-76802767D02*
G75*
G02*
X37587234Y-77192767I-390000J0D01*
G01*
X37587234Y-71192767D02*
G75*
G02*
X37977234Y-71582767I0J-390000D01*
G01*
X37567234Y-71192767D02*
G75*
G02*
X37177234Y-70802767I0J390000D01*
G01*
X37177234Y-67582767D02*
G75*
G02*
X37567234Y-67192767I390000J0D01*
G01*
X52387234Y-67192767D02*
G75*
G02*
X52777234Y-67582767I0J-390000D01*
G01*
X52777234Y-70802767D02*
G75*
G02*
X52387234Y-71192767I-390000J0D01*
G01*
X51977234Y-71582767D02*
G75*
G02*
X52367234Y-71192767I390000J0D01*
G01*
X30452234Y-63167767D02*
G75*
G02*
X32952234Y-60667767I2500000J0D01*
G01*
X32952234Y-145367766D02*
G75*
G02*
X30452234Y-142867766I0J2500000D01*
G01*
X269052233Y-142867766D02*
G75*
G02*
X266552233Y-145367766I-2500000J0D01*
G01*
X266552233Y-60667767D02*
G75*
G02*
X269052233Y-63167767I0J-2500000D01*
G01*
X110395984Y-138842766D02*
G75*
G02*
X110895984Y-138342766I500000J0D01*
G01*
X110395984Y-139842766D02*
G75*
G02*
X109895984Y-140342766I-500000J0D01*
G01*
X99033484Y-140342766D02*
G75*
G02*
X98533484Y-139842766I0J500000D01*
G01*
X98533485Y-125842766D02*
G75*
G02*
X99033484Y-125342767I499999J0D01*
G01*
X107033484Y-124842767D02*
G75*
G02*
X106533484Y-125342767I-500000J0D01*
G01*
X107033484Y-124842767D02*
G75*
G02*
X107533484Y-124342767I500000J0D01*
G01*
X125295984Y-124342767D02*
G75*
G02*
X125795984Y-124842767I0J-500000D01*
G01*
X126295983Y-125342766D02*
G75*
G02*
X125795984Y-124842767I0J499999D01*
G01*
X133795983Y-125342766D02*
G75*
G02*
X134295983Y-125842766I0J-500000D01*
G01*
X134295983Y-139842766D02*
G75*
G02*
X133795983Y-140342766I-500000J0D01*
G01*
X123033484Y-140342766D02*
G75*
G02*
X122533484Y-139842766I0J500000D01*
G01*
X122033484Y-138342766D02*
G75*
G02*
X122533484Y-138842766I0J-500000D01*
G01*
X51977234Y-71582767D02*
X51977234Y-76802767D01*
X37977234Y-71582767D02*
X37977234Y-76802767D01*
X259145983Y-109682767D02*
X259145983Y-114902767D01*
X245145983Y-109682767D02*
X245145983Y-114902767D01*
X54358484Y-90632767D02*
X54358484Y-95852767D01*
X40358484Y-90632767D02*
X40358484Y-95852767D01*
X261527233Y-71582767D02*
X261527233Y-76802767D01*
X247527233Y-71582767D02*
X247527233Y-76802767D01*
X242477233Y-71582767D02*
X242477233Y-76802767D01*
X228477233Y-71582767D02*
X228477233Y-76802767D01*
X223427233Y-71582767D02*
X223427233Y-76802767D01*
X209427233Y-71582767D02*
X209427233Y-76802767D01*
X75789734Y-90632767D02*
X75789734Y-95852767D01*
X61789734Y-90632767D02*
X61789734Y-95852767D01*
X94839734Y-90632767D02*
X94839734Y-95852767D01*
X80839734Y-90632767D02*
X80839734Y-95852767D01*
X113889734Y-90632767D02*
X113889734Y-95852767D01*
X99889734Y-90632767D02*
X99889734Y-95852767D01*
X132939733Y-90632767D02*
X132939733Y-95852767D01*
X118939734Y-90632767D02*
X118939734Y-95852767D01*
X204377233Y-71582767D02*
X204377233Y-76802767D01*
X190377233Y-71582767D02*
X190377233Y-76802767D01*
X185327233Y-71582767D02*
X185327233Y-76802767D01*
X171327233Y-71582767D02*
X171327233Y-76802767D01*
X166277233Y-71582767D02*
X166277233Y-76802767D01*
X152277233Y-71582767D02*
X152277233Y-76802767D01*
X147227233Y-71582767D02*
X147227233Y-76802767D01*
X133227233Y-71582767D02*
X133227233Y-76802767D01*
X128177233Y-71582767D02*
X128177233Y-76802767D01*
X114177234Y-71582767D02*
X114177234Y-76802767D01*
X109127234Y-71582767D02*
X109127234Y-76802767D01*
X95127234Y-71582767D02*
X95127234Y-76802767D01*
X90077234Y-71582767D02*
X90077234Y-76802767D01*
X76077234Y-71582767D02*
X76077234Y-76802767D01*
X71027234Y-71582767D02*
X71027234Y-76802767D01*
X57027234Y-71582767D02*
X57027234Y-76802767D01*
X223714733Y-109682767D02*
X223714733Y-114902767D01*
X237714733Y-109682767D02*
X237714733Y-114902767D01*
X204664733Y-109682767D02*
X204664733Y-114902767D01*
X218664733Y-109682767D02*
X218664733Y-114902767D01*
X185614733Y-109682767D02*
X185614733Y-114902767D01*
X199614733Y-109682767D02*
X199614733Y-114902767D01*
X166564733Y-109682767D02*
X166564733Y-114902767D01*
X180564733Y-109682767D02*
X180564733Y-114902767D01*
X147514733Y-109682767D02*
X147514733Y-114902767D01*
X161514733Y-109682767D02*
X161514733Y-114902767D01*
X128464733Y-109682767D02*
X128464733Y-114902767D01*
X142464733Y-109682767D02*
X142464733Y-114902767D01*
X109414734Y-109682767D02*
X109414734Y-114902767D01*
X123414734Y-109682767D02*
X123414734Y-114902767D01*
X90364734Y-109682767D02*
X90364734Y-114902767D01*
X104364734Y-109682767D02*
X104364734Y-114902767D01*
X151989733Y-90632767D02*
X151989733Y-95852767D01*
X137989733Y-90632767D02*
X137989733Y-95852767D01*
X171039733Y-90632767D02*
X171039733Y-95852767D01*
X157039733Y-90632767D02*
X157039733Y-95852767D01*
X190089733Y-90632767D02*
X190089733Y-95852767D01*
X176089733Y-90632767D02*
X176089733Y-95852767D01*
X209139733Y-90632767D02*
X209139733Y-95852767D01*
X195139733Y-90632767D02*
X195139733Y-95852767D01*
X228189733Y-90632767D02*
X228189733Y-95852767D01*
X214189733Y-90632767D02*
X214189733Y-95852767D01*
X254383483Y-90632767D02*
X254383483Y-95852767D01*
X240383483Y-90632767D02*
X240383483Y-95852767D01*
X59120984Y-109682767D02*
X59120984Y-114902767D01*
X45120984Y-109682767D02*
X45120984Y-114902767D01*
X85314734Y-109682767D02*
X85314734Y-114902767D01*
X71314734Y-109682767D02*
X71314734Y-114902767D01*
X261527233Y-128732766D02*
X261527233Y-133952766D01*
X37977234Y-128732766D02*
X37977234Y-133952766D01*
X137989733Y-128732766D02*
X137989733Y-133952766D01*
X94839734Y-128732766D02*
X94839734Y-133952766D01*
X171449733Y-96242767D02*
X171429733Y-96242767D01*
X171839733Y-99852767D02*
X171839733Y-96632767D01*
X156629733Y-100242767D02*
X171449733Y-100242767D01*
X156239733Y-96632767D02*
X156239733Y-99852767D01*
X156649733Y-96242767D02*
X156629733Y-96242767D01*
X156629733Y-90242767D02*
X156649733Y-90242767D01*
X156239733Y-86632767D02*
X156239733Y-89852767D01*
X156629733Y-86242767D02*
X171449733Y-86242767D01*
X171839733Y-89852767D02*
X171839733Y-86632767D01*
X171429733Y-90242767D02*
X171449733Y-90242767D01*
X190499733Y-96242767D02*
X190479733Y-96242767D01*
X190889733Y-99852767D02*
X190889733Y-96632767D01*
X175679733Y-100242767D02*
X190499733Y-100242767D01*
X175289733Y-96632767D02*
X175289733Y-99852767D01*
X175699733Y-96242767D02*
X175679733Y-96242767D01*
X175679733Y-90242767D02*
X175699733Y-90242767D01*
X175289733Y-86632767D02*
X175289733Y-89852767D01*
X175679733Y-86242767D02*
X190499733Y-86242767D01*
X190889733Y-89852767D02*
X190889733Y-86632767D01*
X190479733Y-90242767D02*
X190499733Y-90242767D01*
X209549733Y-96242767D02*
X209529733Y-96242767D01*
X209939733Y-99852767D02*
X209939733Y-96632767D01*
X194729733Y-100242767D02*
X209549733Y-100242767D01*
X194339733Y-96632767D02*
X194339733Y-99852767D01*
X194749733Y-96242767D02*
X194729733Y-96242767D01*
X194729733Y-90242767D02*
X194749733Y-90242767D01*
X194339733Y-86632767D02*
X194339733Y-89852767D01*
X194729733Y-86242767D02*
X209549733Y-86242767D01*
X209939733Y-89852767D02*
X209939733Y-86632767D01*
X209529733Y-90242767D02*
X209549733Y-90242767D01*
X228599733Y-96242767D02*
X228579733Y-96242767D01*
X228989733Y-99852767D02*
X228989733Y-96632767D01*
X213779733Y-100242767D02*
X228599733Y-100242767D01*
X213389733Y-96632767D02*
X213389733Y-99852767D01*
X213799733Y-96242767D02*
X213779733Y-96242767D01*
X213779733Y-90242767D02*
X213799733Y-90242767D01*
X213389733Y-86632767D02*
X213389733Y-89852767D01*
X213779733Y-86242767D02*
X228599733Y-86242767D01*
X228989733Y-89852767D02*
X228989733Y-86632767D01*
X228579733Y-90242767D02*
X228599733Y-90242767D01*
X37177234Y-134742766D02*
X37177234Y-137942766D01*
X37587234Y-134342766D02*
X37577234Y-134342766D01*
X37577234Y-128342766D02*
X37587234Y-128342766D01*
X37177234Y-124742767D02*
X37177234Y-127942766D01*
X95239734Y-134342766D02*
X95229734Y-134342766D01*
X95639734Y-137942766D02*
X95639734Y-134742766D01*
X56627234Y-138342766D02*
X95239734Y-138342766D01*
X95639734Y-127942766D02*
X95639734Y-124742767D01*
X95229734Y-128342766D02*
X95239734Y-128342766D01*
X54758484Y-96242767D02*
X54748484Y-96242767D01*
X55158484Y-99842767D02*
X55158484Y-96642767D01*
X39958484Y-100242767D02*
X54758484Y-100242767D01*
X39558484Y-96642767D02*
X39558484Y-99842767D01*
X39968484Y-96242767D02*
X39958484Y-96242767D01*
X39958484Y-90242767D02*
X39968484Y-90242767D01*
X39558484Y-86642767D02*
X39558484Y-89842767D01*
X39958484Y-86242767D02*
X54758484Y-86242767D01*
X55158484Y-89842767D02*
X55158484Y-86642767D01*
X54748484Y-90242767D02*
X54758484Y-90242767D01*
X59520984Y-115292767D02*
X59510984Y-115292767D01*
X59920984Y-118892767D02*
X59920984Y-115692767D01*
X44720984Y-119292767D02*
X59520984Y-119292767D01*
X44320984Y-115692767D02*
X44320984Y-118892767D01*
X44730984Y-115292767D02*
X44720984Y-115292767D01*
X44720984Y-109292767D02*
X44730984Y-109292767D01*
X44320984Y-105692767D02*
X44320984Y-108892767D01*
X44720984Y-105292767D02*
X59520984Y-105292767D01*
X59920984Y-108892767D02*
X59920984Y-105692767D01*
X59510984Y-109292767D02*
X59520984Y-109292767D01*
X123814734Y-115292767D02*
X123804734Y-115292767D01*
X124214734Y-118892767D02*
X124214734Y-115692767D01*
X109014734Y-119292767D02*
X123814734Y-119292767D01*
X108614734Y-115692767D02*
X108614734Y-118892767D01*
X109024734Y-115292767D02*
X109014734Y-115292767D01*
X109014734Y-109292767D02*
X109024734Y-109292767D01*
X108614734Y-105692767D02*
X108614734Y-108892767D01*
X109014734Y-105292767D02*
X123814734Y-105292767D01*
X124214734Y-108892767D02*
X124214734Y-105692767D01*
X123804734Y-109292767D02*
X123814734Y-109292767D01*
X104764734Y-115292767D02*
X104754734Y-115292767D01*
X105164734Y-118892767D02*
X105164734Y-115692767D01*
X89964734Y-119292767D02*
X104764734Y-119292767D01*
X89564734Y-115692767D02*
X89564734Y-118892767D01*
X89974734Y-115292767D02*
X89964734Y-115292767D01*
X89964734Y-109292767D02*
X89974734Y-109292767D01*
X89564734Y-105692767D02*
X89564734Y-108892767D01*
X89964734Y-105292767D02*
X104764734Y-105292767D01*
X105164734Y-108892767D02*
X105164734Y-105692767D01*
X104754734Y-109292767D02*
X104764734Y-109292767D01*
X177470983Y-138342766D02*
X188708483Y-138342766D01*
X176970983Y-138842766D02*
X176970983Y-139842766D01*
X165708483Y-140342766D02*
X176470983Y-140342766D01*
X165208483Y-138842766D02*
X165208483Y-139842766D01*
X137589733Y-138342766D02*
X164708483Y-138342766D01*
X137189733Y-134742766D02*
X137189733Y-137942766D01*
X137599733Y-134342766D02*
X137589733Y-134342766D01*
X137589733Y-128342766D02*
X137599733Y-128342766D01*
X137189733Y-124742767D02*
X137189733Y-127942766D01*
X137589733Y-124342767D02*
X163395983Y-124342767D01*
X164395983Y-125342767D02*
X173208483Y-125342767D01*
X174208483Y-124342767D02*
X191970983Y-124342767D01*
X192970983Y-125342767D02*
X200470983Y-125342767D01*
X200970983Y-125842766D02*
X200970983Y-139842766D01*
X189708483Y-140342766D02*
X200470983Y-140342766D01*
X189208483Y-138842766D02*
X189208483Y-139842766D01*
X203895983Y-125342767D02*
X208927233Y-125342767D01*
X210395983Y-138842766D02*
X210395983Y-139842766D01*
X203895983Y-140342766D02*
X209895983Y-140342766D01*
X203395983Y-125842766D02*
X203395983Y-139842766D01*
X85714734Y-115292767D02*
X85704734Y-115292767D01*
X86114734Y-118892767D02*
X86114734Y-115692767D01*
X70914734Y-119292767D02*
X85714734Y-119292767D01*
X70514734Y-115692767D02*
X70514734Y-118892767D01*
X70924734Y-115292767D02*
X70914734Y-115292767D01*
X70914734Y-109292767D02*
X70924734Y-109292767D01*
X70514734Y-105692767D02*
X70514734Y-108892767D01*
X70914734Y-105292767D02*
X85714734Y-105292767D01*
X86114734Y-108892767D02*
X86114734Y-105692767D01*
X85704734Y-109292767D02*
X85714734Y-109292767D01*
X254783483Y-96242767D02*
X254773483Y-96242767D01*
X255183483Y-99842767D02*
X255183483Y-96642767D01*
X239983483Y-100242767D02*
X254783483Y-100242767D01*
X239583483Y-96642767D02*
X239583483Y-99842767D01*
X239993483Y-96242767D02*
X239983483Y-96242767D01*
X239983483Y-90242767D02*
X239993483Y-90242767D01*
X239583483Y-86642767D02*
X239583483Y-89842767D01*
X239983483Y-86242767D02*
X254783483Y-86242767D01*
X255183483Y-89842767D02*
X255183483Y-86642767D01*
X254773483Y-90242767D02*
X254783483Y-90242767D01*
X259545983Y-115292767D02*
X259535983Y-115292767D01*
X259945983Y-118892767D02*
X259945983Y-115692767D01*
X244745983Y-119292767D02*
X259545983Y-119292767D01*
X244345983Y-115692767D02*
X244345983Y-118892767D01*
X244755983Y-115292767D02*
X244745983Y-115292767D01*
X244745983Y-109292767D02*
X244755983Y-109292767D01*
X244345983Y-105692767D02*
X244345983Y-108892767D01*
X244745983Y-105292767D02*
X259545983Y-105292767D01*
X259945983Y-108892767D02*
X259945983Y-105692767D01*
X259535983Y-109292767D02*
X259545983Y-109292767D01*
X261927233Y-134342766D02*
X261917233Y-134342766D01*
X262327233Y-137942766D02*
X262327233Y-134742766D01*
X244745983Y-138342766D02*
X261927233Y-138342766D01*
X244745983Y-124342767D02*
X261927233Y-124342767D01*
X262327233Y-127942766D02*
X262327233Y-124742767D01*
X261917233Y-128342766D02*
X261927233Y-128342766D01*
X71437234Y-77192767D02*
X71417234Y-77192767D01*
X71827234Y-80802767D02*
X71827234Y-77582767D01*
X56617234Y-81192767D02*
X71437234Y-81192767D01*
X56227234Y-77582767D02*
X56227234Y-80802767D01*
X56637234Y-77192767D02*
X56617234Y-77192767D01*
X56617234Y-71192767D02*
X56637234Y-71192767D01*
X56227234Y-67582767D02*
X56227234Y-70802767D01*
X56617234Y-67192767D02*
X71437234Y-67192767D01*
X71827234Y-70802767D02*
X71827234Y-67582767D01*
X71417234Y-71192767D02*
X71437234Y-71192767D01*
X90487234Y-77192767D02*
X90467234Y-77192767D01*
X90877234Y-80802767D02*
X90877234Y-77582767D01*
X75667234Y-81192767D02*
X90487234Y-81192767D01*
X75277234Y-77582767D02*
X75277234Y-80802767D01*
X75687234Y-77192767D02*
X75667234Y-77192767D01*
X75667234Y-71192767D02*
X75687234Y-71192767D01*
X75277234Y-67582767D02*
X75277234Y-70802767D01*
X75667234Y-67192767D02*
X90487234Y-67192767D01*
X90877234Y-70802767D02*
X90877234Y-67582767D01*
X90467234Y-71192767D02*
X90487234Y-71192767D01*
X109537234Y-77192767D02*
X109517234Y-77192767D01*
X109927234Y-80802767D02*
X109927234Y-77582767D01*
X94717234Y-81192767D02*
X109537234Y-81192767D01*
X94327234Y-77582767D02*
X94327234Y-80802767D01*
X94737234Y-77192767D02*
X94717234Y-77192767D01*
X94717234Y-71192767D02*
X94737234Y-71192767D01*
X94327234Y-67582767D02*
X94327234Y-70802767D01*
X94717234Y-67192767D02*
X109537234Y-67192767D01*
X109927234Y-70802767D02*
X109927234Y-67582767D01*
X109517234Y-71192767D02*
X109537234Y-71192767D01*
X128587233Y-77192767D02*
X128567233Y-77192767D01*
X128977233Y-80802767D02*
X128977233Y-77582767D01*
X113767234Y-81192767D02*
X128587233Y-81192767D01*
X113377234Y-77582767D02*
X113377234Y-80802767D01*
X113787234Y-77192767D02*
X113767234Y-77192767D01*
X113767234Y-71192767D02*
X113787234Y-71192767D01*
X113377234Y-67582767D02*
X113377234Y-70802767D01*
X113767234Y-67192767D02*
X128587233Y-67192767D01*
X128977233Y-70802767D02*
X128977233Y-67582767D01*
X128567233Y-71192767D02*
X128587233Y-71192767D01*
X147637233Y-77192767D02*
X147617233Y-77192767D01*
X148027233Y-80802767D02*
X148027233Y-77582767D01*
X132817233Y-81192767D02*
X147637233Y-81192767D01*
X132427233Y-77582767D02*
X132427233Y-80802767D01*
X132837233Y-77192767D02*
X132817233Y-77192767D01*
X132817233Y-71192767D02*
X132837233Y-71192767D01*
X132427233Y-67582767D02*
X132427233Y-70802767D01*
X132817233Y-67192767D02*
X147637233Y-67192767D01*
X148027233Y-70802767D02*
X148027233Y-67582767D01*
X147617233Y-71192767D02*
X147637233Y-71192767D01*
X166687233Y-77192767D02*
X166667233Y-77192767D01*
X167077233Y-80802767D02*
X167077233Y-77582767D01*
X151867233Y-81192767D02*
X166687233Y-81192767D01*
X151477233Y-77582767D02*
X151477233Y-80802767D01*
X151887233Y-77192767D02*
X151867233Y-77192767D01*
X151867233Y-71192767D02*
X151887233Y-71192767D01*
X151477233Y-67582767D02*
X151477233Y-70802767D01*
X151867233Y-67192767D02*
X166687233Y-67192767D01*
X167077233Y-70802767D02*
X167077233Y-67582767D01*
X166667233Y-71192767D02*
X166687233Y-71192767D01*
X185737233Y-77192767D02*
X185717233Y-77192767D01*
X186127233Y-80802767D02*
X186127233Y-77582767D01*
X170917233Y-81192767D02*
X185737233Y-81192767D01*
X170527233Y-77582767D02*
X170527233Y-80802767D01*
X170937233Y-77192767D02*
X170917233Y-77192767D01*
X170917233Y-71192767D02*
X170937233Y-71192767D01*
X170527233Y-67582767D02*
X170527233Y-70802767D01*
X170917233Y-67192767D02*
X185737233Y-67192767D01*
X186127233Y-70802767D02*
X186127233Y-67582767D01*
X185717233Y-71192767D02*
X185737233Y-71192767D01*
X204787233Y-77192767D02*
X204767233Y-77192767D01*
X205177233Y-80802767D02*
X205177233Y-77582767D01*
X189967233Y-81192767D02*
X204787233Y-81192767D01*
X189577233Y-77582767D02*
X189577233Y-80802767D01*
X189987233Y-77192767D02*
X189967233Y-77192767D01*
X189967233Y-71192767D02*
X189987233Y-71192767D01*
X189577233Y-67582767D02*
X189577233Y-70802767D01*
X189967233Y-67192767D02*
X204787233Y-67192767D01*
X205177233Y-70802767D02*
X205177233Y-67582767D01*
X204767233Y-71192767D02*
X204787233Y-71192767D01*
X152399733Y-96242767D02*
X152379733Y-96242767D01*
X152789733Y-99852767D02*
X152789733Y-96632767D01*
X137579733Y-100242767D02*
X152399733Y-100242767D01*
X137189733Y-96632767D02*
X137189733Y-99852767D01*
X137599733Y-96242767D02*
X137579733Y-96242767D01*
X137579733Y-90242767D02*
X137599733Y-90242767D01*
X137189733Y-86632767D02*
X137189733Y-89852767D01*
X137579733Y-86242767D02*
X152399733Y-86242767D01*
X152789733Y-89852767D02*
X152789733Y-86632767D01*
X152379733Y-90242767D02*
X152399733Y-90242767D01*
X133349733Y-96242767D02*
X133329733Y-96242767D01*
X133739733Y-99852767D02*
X133739733Y-96632767D01*
X118529734Y-100242767D02*
X133349733Y-100242767D01*
X118139734Y-96632767D02*
X118139734Y-99852767D01*
X118549734Y-96242767D02*
X118529734Y-96242767D01*
X118529734Y-90242767D02*
X118549734Y-90242767D01*
X118139734Y-86632767D02*
X118139734Y-89852767D01*
X118529734Y-86242767D02*
X133349733Y-86242767D01*
X133739733Y-89852767D02*
X133739733Y-86632767D01*
X133329733Y-90242767D02*
X133349733Y-90242767D01*
X114299734Y-96242767D02*
X114279734Y-96242767D01*
X114689734Y-99852767D02*
X114689734Y-96632767D01*
X99479734Y-100242767D02*
X114299734Y-100242767D01*
X99089734Y-96632767D02*
X99089734Y-99852767D01*
X99499734Y-96242767D02*
X99479734Y-96242767D01*
X99479734Y-90242767D02*
X99499734Y-90242767D01*
X99089734Y-86632767D02*
X99089734Y-89852767D01*
X99479734Y-86242767D02*
X114299734Y-86242767D01*
X114689734Y-89852767D02*
X114689734Y-86632767D01*
X114279734Y-90242767D02*
X114299734Y-90242767D01*
X95249734Y-96242767D02*
X95229734Y-96242767D01*
X95639734Y-99852767D02*
X95639734Y-96632767D01*
X80429734Y-100242767D02*
X95249734Y-100242767D01*
X80039734Y-96632767D02*
X80039734Y-99852767D01*
X80449734Y-96242767D02*
X80429734Y-96242767D01*
X80429734Y-90242767D02*
X80449734Y-90242767D01*
X80039734Y-86632767D02*
X80039734Y-89852767D01*
X80429734Y-86242767D02*
X95249734Y-86242767D01*
X95639734Y-89852767D02*
X95639734Y-86632767D01*
X95229734Y-90242767D02*
X95249734Y-90242767D01*
X223837233Y-77192767D02*
X223817233Y-77192767D01*
X224227233Y-80802767D02*
X224227233Y-77582767D01*
X209017233Y-81192767D02*
X223837233Y-81192767D01*
X208627233Y-77582767D02*
X208627233Y-80802767D01*
X209037233Y-77192767D02*
X209017233Y-77192767D01*
X209017233Y-71192767D02*
X209037233Y-71192767D01*
X208627233Y-67582767D02*
X208627233Y-70802767D01*
X209017233Y-67192767D02*
X223837233Y-67192767D01*
X224227233Y-70802767D02*
X224227233Y-67582767D01*
X223817233Y-71192767D02*
X223837233Y-71192767D01*
X242887233Y-77192767D02*
X242867233Y-77192767D01*
X243277233Y-80802767D02*
X243277233Y-77582767D01*
X228067233Y-81192767D02*
X242887233Y-81192767D01*
X227677233Y-77582767D02*
X227677233Y-80802767D01*
X228087233Y-77192767D02*
X228067233Y-77192767D01*
X228067233Y-71192767D02*
X228087233Y-71192767D01*
X227677233Y-67582767D02*
X227677233Y-70802767D01*
X228067233Y-67192767D02*
X242887233Y-67192767D01*
X243277233Y-70802767D02*
X243277233Y-67582767D01*
X242867233Y-71192767D02*
X242887233Y-71192767D01*
X261937233Y-77192767D02*
X261917233Y-77192767D01*
X262327233Y-80802767D02*
X262327233Y-77582767D01*
X247117233Y-81192767D02*
X261937233Y-81192767D01*
X246727233Y-77582767D02*
X246727233Y-80802767D01*
X247137233Y-77192767D02*
X247117233Y-77192767D01*
X247117233Y-71192767D02*
X247137233Y-71192767D01*
X246727233Y-67582767D02*
X246727233Y-70802767D01*
X247117233Y-67192767D02*
X261937233Y-67192767D01*
X262327233Y-70802767D02*
X262327233Y-67582767D01*
X261917233Y-71192767D02*
X261937233Y-71192767D01*
X76199734Y-96242767D02*
X76179734Y-96242767D01*
X76589734Y-99852767D02*
X76589734Y-96632767D01*
X61379734Y-100242767D02*
X76199734Y-100242767D01*
X60989734Y-96632767D02*
X60989734Y-99852767D01*
X61399734Y-96242767D02*
X61379734Y-96242767D01*
X61379734Y-90242767D02*
X61399734Y-90242767D01*
X60989734Y-86632767D02*
X60989734Y-89852767D01*
X61379734Y-86242767D02*
X76199734Y-86242767D01*
X76589734Y-89852767D02*
X76589734Y-86632767D01*
X76179734Y-90242767D02*
X76199734Y-90242767D01*
X142864733Y-115292767D02*
X142854733Y-115292767D01*
X143264733Y-118892767D02*
X143264733Y-115692767D01*
X128064733Y-119292767D02*
X142864733Y-119292767D01*
X127664733Y-115692767D02*
X127664733Y-118892767D01*
X128074733Y-115292767D02*
X128064733Y-115292767D01*
X128064733Y-109292767D02*
X128074733Y-109292767D01*
X127664733Y-105692767D02*
X127664733Y-108892767D01*
X128064733Y-105292767D02*
X142864733Y-105292767D01*
X143264733Y-108892767D02*
X143264733Y-105692767D01*
X142854733Y-109292767D02*
X142864733Y-109292767D01*
X161914733Y-115292767D02*
X161904733Y-115292767D01*
X162314733Y-118892767D02*
X162314733Y-115692767D01*
X147114733Y-119292767D02*
X161914733Y-119292767D01*
X146714733Y-115692767D02*
X146714733Y-118892767D01*
X147124733Y-115292767D02*
X147114733Y-115292767D01*
X147114733Y-109292767D02*
X147124733Y-109292767D01*
X146714733Y-105692767D02*
X146714733Y-108892767D01*
X147114733Y-105292767D02*
X161914733Y-105292767D01*
X162314733Y-108892767D02*
X162314733Y-105692767D01*
X161904733Y-109292767D02*
X161914733Y-109292767D01*
X180964733Y-115292767D02*
X180954733Y-115292767D01*
X181364733Y-118892767D02*
X181364733Y-115692767D01*
X166164733Y-119292767D02*
X180964733Y-119292767D01*
X165764733Y-115692767D02*
X165764733Y-118892767D01*
X166174733Y-115292767D02*
X166164733Y-115292767D01*
X166164733Y-109292767D02*
X166174733Y-109292767D01*
X165764733Y-105692767D02*
X165764733Y-108892767D01*
X166164733Y-105292767D02*
X180964733Y-105292767D01*
X181364733Y-108892767D02*
X181364733Y-105692767D01*
X180954733Y-109292767D02*
X180964733Y-109292767D01*
X200014733Y-115292767D02*
X200004733Y-115292767D01*
X200414733Y-118892767D02*
X200414733Y-115692767D01*
X185214733Y-119292767D02*
X200014733Y-119292767D01*
X184814733Y-115692767D02*
X184814733Y-118892767D01*
X185224733Y-115292767D02*
X185214733Y-115292767D01*
X185214733Y-109292767D02*
X185224733Y-109292767D01*
X184814733Y-105692767D02*
X184814733Y-108892767D01*
X185214733Y-105292767D02*
X200014733Y-105292767D01*
X200414733Y-108892767D02*
X200414733Y-105692767D01*
X200004733Y-109292767D02*
X200014733Y-109292767D01*
X219064733Y-115292767D02*
X219054733Y-115292767D01*
X219464733Y-118892767D02*
X219464733Y-115692767D01*
X204264733Y-119292767D02*
X219064733Y-119292767D01*
X203864733Y-115692767D02*
X203864733Y-118892767D01*
X204274733Y-115292767D02*
X204264733Y-115292767D01*
X204264733Y-109292767D02*
X204274733Y-109292767D01*
X203864733Y-105692767D02*
X203864733Y-108892767D01*
X204264733Y-105292767D02*
X219064733Y-105292767D01*
X219464733Y-108892767D02*
X219464733Y-105692767D01*
X219054733Y-109292767D02*
X219064733Y-109292767D01*
X238114733Y-115292767D02*
X238104733Y-115292767D01*
X238514733Y-118892767D02*
X238514733Y-115692767D01*
X223314733Y-119292767D02*
X238114733Y-119292767D01*
X222914733Y-115692767D02*
X222914733Y-118892767D01*
X223324733Y-115292767D02*
X223314733Y-115292767D01*
X223314733Y-109292767D02*
X223324733Y-109292767D01*
X222914733Y-105692767D02*
X222914733Y-108892767D01*
X223314733Y-105292767D02*
X238114733Y-105292767D01*
X238514733Y-108892767D02*
X238514733Y-105692767D01*
X238104733Y-109292767D02*
X238114733Y-109292767D01*
X52387234Y-77192767D02*
X52367234Y-77192767D01*
X52777234Y-80802767D02*
X52777234Y-77582767D01*
X37567234Y-81192767D02*
X52387234Y-81192767D01*
X37177234Y-77582767D02*
X37177234Y-80802767D01*
X37587234Y-77192767D02*
X37567234Y-77192767D01*
X37567234Y-71192767D02*
X37587234Y-71192767D01*
X37177234Y-67582767D02*
X37177234Y-70802767D01*
X37567234Y-67192767D02*
X52387234Y-67192767D01*
X52777234Y-70802767D02*
X52777234Y-67582767D01*
X52367234Y-71192767D02*
X52387234Y-71192767D01*
X30452234Y-142867766D02*
X30452234Y-63167767D01*
X259052233Y-142867766D02*
X40452234Y-142867766D01*
X269052233Y-63167767D02*
X269052233Y-142867766D01*
X40452234Y-63167767D02*
X259052233Y-63167767D01*
X110895984Y-138342766D02*
X122033484Y-138342766D01*
X110395984Y-138842766D02*
X110395984Y-139842766D01*
X99033484Y-140342766D02*
X109895984Y-140342766D01*
X98533484Y-125842766D02*
X98533484Y-139842766D01*
X99033484Y-125342767D02*
X106533484Y-125342767D01*
X107533484Y-124342767D02*
X125295984Y-124342767D01*
X126295983Y-125342767D02*
X133795983Y-125342767D01*
X134295983Y-125842766D02*
X134295983Y-139842766D01*
X123033484Y-140342766D02*
X133795983Y-140342766D01*
X122533484Y-138842766D02*
X122533484Y-139842766D01*
D11*
X32952234Y-60667767D02*
X33267495Y-60674938D01*
X33558313Y-60695843D01*
X33826608Y-60729565D01*
X34074304Y-60775188D01*
X34303323Y-60831798D01*
X34515588Y-60898479D01*
X34713021Y-60974316D01*
X34897546Y-61058392D01*
X35235559Y-61247600D01*
X35545007Y-61458782D01*
X35841272Y-61684612D01*
X36139734Y-61917767D01*
X36455774Y-62150921D01*
X36625192Y-62265209D01*
X36804773Y-62376751D01*
X36996438Y-62484631D01*
X37202111Y-62587933D01*
X37423715Y-62685741D01*
X37663171Y-62777142D01*
X37922403Y-62861217D01*
X38203332Y-62937054D01*
X38507882Y-63003735D01*
X38837976Y-63060345D01*
X39195535Y-63105968D01*
X39582483Y-63139690D01*
X40000741Y-63160595D01*
X40452234Y-63167767D01*
X40452234Y-142867766D02*
X40000741Y-142874937D01*
X39582483Y-142895842D01*
X39195535Y-142929564D01*
X38837976Y-142975187D01*
X38507882Y-143031797D01*
X38203332Y-143098478D01*
X37922403Y-143174315D01*
X37663171Y-143258391D01*
X37423715Y-143349791D01*
X37202111Y-143447599D01*
X36996438Y-143550901D01*
X36804773Y-143658781D01*
X36625192Y-143770323D01*
X36455774Y-143884611D01*
X36139734Y-144117766D01*
X35841272Y-144350920D01*
X35545007Y-144576750D01*
X35235559Y-144787932D01*
X34897546Y-144977141D01*
X34713021Y-145061216D01*
X34515588Y-145137053D01*
X34303323Y-145203734D01*
X34074304Y-145260344D01*
X33826608Y-145305967D01*
X33558313Y-145339689D01*
X33267495Y-145360594D01*
X32952234Y-145367766D01*
X266552233Y-145367766D02*
X266236971Y-145360594D01*
X265946153Y-145339689D01*
X265677858Y-145305967D01*
X265430162Y-145260344D01*
X265201143Y-145203734D01*
X264988878Y-145137053D01*
X264791445Y-145061216D01*
X264606920Y-144977141D01*
X264268907Y-144787932D01*
X263959459Y-144576750D01*
X263663194Y-144350920D01*
X263364733Y-144117766D01*
X263048692Y-143884611D01*
X262879274Y-143770323D01*
X262699693Y-143658781D01*
X262508028Y-143550901D01*
X262302355Y-143447599D01*
X262080751Y-143349791D01*
X261841295Y-143258391D01*
X261582063Y-143174315D01*
X261301134Y-143098478D01*
X260996584Y-143031797D01*
X260666490Y-142975187D01*
X260308931Y-142929564D01*
X259921983Y-142895842D01*
X259503725Y-142874937D01*
X259052233Y-142867766D01*
X259052233Y-63167767D02*
X259503725Y-63160595D01*
X259921983Y-63139690D01*
X260308931Y-63105968D01*
X260666490Y-63060345D01*
X260996584Y-63003735D01*
X261301134Y-62937054D01*
X261582063Y-62861217D01*
X261841295Y-62777142D01*
X262080751Y-62685741D01*
X262302355Y-62587933D01*
X262508028Y-62484631D01*
X262699693Y-62376751D01*
X262879274Y-62265209D01*
X263048692Y-62150921D01*
X263364733Y-61917767D01*
X263663194Y-61684612D01*
X263959459Y-61458782D01*
X264268907Y-61247600D01*
X264606920Y-61058392D01*
X264791445Y-60974316D01*
X264988878Y-60898479D01*
X265201143Y-60831798D01*
X265430162Y-60775188D01*
X265677858Y-60729565D01*
X265946153Y-60695843D01*
X266236971Y-60674938D01*
X266552233Y-60667767D01*
D10*
X267302233Y-63667767D02*
G75*
G03*
X267302233Y-63667767I-1250000J0D01*
G01*
X267302233Y-141867766D02*
G75*
G03*
X267302233Y-141867766I-1250000J0D01*
G01*
X34702234Y-141867766D02*
G75*
G03*
X34702234Y-141867766I-1250000J0D01*
G01*
X34702234Y-63667767D02*
G75*
G03*
X34702234Y-63667767I-1250000J0D01*
G01*
M02*
